<?xml version="1.0" encoding="UTF-8"?>
<svg id="_Слой_1" data-name="Слой_1" xmlns="http://www.w3.org/2000/svg" version="1.1" viewBox="0 0 111.16 32">
  <!-- Generator: Adobe Illustrator 30.2.1, SVG Export Plug-In . SVG Version: 2.1.1 Build 1)  -->
  <defs>
    <style>
      .st0 {
        fill-rule: evenodd;
      }

      .st0, .st1 {
        fill: #fff;
      }

      .st1 {
        stroke: #000;
        stroke-linecap: round;
      }
    </style>
  </defs>
  <g id="Selected_Items">
    <g id="Selected_Items1" data-name="Selected_Items">
      <path class="st0" d="M109.13,4.43v4.03l1.42.15c.1.2.19.4.26.6.1.15.16.3.19.45,0,.12-.06.25-.19.37-.15.15-.36.22-.64.22-.12,0-.26-.04-.41-.11h-.45l-.63,1.12-1.19-.48h-10.03l-.52.64-.6-.45h-7.16l-.11.64h-11.27l-1.34.71c-.32.2-.65.37-.97.52-.35.1-.58.15-.71.15-.25,0-.49-.04-.71-.11-.15-.02-.25-.09-.3-.19l-.52-.33h-5.11c0,1.27.29,2.57.86,3.92.5,1.17,1.28,2.46,2.35,3.88,1.1,1.44,2.66,2.89,4.7,4.33-.05,0-.27.29-.67.86-.32.6-.74,1.24-1.23,1.94-.45.8-1.01,1.7-1.68,2.72-1.49-1.02-2.91-2.24-4.25-3.66-1.17-1.22-2.38-2.75-3.62-4.59-1.24-1.79-2.27-3.93-3.1-6.42-.1-.1-.24-.09-.41.04-.12.07-.22.16-.3.26l-1.12-.19c-.57.32-1.17.55-1.79.67-.5.15-1.08.19-1.75.11-.7-.08-1.37-.37-2.01-.9-.05,0-.28.19-.71.56-.42.38-.88.86-1.38,1.45-.52.62-1.01,1.32-1.45,2.09-.47.72-.8,1.45-.97,2.2,0,.05-.22.15-.67.3-.42.17-.92.29-1.49.33-.55.03-1.07-.1-1.57-.37-.47-.3-.77-.89-.9-1.79.02-.1.21-.5.56-1.19.3-.65.66-1.33,1.08-2.05.4-.75.77-1.43,1.12-2.05.37-.6.6-.9.67-.9-.07,0-.29-.15-.63-.45-.3-.3-.62-.41-.97-.34-.07.02-.32.11-.75.26-.45.12-1.01.31-1.68.56-.67.25-1.42.52-2.24.82-.85.3-1.69.6-2.54.9-1.99.72-4.22,1.54-6.68,2.46l-8.84,2.91-.75-10.56c.4-.3.86-.52,1.38-.67.47-.18,1.02-.31,1.64-.41.57-.12,1.21-.11,1.9.04,0,.05.55.04,1.64-.04,1.09-.12,2.31-.22,3.66-.3l5.41-.34c.35.1.7.21,1.04.34.62.22,1.14.34,1.57.34.15,0,.46-.07.93-.22.52-.1,1.06-.24,1.6-.41.62-.15,1.32-.36,2.09-.63l3.4-2.91.3.3h20.74s.08-.11.22-.18c.07-.08.21-.14.41-.19.2-.05.5-.08.89-.08l15.97.15c.3.07.6.18.9.3.22.07.47.15.75.22.25.12.47.2.67.22h6.68c.35.45.68.86,1.01,1.23.27.3.57.61.89.93.27.27.51.42.71.45h5.86l.45-.15c.3-.52.51-.99.63-1.42.17-.35.34-.71.49-1.08.12-.38.24-.61.33-.71.07-.35.11-.53.11-.56v-.26h1.53ZM58.13,12.79l-2.01.04c-.4-.02-.75.09-1.04.34-.25.27-.37.61-.37,1.01,0,.32.13.61.37.86.3.25.65.38,1.04.38h2.01c.37,0,.67-.13.9-.38.22-.25.33-.53.33-.86,0-.4-.11-.73-.33-1.01-.22-.25-.52-.37-.9-.37Z"/>
    </g>
  </g>
  <path id="Layer0_0_1_STROKES" class="st1" d="M19.04,20.12c.41-.15.38-.42-.08-.82-.92-.78-1.28-1.51-1.1-2.19.09-.33.41-.77.96-1.3.32-.31.86-.8,1.62-1.49.64-.63,1.1-1.21,1.35-1.73.34-.67.4-1.34.19-1.98-.38-1.18-1.65-1.86-3.8-2.05-.58-.05-1.53-.09-2.85-.09-1.25-.01-2.16-.05-2.73-.11-1.66-.19-3.32-.61-4.98-1.28-1.67-.67-2.95-1.38-3.85-2.15-.9-.76-1.85-1.84-2.85-3.22-.13,3.93,1.51,6.78,4.9,8.56-1.59.16-3.12-.31-4.61-1.41,1.14,3.08,3.47,4.8,6.98,5.16-.96.7-2.28.8-3.93.31,1.53,1.95,4.24,2.87,8.15,2.75-.76.67-1.7,1.05-2.82,1.15,1.64,1.12,3.85,1.39,6.64.83.98.71,1.92,1.06,2.82,1.05Z"/>
</svg>