<?xml version="1.0" encoding="UTF-8"?>
<svg id="_Слой_1" data-name="Слой_1" xmlns="http://www.w3.org/2000/svg" version="1.1" viewBox="0 0 98.6 32">
  <!-- Generator: Adobe Illustrator 30.2.1, SVG Export Plug-In . SVG Version: 2.1.1 Build 1)  -->
  <defs>
    <style>
      .st0 {
        fill-rule: evenodd;
      }

      .st0, .st1 {
        fill: #fff;
      }

      .st1 {
        stroke: #000;
        stroke-linecap: round;
      }
    </style>
  </defs>
  <g id="Selected_Items">
    <g id="Selected_Items1" data-name="Selected_Items">
      <path class="st0" d="M59.84,14.25c-.08.05-.15.11-.23.19-.17.2-.26.45-.26.75,0,.13.02.38.07.75.03.12-.03.2-.15.23-.15.05-.4.06-.75.04l-.49-.04c-.02.3-.09.45-.19.45h-.9c-.12,0-.21.03-.26.08-.08.1-.15.17-.23.23-.17.17-.79,1.3-1.83,3.37-.25.48-.28.89-.08,1.24.15.27.35.45.6.52.5.08,1.35.08,2.55,0,.92-.1,1.64-.34,2.14-.71.35-.3,1.57-2.17,3.67-5.62.12-.23-.04-.71-.49-1.46h-3.19ZM95.04,8.26c.07.02.22.04.45.04.15,0,.32-.07.52-.23h1.84l.19.34c.1.28.15.56.15.86,0,.32-.05.61-.15.86-.1.23-.19.34-.26.34h-1.65s-.16-.06-.34-.11c-.07-.03-.19-.04-.34-.04s-.3.02-.45.08l-.22.07h-1.05l-.15-.11h-1.65l-.15-.15h-.79c-.05.18-.16.26-.34.26h-1.54c-.1,0-.2-.04-.3-.11l-.11-.07-10.83.26-.6.64h-.26l-.19-.23h-.26l-.15.23h-2.25l-.3,2.29c-.02.25-.19.43-.49.52l.26.26.6.07c.4.08.59.24.56.49-.15.82-.19,1.44-.11,1.84.05.25.06.82.04,1.72v1.95c.05.77.34,1.6.86,2.48.1.17-.08.35-.53.53-.45.17-.92.26-1.42.26-.42,0-.97-.1-1.65-.3l-.94-.26c-.03-1.1.04-2.11.19-3.04.05-.35.22-.96.53-1.84.2-.6.26-1.04.19-1.31-.05-.3-.14-.61-.26-.94-.15-.33-.25-.55-.3-.67-.07-.2.11-.43.56-.68.22-.12.45-.24.67-.34-.9-.05-1.84-.1-2.81-.15-1.92-.05-3.01,0-3.26.15-.73.48-1.67,1.54-2.85,3.19-.28.35-1.08,1.55-2.4,3.6-.55.8-1.07,1.32-1.58,1.57-.37.18-1.09.3-2.14.38-.85.05-2.09.11-3.71.19-1.4.02-2.27.04-2.62.04-.25,0-.41-.08-.49-.23-.07-.15-.1-.41-.07-.79.05-1.08.19-1.85.41-2.33.1-.23.34-.66.71-1.31.38-.67.64-1.08.79-1.2.08-.1.33-.32.75-.67.38-.45.56-1,.56-1.65,0-.72-.31-1.15-.94-1.27-.27-.05-.97-.02-2.1.07-1.07.05-1.84.1-2.29.15-.75.05-1.17.18-1.27.38-.2.3-.55.54-1.05.71l-.08,1.35c.12,1.37.51,3.19,1.16,5.43,1,3.55,1.91,5.86,2.74,6.93.35.45.31.79-.11,1.01-.25.1-1.16.42-2.74.97-1.6.57-2.52.9-2.77.98-.3.08-.42-.38-.38-1.35-.22-.42-.51-1.04-.86-1.84-.62-1.65-1.18-3.44-1.65-5.36-.45-1.92-.77-3.77-.98-5.55l-.15-2.06c-.55-.2-.92-.21-1.13-.04l-1.69,1.35c-.07.07-.2,0-.38-.23-.18-.2-.29-.29-.34-.26-.6.22-1.5.74-2.7,1.54-1.38.98-2.14,1.72-2.29,2.25l-.27.9.41.45c.27.32.41.54.41.64,0,.32-.1.58-.3.75-.17.17-.43.26-.75.26h-4.39c-.28,0-.55-.11-.82-.34-.33-.3-.58-.7-.75-1.2-.2-.65-.59-2.26-1.16-4.84-.57-2.7-.88-4.35-.9-4.95-.02-.62.01-1.07.11-1.35.07-.2.24-.44.49-.71.25-.27.65-.6,1.2-.98.6-.4,1.06-.6,1.39-.6l23.58-.49v-.26l.6-.45c.42-.3.73-.5.9-.6.27-.12.62-.19,1.05-.19l1.42.04v-1.91h-.56c.02.27-.16.41-.56.41-.23,0-.38-.06-.45-.19l-.08-.22h-1.31l-.19.19h-.45c-.23-.32-.34-.87-.34-1.65s.1-1.16.3-1.24h.34l.23.15,1.27-.04.07-.26c.08-.15.25-.23.52-.23.33,0,.49.15.49.45l.38-.04v-.64l.71-.11c.23,0,.49.02.79.08v.45l2.96-.41c2.05-.27,3.24-.41,3.56-.41h1.16l.52.41h.53v-.23h.41v.15h.75v3.67l-.75.04v.15h-.38v-.23h-1.87l.3.45h.49c.35.05.54.14.56.26l.15.71h1.24v-.15h.56v.15h1.28v-.15h.56v.15h1.27v-.15h.53v.15h1.31v-.15h.53v.15h1.31v-.15h.52v.15h1.01l2.66,1.31v.86l.67.37h11.62l.19-.11c.12-.12.22-.19.3-.19h1.39l.34.3h.67l.34-.19c.28-.02.76,0,1.46.08l.04-.15c.07-.1.18-.15.3-.15h.94c.1,0,.19.03.26.08Z"/>
    </g>
  </g>
  <path id="Layer0_0_1_STROKES" class="st1" d="M18.84,19.97c.41-.15.38-.42-.08-.82-.92-.78-1.28-1.51-1.1-2.19.09-.33.41-.77.96-1.3.32-.31.86-.8,1.62-1.49.64-.63,1.1-1.21,1.35-1.73.34-.67.4-1.34.19-1.98-.38-1.18-1.65-1.86-3.8-2.05-.58-.05-1.53-.09-2.85-.09-1.25-.01-2.16-.05-2.73-.11-1.66-.19-3.32-.61-4.98-1.28-1.67-.67-2.95-1.38-3.85-2.15-.9-.76-1.85-1.84-2.85-3.22-.13,3.93,1.51,6.78,4.9,8.56-1.59.16-3.12-.31-4.61-1.41,1.14,3.08,3.47,4.8,6.98,5.16-.96.7-2.28.8-3.93.31,1.53,1.95,4.24,2.87,8.15,2.75-.76.67-1.7,1.05-2.82,1.15,1.64,1.12,3.85,1.39,6.64.83.98.71,1.92,1.06,2.82,1.05Z"/>
</svg>