<?xml version="1.0" encoding="UTF-8"?>
<svg id="_Слой_1" data-name="Слой_1" xmlns="http://www.w3.org/2000/svg" version="1.1" viewBox="0 0 131.96 32">
  <!-- Generator: Adobe Illustrator 30.2.1, SVG Export Plug-In . SVG Version: 2.1.1 Build 1)  -->
  <defs>
    <style>
      .st0 {
        fill-rule: evenodd;
      }

      .st0, .st1 {
        fill: #fff;
      }

      .st1 {
        stroke: #000;
        stroke-linecap: round;
      }
    </style>
  </defs>
  <g id="Selected_Items">
    <g id="Selected_Items1" data-name="Selected_Items">
      <path class="st0" d="M131.75,11.32c.05.13.1.26.15.39.08.18.12.35.12.5,0,.26-.15.62-.46,1.08l-.11.19h-40.98v.69h3.01v2.62l.42.42c.23.18.35.49.35.92,0,.16-.03.26-.08.31-.05,0-.08.04-.08.12v.12c0,.31-.06.46-.19.46h-15.82c-.13.08-.19.21-.19.39.05,0,.12.04.19.11l.27.27-.19.58h-1.54l-.19-.19c-.08-.13-.24-.51-.5-1.16-.26-.59-.28-1.08-.08-1.47,0-.31.15-.46.46-.46h.12c.64,0,1.04.09,1.2.27.36,0,.78-.1,1.27-.31l-7.49-.08c-.05,0-.37.09-.96.27-.51.13-1.1.3-1.77.5-.64.18-1.26.35-1.85.5-.54.13-.84.23-.89.31v2.7l-8.84.93v-2.78c-.46,0-.75.06-.85.19-.08.13-.28.3-.62.5-.31.31-.69.51-1.16.62-.51.18-1.11.23-1.77.15-.67-.05-1.43-.33-2.28-.85-.05,0-.1.02-.15.08h-.31c0,.33-.01.73-.04,1.2-.05.51-.14,1.03-.27,1.54-.08.51-.23,1-.46,1.47-.15.41-.33.67-.54.77-.36.21-.97.27-1.82.19-.85-.05-1.75-.17-2.7-.35-.95-.13-1.83-.27-2.62-.42-.8-.23-1.29-.4-1.47-.5-.18-.13-.54-.51-1.08-1.16-.39-.31-.77-.66-1.16-1.04-.39-.33-.63-.51-.73-.54h-5.06c-.21,1.39-.33,2.21-.39,2.47-.03.21-.1.31-.23.31-.08.18-.23.27-.46.27-.21,0-.64-.09-1.31-.27h-1.54c-.54-.03-.88-.03-1,0-.23,0-.49.04-.77.12-.34.1-.73.17-1.2.19-.36.13-.77.22-1.24.27-.51.08-.82.14-.93.19h-.27c-.08,0-.12-.04-.12-.12-.05-.1-.08-.32-.08-.65v-4.44c.13-1.18.19-2.33.19-3.43v-2.55c0-.2.26-.42.77-.65.46-.21,1.61-.28,3.44-.23h1l.08-.08.12-.08c.05,0,.11-.04.19-.12.08-.05.18-.13.31-.23h9.19c.21.03.41.14.62.35.46.31.81.65,1.04,1.04h10.42c.08-.2.18-.53.31-.96.13-.39.19-.71.19-.96v-.23h.08c.28-.1.78-.19,1.5-.27.69-.02,1.11-.1,1.24-.23.13,0,.26-.03.39-.08.02-.08.1-.14.23-.19h3.24v-.97h-1.2c-.13,0-.45.05-.96.15-.51.08-1.13.15-1.85.23-.67.08-1.39.14-2.16.19-.72,0-1.35-.04-1.89-.12l-.08-.19v-.11c-.08-.72-.12-1.27-.12-1.66v-1.04c0-.21.04-.35.12-.42l.08-.08h.19l.81-.08c.57-.03,1.18-.06,1.85-.12.72-.08,1.44-.11,2.16-.11.67,0,1.18.04,1.54.11h3.36c.59,0,1.15-.01,1.66-.04.46-.05.82-.08,1.08-.08v-.66c-.05-.03-.08-.09-.08-.19v-.62l3.2-.19h.04l.38,1.08c0,.05-.04.09-.12.12-.05.1-.14.15-.27.15v.19h5.6c.44-.1,1.05-.19,1.85-.27.85-.08,1.68-.17,2.51-.27.85-.08,1.63-.14,2.35-.19.67-.03,1.09.03,1.27.16l.15.11.08,4.4h-.23c-4.68,0-7.19-.15-7.53-.46v.15c-.18-.1-.54-.17-1.08-.19-.54-.05-1.16-.04-1.85.04v.89h63.67v.15c.06.13.12.27.2.43ZM54.33,17.68h-2.16c-.59,0-.89.27-.89.81,0,.64.3.97.89.97h2.16c.59,0,.89-.32.89-.97,0-.54-.3-.81-.89-.81ZM41.71,21.43c.36.75.93,1.16,1.7,1.24.64.18,1.4.08,2.28-.31.44-.23.91-.64,1.43-1.23.18-.33.31-.72.39-1.16.08-.51.03-.91-.16-1.2-.13-.49-.6-.81-1.43-.97-1.06-.21-1.9-.17-2.55.12-.44.23-.75.42-.93.58-.21.15-.4.41-.58.77-.41.67-.46,1.39-.15,2.16Z"/>
    </g>
  </g>
  <path id="Layer0_0_1_STROKES" class="st1" d="M18.91,20.21c.41-.15.38-.42-.08-.82-.92-.78-1.28-1.51-1.1-2.19.09-.33.41-.77.96-1.3.32-.31.86-.8,1.62-1.49.64-.63,1.1-1.21,1.35-1.73.34-.67.4-1.34.19-1.98-.38-1.18-1.65-1.86-3.8-2.05-.58-.05-1.53-.09-2.85-.09-1.25-.01-2.16-.05-2.73-.11-1.66-.19-3.32-.61-4.98-1.28-1.67-.67-2.95-1.38-3.85-2.15-.9-.76-1.85-1.84-2.85-3.22-.13,3.93,1.51,6.78,4.9,8.56-1.59.16-3.12-.31-4.61-1.41,1.14,3.08,3.47,4.8,6.98,5.16-.96.7-2.28.8-3.93.31,1.53,1.95,4.24,2.87,8.15,2.75-.76.67-1.7,1.05-2.82,1.15,1.64,1.12,3.85,1.39,6.64.83.98.71,1.92,1.06,2.82,1.05Z"/>
</svg>