<?xml version="1.0" encoding="UTF-8"?>
<svg id="_Слой_1" data-name="Слой_1" xmlns="http://www.w3.org/2000/svg" version="1.1" viewBox="0 0 113.75 32">
  <!-- Generator: Adobe Illustrator 30.2.1, SVG Export Plug-In . SVG Version: 2.1.1 Build 1)  -->
  <defs>
    <style>
      .st0 {
        fill-rule: evenodd;
      }

      .st0, .st1 {
        fill: #fff;
      }

      .st1 {
        stroke: #000;
        stroke-linecap: round;
      }
    </style>
  </defs>
  <g id="Selected_Items">
    <g id="Selected_Items1" data-name="Selected_Items">
      <path class="st0" d="M105.52,2.07c.31-.03.62-.04.96-.04.03-.03.04-.05.04-.08h.75s.07.01.13.04l.04.04s.01.04.04.04h.12s.07.04.12.04c.03.03.06.06.08.08.03.03.04.06.04.08s.01.06.04.08v.29s.01.06.04.08c.03.03.04.06.04.08.03.03.04.06.04.09v.87s.01.04.04.04c0,.03.01.06.04.08v.08s-.04.06-.04.08v.08s-.06.04-.08.04v.08s-.03.03-.04.04v1.01l.04.04s.01.04.04.04c.03.03.06.06.08.08v.33s-.04.06-.04.08-.01.05-.04.08v2.55h4.72c.06.03.11.06.17.08l.04.04h.08v-.04c.06.03.11.06.17.08,0,.03.01.04.04.04l.08.08v2.92s-.04.06-.04.08l-.04.04v.17s-.01.06-.04.08v.09s-.06.04-.08.04c0,.03-.01.04-.04.04h-4.22c-.06,0-.1.02-.12.04h-.17s-.06.03-.08.04c.02,0,.05.02.08.04v-.04c.06.03.11.06.17.08.03.03.06.04.08.04,0,.03.01.06.04.09v.08s.04.06.04.08c0,.03.01.06.04.08v.54s-.01.06-.04.08c0,.03-.01.06-.04.09l-.04.05v.04s.01.06.04.08l-.04.08s.07.01.13.04c.03.03.06.06.08.08,0,.03.01.04.04.04v.25s.06.01.08.04c.03.03.06.06.08.08,0,.03.01.04.04.04v.42s-.04.06-.04.08-.01.06-.04.08c0,.03-.01.04-.04.04v4.63s-.01.05-.04.08c0,.03-.02.06-.04.08l-.08.08h-.17v.04s-.06.04-.08.04c0,.03-.01.04-.04.04h-2.34c-.06,0-.12-.01-.21-.04-.03-.03-.04-.06-.04-.08-.03-.03-.06-.05-.08-.08v-.13s-.06-.06-.08-.08v-.42h-27.06s-.05.06-.08.08v.25s.04.06.04.08c.03.03.04.06.04.08v.13s-.05.06-.08.08c-.03.04-.04.07-.04.1v.04s-.05.01-.08.04l-.04.04h-1.09c-.06,0-.13-.02-.21-.04-.03-.03-.04-.06-.04-.08-.03-.03-.05-.06-.08-.08v-.12s-.01.04-.04.04h-.12c-.06,0-.11-.01-.17-.04-.03-.03-.06-.06-.08-.08-.03-.03-.06-.06-.08-.08-.03,0-.06-.01-.08-.04,0-.03-.01-.06-.04-.08v-1.46s-.01-.06-.04-.08c0-.03-.01-.06-.04-.08,0-.03-.01-.06-.04-.08-.03,0-.06-.01-.08-.04v-.08s-.04-.06-.04-.08c0-.03-.01-.06-.04-.08,0-.03-.01-.06-.04-.08-.03-.03-.04-.06-.04-.08-.03-.03-.04-.06-.04-.08-.03-.03-.04-.06-.04-.08l-.04-.04v-.13c-.06-.03-.1-.06-.13-.08-.06-.03-.1-.06-.12-.08s-.07-.04-.12-.04c-.03.03-.04.06-.04.08-.03,0-.04.01-.04.04h-.04s-.01.06-.04.08v1.67s-.04.06-.04.08l-.04.04s-.04.06-.04.08c-.01.01-.03.03-.04.04v.54s-.04.06-.04.08c-.03.03-.04.06-.04.08l-.04.04s-.06.05-.08.08v.29s-.01.06-.04.08c0,.03-.01.06-.04.08l-.04.04v.08s-.04.06-.04.08v.08s-.06.06-.08.08c-.06.03-.1.06-.12.08,0,.03-.01.06-.04.08-.06,0-.1.01-.12.04h-.42c-.06-.03-.1-.04-.12-.04h-.08c-.06,0-.13-.01-.21-.04-.03-.03-.04-.06-.04-.08-.03-.03-.06-.06-.08-.08-.03-.03-.06-.04-.08-.04-.03-.03-.04-.06-.04-.08-.03-.03-.06-.06-.08-.08v-.71s.06-.01.08-.04c0-.03.01-.06.04-.08v-.23s-.06-.01-.09-.02h-.17c-.05-.03-.11-.04-.17-.04h-.17c-.06.03-.11.06-.17.08-.03.03-.06.06-.08.08s-.06.04-.08.04c-.05.03-.11.06-.17.08-.03.03-.06.06-.08.08-.06.03-.1.06-.13.08-.08.03-.15.05-.21.08-.03.03-.05.04-.08.04,0,.03-.01.04-.04.04h-.13c-.08.03-.17.04-.25.04l-.04.04h-.12c-.11.03-.22.06-.34.08-.03,0-.06.01-.08.04h-.21c-.06,0-.11-.01-.17-.04-.03,0-.06-.01-.08-.04-.2,0-.39-.01-.58-.04h-.12l-.04-.04c-1.47,0-2.95-.01-4.43-.04-.06,0-.11-.01-.17-.04-.03-.03-.06-.06-.08-.08-.03-.03-.06-.06-.08-.08v-.13s-.01-.06-.04-.08c-.03-.03-.05-.06-.08-.08,0-.03-.01-.06-.04-.08-.03-.03-.04-.06-.04-.08-.03-.03-.04-.06-.04-.08-.03-.03-.06-.06-.08-.08l-.04-.04v-.04h-.08l-.04.04h-.12c-.11.03-.22.06-.33.08v.04s-.04.06-.04.08c-.03.03-.06.06-.08.08-.03.03-.06.06-.08.08v.17s-.01.06-.04.08c0,.03-.01.06-.04.08,0,.03-.01.04-.04.04v.08s-.06.06-.08.08v.25s-.02.06-.04.08c0,.03-.01.06-.04.08,0,.03-.01.04-.04.04v.08s-.05.06-.08.08v.08s-.01.06-.04.08v.08s-.06.06-.08.08c-.03.03-.04.06-.04.08,0,.03-.01.04-.04.04v.25s-.01.06-.04.08v.08s-.06.06-.08.08c-.03.03-.04.06-.04.08,0,.03-.01.04-.04.04v.17s-.01.06-.04.08v.08s-.06.06-.08.08v.08s-.04.06-.04.08-.01.04-.04.04v.25s-.01.06-.04.08v.08s-.06.06-.08.08c-.03.03-.04.06-.04.08,0,.03-.01.04-.04.04v.25s-.01.06-.04.08v.08s-.06.06-.08.08-.04.06-.04.08-.01.04-.04.04v.17s-.01.06-.04.08v.08s-.05.06-.08.08v.08s-.04.06-.04.08-.01.04-.04.04v.17s-.01.06-.04.08v.08s-.06.06-.08.08v.21s-.06.06-.08.08v.08s-.01.05-.04.08v.08s-.06.05-.08.08v.21s-.06.06-.08.08v.17s-.01.05-.04.08v.08s-.06.05-.08.08v.21s-.06.06-.08.08v.08s-.01.06-.04.08v.08s-.06.06-.08.08c-.03.03-.04.06-.04.08,0,.03-.01.04-.04.04v.17s-.01.06-.04.08v.08s-.06.06-.08.08c-.03.03-.04.06-.04.08l-.04.04s.06.04.08.04c.03.03.06.04.08.04,0,.03.01.05.04.08v.08s.04.06.04.08c.03.03.07.06.12.08v.08s.04.06.04.08v.08s.06.04.08.04v.71s-.06.06-.08.08c0,.03-.01.06-.04.08v.08c-.06.03-.1.06-.12.08-.03.03-.04.06-.04.08s-.01.06-.04.08c0,.03-.01.04-.04.04-.03.03-.06.06-.08.08h-.17s-.06.06-.08.08c-.03,0-.06.01-.08.04h-.13c-.22.03-.44.04-.67.04l-.04.04h-1.38l-.04-.04c-.19,0-.39-.01-.58-.04-.06,0-.12-.01-.21-.04l-.04-.04c-.08,0-.17-.01-.25-.04h-.12l-.04-.04c-.06,0-.11-.01-.17-.04-.06,0-.12-.01-.21-.04l-.08-.08c-.06,0-.11-.01-.17-.04-.08-.03-.15-.06-.21-.08s-.1-.06-.12-.08c-.06-.03-.11-.06-.17-.08-.03,0-.06-.01-.08-.04-.03-.03-.06-.06-.08-.08-.03-.03-.04-.06-.04-.08-.06-.03-.1-.06-.12-.08-.06-.03-.11-.06-.17-.08,0-.03-.01-.06-.04-.08s-.06-.06-.08-.08-.06-.06-.08-.08c-.03,0-.06-.01-.08-.04,0-.03-.01-.06-.04-.08,0-.03-.01-.06-.04-.08s-.06-.06-.08-.08c0-.03-.01-.06-.04-.08,0-.03-.01-.06-.04-.08v-.08l-.04-.04s-.03-.03-.04-.04c-.03,0-.06-.01-.08-.04,0-.03-.01-.06-.04-.08v-.33s-.06-.06-.08-.08v-.75s.04-.06.04-.08c0-.03.01-.06.04-.08v-.54s.04-.05.04-.08c.03-.03.04-.06.04-.08.03-.03.04-.06.04-.08.03-.03.04-.06.04-.08.03-.03.04-.06.04-.08v-.12s.04-.06.04-.08c.03-.03.04-.06.04-.08.03-.03.04-.06.04-.08.03-.03.04-.06.04-.08.03-.03.04-.06.04-.08v-.16s.06-.02.08-.04c0-.03.01-.06.04-.08,0-.03.02-.06.04-.08,0-.03.01-.06.04-.08v-.08s.04-.06.04-.08c.03-.03.06-.06.08-.08v-.08s.04-.01.04-.04c0-.03.01-.06.04-.08,0-.03.01-.06.04-.08.03-.03.04-.06.04-.08.03-.03.04-.06.04-.08.03-.03.04-.06.04-.08.03-.03.04-.06.04-.08.03-.03.06-.06.08-.08l.04-.04s.01-.06.04-.08c0-.03.01-.06.04-.08v-.08s.04-.06.04-.08c.03-.03.06-.06.08-.08v-.08s.06-.06.08-.08v-.12s.04-.06.04-.08c.03-.03.04-.06.04-.08.03-.03.04-.06.04-.08.03-.03.04-.06.04-.08.03-.03.04-.06.04-.08v-.08s.06-.01.08-.04c0-.03.01-.06.04-.08v-.25s.04-.06.04-.08c.03-.03.04-.06.04-.08v-.12s.04-.06.04-.08c.03-.03.04-.06.04-.08.03-.03.04-.06.04-.08v-.08s.04-.06.04-.08c.03-.03.04-.06.04-.08v-.13s.04-.06.04-.08c.03-.03.04-.06.04-.08.03-.03.04-.06.04-.08v-.25s.06-.06.08-.08v-.04s.04-.06.04-.08c.03-.03.04-.06.04-.08.03-.03.04-.06.04-.08v-.08s.04-.06.04-.08c.03-.03.04-.06.04-.08v-.21s.04-.06.04-.08c.03-.03.04-.06.04-.08.03-.03.04-.06.04-.08v-.29s.04-.06.04-.08.01-.06.04-.08v-.34l.08-.08.04-.04v-.08s.04-.06.04-.08.02-.06.04-.08v-.33l-.04-.04v-.29s-.04-.01-.04-.04v-.04l-.04-.04v-.04h-.04v-.12h-.04v-.08s-.04-.01-.04-.04l-.04-.04v-.04s-.04-.01-.04-.04l-.04-.04s-.01-.04-.04-.04v-.04h-.04v-.04l-.04-.04v-.04h-.04l-.04-.04s-.01-.04-.04-.04l-.04-.04h-.04s-.01-.04-.04-.04c-.03-.03-.06-.04-.08-.04h-.04l-.04-.04s-.04-.01-.04-.04h-.08s-.01-.04-.04-.04c-.03-.03-.06-.04-.08-.04h-.04s-.06-.04-.08-.04l-.04-.04h-.04l-.04-.04s-.06-.04-.08-.04h-.04l-.04-.04h-.17l-.04-.04h-.12l-.04-.04h-.21l-.04-.04h-.17l-.04-.04h-.17s-.06-.04-.08-.04h-.04l-.04-.04h-.09l-.04-.04h-1.17s-.06.01-.08.04h-.38s-.06.02-.08.04h-.04s-.04.01-.04.04h-.08s-.01.04-.04.04h-.08s-.06.02-.08.04h-.17s-.06.01-.08.04h-.13s-.06.01-.08.04h-.13s-.06.01-.08.04h-.04s-.04.01-.04.04h-.04s-.06.04-.08.04-.06.01-.08.04h-.08s-.06.02-.08.04h-.08s-.06.01-.08.04h-.04s-.06.01-.08.04h-.04s-.06.01-.08.04h-.09s-.06.04-.08.04-.06.01-.08.04l-.04.04h-.08s-.06.01-.08.04h-.04s-.06.01-.08.04h-.08s-.01.04-.04.04-.06.01-.08.04h-.08s-.01.04-.04.04c-.03,0-.06.01-.08.04h-.04s-.06.02-.08.04h-.04s-.06.01-.08.04h-.04s-.06.01-.08.04h-.08s-.01.04-.04.04-.06.01-.08.04h-.08s-.01.04-.04.04c-.03,0-.06.01-.08.04h-.04s-.06.01-.08.04h-.04s-.04.01-.04.04h-.13s-.06.01-.08.04h-.05s-.06.01-.08.04h-.04s-.06.01-.08.04h-.04s-.06.01-.08.04h-.08s-.01.04-.04.04-.06.02-.08.04l-.04.04h-.08s-.06.01-.08.04h-.04s-.06.01-.08.04h-.08s-.06.04-.08.04-.06.01-.08.04h-.04s-.04.01-.04.04h-.04s-.06.04-.08.04-.04.01-.04.04h-.08s-.06.04-.08.04c-.03,0-.06.01-.08.04h-.04s-.06.01-.08.04h-.04s-.06.01-.08.04h-.04s-.06.01-.08.04h-.04s-.06.01-.08.04h-.04s-.04.01-.04.04h-.04l-.04.04s-.04.01-.04.04h-.04s-.06.01-.08.04h-.04s-.06.01-.08.04h-.04s-.06.01-.08.04h-.04s-.06.01-.08.04h-.08s-.06.01-.08.04h-.04s-.06.01-.08.04h-.04s-.06.01-.08.04h-.04s-.06.01-.08.04h-.08s-.06.01-.08.04h-.08s-.06.01-.08.04h-.04s-.04.02-.04.04h-.04s-.05.04-.08.04h-.08s-.06.02-.09.04h-.08s-.06.01-.08.04h-.04c-.06,0-.1.01-.13.04h-.04s-.06.01-.08.04h-.08s-.06.01-.08.04h-.04s-.04.01-.04.04h-.12s-.06.01-.08.04h-.08s-.06.01-.08.04h-.08s-.06.01-.08.04h-.04s-.06.01-.08.04h-.13s-.06.01-.08.04h-.12s-.06.01-.08.04h-.13s-.05.01-.08.04h-.12s-.06.01-.08.04h-.04s-.04.01-.04.04h-.04s-.06.04-.08.04h-.13s-.06.01-.08.04h-.13s-.06.01-.08.04h-.12s-.06.01-.08.04h-.04s-.04.01-.04.04h-.04l-.04.04s-.06.01-.08.04h-.04s-.04.01-.04.04h-.13s-.06.01-.08.04h-.04s-.06.01-.08.04l-.04.04h-.04l-.04.04s-.06.01-.08.04h-.04s-.06.01-.08.04h-.08s-.05.01-.08.04h-.08s-.01.04-.04.04-.06.01-.08.04h-.04s-.06.01-.08.04h-.13s-.06.01-.08.04h-.08s-.06.01-.08.04h-.04s-.06.01-.08.04h-.04s-.06.01-.08.04h-.12s-.06.01-.08.04h-.08s-.01.04-.04.04-.06.01-.08.04h-.04s-.06.01-.09.04l-.06.06s-.05.01-.06.02h-.04s-.06.01-.08.04h-.08s-.01.04-.04.04-.06.01-.08.04h-.08s-.06.01-.08.04h-.04s-.06.01-.09.04h-.08s-.06.01-.08.04h-.04s-.06.01-.08.04h-.12s-.06.01-.09.04h-.04s-.06.01-.08.04l-.04.04h-.12s-.06.01-.08.04h-.12s-.06.01-.08.04h-.04c-.06,0-.1.01-.13.04h-.04s-.06.01-.09.04h-.04s-.06.01-.08.04l-.04.04h-.12s-.06.01-.08.04h-.12s-.06.01-.08.04h-.04s-.06.01-.08.04h-.17s-.06.01-.09.04h-.04s-.06.01-.08.04h-.04s-.06.01-.08.04h-.09s-.01.04-.04.04-.06.01-.09.04h-.21s-.06.01-.09.04h-.08s-.06.02-.08.04h-.12s-.06.01-.08.04h-.17s-.06.01-.08.04h-.12s-.06.01-.08.04h-.12s-.06.01-.08.04h-.12s-.06.01-.09.04h-.04s-.06.01-.08.04l-.04.04h-.04s-.06.04-.08.04-.04.01-.04.04h-.08s-.01.04-.04.04-.06.01-.08.04h-.04s-.06.01-.08.04h-.04s-.04.01-.04.04h-.04s-.06.04-.08.04c-.06,0-.1.01-.13.04h-.04s-.06.01-.08.04h-.04s-.06.01-.08.04l-.04.04s-.06.04-.08.04-.06.01-.08.04l-.04.04h-.17s-.06.02-.08.04h-.04s-.04.01-.04.04h-.08s-.02.04-.04.04-.06.01-.08.04l-.04.04h-.04s-.06.04-.08.04h-.08s-.06.01-.08.04h-.13s-.06.01-.08.04h-.08s-.01.04-.04.04-.05.01-.08.04h-.09s-.06.02-.08.04h-.08s-.06.01-.08.04h-.08s-.06.01-.08.04h-.13s-.06.01-.08.04h-.12s-.06.01-.08.04h-.04s-.04.01-.04.04h-.09s-.01.04-.04.04-.06.01-.08.04h-.17s-.06.01-.08.04h-.04s-.05.01-.08.04h-.08s-.05.04-.08.04-.06.01-.08.04h-.04s-.04.01-.04.04h-.04s-.06.04-.08.04-.06.01-.08.04h-.04s-.06.01-.08.04h-.04s-.04.01-.04.04h-.12s-.06.01-.08.04h-.08s-.01.04-.04.04-.06.01-.08.04h-.08s-.05.01-.08.04h-.04s-.06.01-.08.04h-.04s-.06.01-.08.04h-.09s-.01.04-.04.04-.06.01-.08.04h-.04s-.05.01-.08.04h-.12s-.06.01-.08.04h-.17s-.06.01-.08.04h-.17s-.06.01-.08.04h-.08s-.06.01-.08.04h-.08s-.06.01-.09.04h-.17s-.06.01-.08.04h-.17s-.06.01-.08.04h-.04s-.04.01-.04.04h-.04l-.04.04s-.06.01-.08.04h-.04s-.06.01-.08.04h-.13s-.06.01-.08.04h-.04s-.05.01-.08.04c-.03,0-.06.01-.08.04h-.08s-.01.04-.04.04-.05.01-.08.04h-.04s-.04.01-.04.04h-.08s-.01.04-.04.04c-.03,0-.06.01-.08.04h-.09s-.01.04-.04.04c-.03,0-.06.01-.08.04h-.08s-.06.01-.08.04h-.04s-.06.01-.08.04h-.04s-.06.01-.08.04c-.03-.01-.06-.03-.08-.04-.03-.03-.06-.06-.08-.08-.03-.03-.06-.06-.08-.08v-.13c-.06,0-.13-.01-.21-.04,0-.03-.02-.06-.04-.08-.01-.01-.03-.03-.04-.04v-4.11l.04-.02s.01-.04.04-.04.07-.01.13-.04h.17v-4.27s-.01-.07-.04-.12c0-.03-.01-.07-.04-.12v-.71h-.08c-.06,0-.11-.01-.17-.04-.03-.03-.05-.06-.08-.08-.03-.03-.06-.06-.08-.09v-2.97s.04-.06.04-.08c.03-.03.04-.06.04-.09.03-.02.06-.06.08-.08.03,0,.04-.02.04-.04v-.08s.04-.06.04-.08c.03-.03.04-.05.04-.08.06-.03.1-.06.13-.08.03-.03.07-.06.12-.08.03,0,.05-.01.08-.04.03-.03.06-.04.08-.04.03-.03.06-.06.08-.08.03-.03.07-.06.12-.08.03-.03.06-.04.08-.04,0-.03.01-.04.04-.04h.13v-.04c.06.03.1.04.13.04.03,0,.04.02.04.04h.13c.06.03.11.06.17.08.03,0,.04.01.04.04h1.59l.04.04.04-.04h6.89s.07.04.12.04c.03,0,.04.01.04.04,1.11-.03,2.21-.04,3.3-.04v-.04s.06-.02.08-.04v-.04c.06,0,.11-.02.17-.04.06,0,.11-.02.17-.04.03-.03.07-.04.12-.04.06-.03.1-.06.12-.08.03-.03.06-.06.08-.08.03-.03.05-.06.08-.08.06-.03.11-.06.17-.08.03-.03.04-.06.04-.09.03,0,.06-.01.08-.04v-.04c.06,0,.11-.01.17-.04h.17v-.04h.12c.06.03.1.04.12.04.03.03.04.06.04.08.03.03.04.06.04.08s-.02.05-.04.08c0,.03-.02.06-.04.08-.06.03-.12.06-.21.08v.04s.07.02.12.04c.02,0,.04,0,.06.02l.02-.02v-.04l.04-.04s.06-.04.08-.04c.03,0,.07-.02.13-.04h.06s.1-.02.15-.04h.25v-.04h.46s.07-.02.13-.04h.42s.06.03.08.04h.42s.07-.02.12-.04h2.84s.06.03.08.04h.29s.07-.02.12-.04h3.05s.06.03.08.04h1.04s.07-.02.12-.04h1.96s.06-.04.08-.04.07-.02.12-.05c.39,0,.78-.01,1.17-.04.03,0,.06-.02.08-.04h.12v-.04h.63s.04-.06.04-.08c.03-.03.07-.06.13-.08.03-.03.07-.06.12-.08.03-.03.07-.06.13-.08.03-.03.06-.06.08-.08l.08-.08s.06-.01.08-.04c.06-.03.11-.06.17-.08.03-.03.04-.06.04-.08.03-.03.07-.06.13-.08.03-.03.07-.06.12-.08.03-.03.06-.06.08-.08v-.09s.06-.06.08-.08c.03,0,.04-.01.04-.04.06-.03.11-.06.17-.08.03-.03.07-.06.12-.08.03-.03.06-.04.08-.04,0-.03.01-.04.04-.04s.07-.02.13-.05c.22,0,.46-.01.71-.04.03-.03.07-.06.12-.08.03-.03.06-.06.08-.08.03-.03.06-.06.08-.08.03,0,.06-.01.08-.04.03-.03.04-.06.04-.08.03-.03.06-.05.08-.08.03-.03.06-.06.08-.08.03-.03.06-.05.08-.08.03-.03.06-.06.08-.08.03,0,.06-.01.08-.04.03-.03.06-.04.08-.04.03-.03.04-.06.04-.08.03-.03.04-.06.04-.08.03-.03.07-.06.12-.08.03-.03.07-.06.12-.08.03-.03.06-.05.08-.08.03-.03.06-.05.08-.08l.04-.04s.01-.06.04-.08c.03-.03.04-.05.04-.08.03-.03.06-.04.08-.04,0-.03.01-.04.04-.04.03-.03.07-.04.13-.04.03-.03.04-.06.04-.08.03-.03.06-.05.08-.08.03-.03.06-.05.08-.08.03-.03.05-.06.08-.08.03-.03.06-.06.08-.08.03-.03.06-.05.08-.08.03,0,.04-.01.04-.04.04-.04.06-.06.09-.09.03-.03.06-.06.08-.08.03-.03.06-.06.08-.08.03-.03.06-.06.08-.08.03-.03.06-.06.08-.08.03-.03.06-.06.08-.08.03-.03.06-.05.08-.08.03,0,.04-.01.04-.04.06-.03.11-.06.17-.08.06-.03.11-.04.17-.04v-.04h.04l.04-.04s.06-.04.08-.04h.13v-.04h16.29v-.04s.04-.06.04-.08c.03-.03.04-.05.04-.08.03-.03.06-.05.08-.08l.04-.04s.01-.06.04-.08c.03-.03.04-.06.04-.08.03-.03.06-.06.08-.08l.04-.04s.06-.04.08-.04h.08v-.04l.04-.04s.06-.04.08-.04c.03,0,.07-.01.12-.04h.42v-.12s.06-.06.08-.08c.03-.03.07-.06.12-.08.03,0,.06-.01.08-.04s.06-.06.08-.08l.04-.04v-.04h.08s.01-.06.04-.08c.03,0,.06-.01.08-.04.03-.03.06-.06.08-.08h.08s.01-.04.04-.04c.03-.03.06-.06.08-.08.03-.03.06-.06.08-.08l.04-.04v-.08s.05-.06.08-.08c.03-.03.06-.06.08-.08.03-.03.06-.06.08-.09,0-.03.01-.06.04-.08v-.21c.06-.03.1-.04.13-.04v-.04l.04.04v-.08h.08s.05-.01.08-.04c.03.03.06.06.08.08h.29s.04-.05.04-.08h.42s.07.02.12.04c.03.03.06.06.08.08.03.03.06.06.08.08.03.03.06.06.08.08,0,.03.01.06.04.08.03.03.06.04.08.04.03.03.06.06.08.08.03.03.06.06.08.08.03.03.06.06.08.08.03.03.06.06.08.08s.06.06.08.09c.03.03.06.05.08.08l.04.04s.07.04.12.04c.03.03.07.06.12.08.03.03.04.06.04.08.01.02.03.03.04.04s.03.03.04.04c.03.03.07.06.12.08v.08c.06.03.1.04.12.04.03.03.06.06.08.08,0,.03.01.05.04.08.03.03.04.06.04.08l.04.04h1.46v-.21s.06-.01.08-.04v-.04c.06,0,.11-.01.17-.04.06,0,.11-.01.17-.04.06-.03.11-.04.17-.04.03-.03.04-.06.04-.08.06,0,.11-.01.17-.04,0-.03.01-.06.04-.08.03,0,.06-.01.08-.04v-.04c.06,0,.11-.02.17-.04.06-.03.11-.06.17-.08.03-.03.06-.06.08-.08.03,0,.06-.02.08-.04h.04c.06-.03.11-.06.17-.08l.04-.04v-.04c.06,0,.11-.01.17-.04.03-.03.04-.06.04-.08.03,0,.06-.01.08-.04v-.04h.13s.07.01.12.04c.03.03.04.06.04.09,0,.03.01.06.04.08v.37s.01.06.04.08c.03.03.04.06.04.08.03.03.04.06.04.08s.01.06.04.08v.08l.04.04s.06.06.08.08c0,.03.01.05.04.08.03.03.04.06.04.08l.04.04h1.84s.01-.04.04-.04h.12v-.04h.21c.06.03.11.06.17.08.03.03.06.06.08.08,0,.03.01.04.04.04v.12s.06.01.08.04c.03.03.06.04.08.04,0,.03.01.06.04.08v.08s.03.03.04.04c.03.03.06.06.08.08.03.03.06.06.08.08,0,.03.01.06.04.08,0,.03.01.05.04.08h.12v-.04h15.66s.06-.06.08-.08c.03,0,.06-.01.08-.04.03-.03.06-.05.08-.08.03-.03.04-.05.04-.08.03-.03.04-.06.04-.08.03-.03.04-.06.04-.08,0-.03.01-.06.04-.08v-.08s.06-.06.08-.08c.03,0,.04-.01.04-.04.03-.03.04-.06.04-.08s.01-.05.04-.08v-.33s-.04-.06-.04-.08c-.03,0-.04-.01-.04-.04v-1.51s.06-.06.08-.08c.03-.03.07-.04.12-.04.08,0,.17-.02.25-.04.06,0,.12-.01.17-.04ZM106.58,2.55l.02-.02s.04-.03.06-.04h-.15s.03.03.04.04l.02.02ZM104.01,10.97c-.06.03-.11.05-.17.08h.25l.02-.04s-.04-.03-.06-.04l-.02-.02-.02.02ZM79.35,3.06s.07.03.11.04v-.02l-.08-.04-.02.02ZM65.63,16.02s-.04.06-.04.08c-.03.03-.06.06-.08.08.03.03.04.06.04.08v.79s-.04.06-.04.08c-.03.03-.04.06-.04.08-.03.03-.04.06-.04.08l-.04.04s-.01.06-.04.08v1.05s.01.05.04.08v.17s.01.06.04.08c0,.03.01.06.04.08.03.03.07.06.12.08v.08s.04.06.04.08v.04h4.18s.07.04.12.04c.03,0,.04.01.04.04h1.29s.06-.04.08-.04.07-.01.12-.04c.03,0,.07-.01.13-.04.03,0,.06-.01.08-.04.03,0,.07-.01.12-.04.06,0,.11-.01.17-.04.03-.03.07-.06.13-.08.03-.03.06-.06.08-.08.06-.03.11-.06.17-.08h.08v-3.09h-4.53l-.02.04s-.04.06-.04.08v.46s.01.06.04.08c0,.03.01.06.04.08v.25l.08.08v.08l.04.04s.01.06.04.08c.03.03.06.06.08.08s.04.06.04.08c.03.03.04.06.04.08.03.03.04.06.04.08.03.03.07.06.12.08v.08l.04.04s.01.06.04.08c.03.03.06.06.08.08.03.03.06.06.08.08.03.03.04.06.04.08.03.03.06.04.08.04.03.03.06.04.08.04s.07.01.12.04c.03.03.04.06.04.08.03.03.04.06.04.08v.17l-.04.04s-.04.06-.04.08h-.04v.08l-.04.04s-.04.06-.04.08h-.04s-.05.04-.08.04h-.29c-.06-.03-.1-.04-.12-.04-.03-.03-.04-.06-.04-.08h-.04c-.06-.03-.11-.04-.17-.04-.06-.03-.11-.06-.17-.08-.03-.03-.04-.06-.04-.08h-.04c-.06-.03-.1-.04-.12-.04-.06-.03-.1-.05-.13-.08-.03-.03-.06-.06-.08-.08-.06-.03-.1-.04-.13-.04-.03-.03-.06-.06-.08-.08-.03-.03-.06-.06-.08-.08-.03-.03-.06-.06-.08-.08l-.08-.08s-.06-.06-.08-.08-.06-.06-.08-.08c-.03-.03-.04-.06-.04-.08-.03,0-.04-.01-.04-.04-.03-.03-.04-.06-.04-.08-.03-.03-.06-.06-.08-.08v-.17s-.04-.06-.04-.08v-.08s-.04-.06-.04-.08v-.12s-.01-.06-.04-.08c0-.03-.01-.06-.04-.08-.03-.03-.04-.06-.04-.08v-.29s-.04-.06-.04-.08-.01-.06-.04-.08v-.37h-.17s-.06.04-.08.04c-.06.03-.11.06-.17.08-.06.03-.11.04-.17.04-.03.03-.06.06-.08.08-.02.03-.05.06-.08.08ZM68.29,18.05l-.02.02.04.04v-.04l-.02-.02ZM46.8,14.9h.02c.08,0,.15-.02.23-.04.06,0,.11-.02.17-.04.03,0,.06-.01.08-.04.06,0,.11-.02.17-.04.14-.03.26-.06.38-.08.11-.03.21-.07.29-.13.06-.03.11-.06.17-.08.06,0,.11-.02.17-.04.11-.03.21-.06.29-.08.02-.01.05-.03.06-.04.03-.03.05-.05.06-.08.06-.03.11-.07.17-.13.06-.03.11-.06.17-.08h-22.51s-.02.06-.04.08v.02s-.03,0-.04.02h-.04s-.06.01-.08.04l-.08.08v.04s-.04.02-.04.04v.04s-.04.01-.04.04v.67s.01.04.04.04v3.05s-.04.02-.04.04v.59s-.04.01-.04.04v1.38s.02.04.04.04v.08h.04v.12s.02.04.04.04v.08h.04v.04l.04.04v.04h.04s.06.04.08.04.04.01.04.04h.17v.04c0,.06-.01.1-.04.13,0,.03,0,.06-.02.08h.06s.04.06.04.08l.04.04v.04s-.01.06-.04.08c0,.03-.01.06-.04.08-.03,0-.07.01-.12.04h-.13s-.03.03-.04.04v.06s.08,0,.12-.02c.03,0,.06-.01.09-.04.06,0,.11-.01.17-.04.08,0,.17-.01.25-.04.06,0,.11-.01.17-.04.03,0,.06-.01.08-.04.06,0,.11-.02.17-.04.08-.03.17-.06.25-.08.08-.03.17-.07.25-.12.06-.03.11-.06.17-.08.06,0,.11-.01.17-.04.08,0,.17-.01.25-.04.05,0,.11-.01.17-.04.03,0,.06-.01.08-.04.06,0,.11-.01.17-.04.08-.03.17-.06.25-.08.11-.03.22-.07.33-.12.08-.03.17-.06.25-.08.05,0,.11-.01.16-.04.08-.03.17-.06.25-.08.08-.03.17-.06.25-.08.08-.03.16-.06.25-.08.08-.03.17-.06.25-.08.08-.03.16-.06.25-.08.08-.03.17-.06.25-.08.08-.03.17-.05.25-.08.08-.03.17-.06.25-.08.08-.03.17-.06.25-.08.08-.03.17-.06.25-.08.08,0,.17-.01.25-.04.11,0,.22-.01.33-.04.03,0,.06-.01.08-.04.06,0,.11-.01.17-.04.08,0,.17-.01.25-.04.08-.03.16-.06.25-.08.08-.03.17-.07.25-.12.09-.03.17-.06.25-.08.08-.03.17-.06.25-.08.08-.03.17-.07.25-.12.06-.03.11-.06.17-.08.08-.03.15-.06.21-.08.08-.03.15-.07.21-.13.06-.03.11-.06.16-.08.03,0,.06-.01.08-.04.06,0,.11-.01.17-.04.08,0,.17-.01.25-.04.2-.03.39-.06.59-.08.08-.03.17-.07.25-.13.08-.03.17-.06.25-.08.08-.03.17-.06.25-.08.08-.03.17-.06.25-.08.08,0,.16-.01.25-.04.06,0,.11-.01.17-.04.03,0,.05-.01.08-.04.06,0,.11-.01.17-.04.08-.03.17-.05.25-.08.08-.03.17-.06.25-.08.08-.03.17-.06.25-.08.08-.03.17-.06.25-.08.08,0,.17-.01.25-.04.08-.03.17-.06.25-.08.08-.03.17-.07.25-.12.08-.03.17-.06.25-.08.08,0,.17-.01.25-.04.14-.03.26-.06.38-.08.11-.03.21-.07.29-.12.08-.03.17-.06.25-.08.08-.03.17-.06.25-.08.08-.03.17-.06.25-.08.08-.03.17-.06.25-.08.08-.03.17-.06.25-.09.08-.03.17-.06.25-.08.06-.03.11-.07.17-.12.06-.03.11-.07.17-.12.03-.02.06-.03.08-.04.03-.01.06-.03.08-.04.03,0,.06-.01.08-.04.06,0,.11-.02.17-.04h.06c.06,0,.12-.02.19-.04.11,0,.23-.01.33-.04.03,0,.06-.01.08-.04.06,0,.11-.01.17-.04.08-.03.17-.06.25-.08.11-.03.22-.07.33-.13.11-.03.22-.07.33-.12.06-.03.11-.06.17-.08l.06-.02.02-.02h.06l.85-.29c.1-.03.18-.06.26-.09ZM55.3,14.87c-.11.02-.23.04-.35.06-.06.06-.12.1-.21.13-.08.03-.17.06-.25.08h.92l.04.04h.12c-.06-.06-.11-.11-.17-.17-.02-.03-.04-.07-.06-.1-.01-.01-.03-.03-.04-.04Z"/>
    </g>
  </g>
  <path id="Layer0_0_1_STROKES" class="st1" d="M19.36,20.15c.41-.15.38-.42-.08-.82-.92-.78-1.28-1.51-1.1-2.19.09-.33.41-.77.96-1.3.32-.31.86-.8,1.62-1.49.64-.63,1.1-1.21,1.35-1.73.34-.67.4-1.34.19-1.98-.38-1.18-1.65-1.86-3.8-2.05-.58-.05-1.53-.09-2.85-.09-1.25-.01-2.16-.05-2.73-.11-1.66-.19-3.32-.61-4.98-1.28-1.67-.67-2.95-1.38-3.85-2.15-.9-.76-1.85-1.84-2.85-3.22-.13,3.93,1.51,6.78,4.9,8.56-1.59.16-3.12-.31-4.61-1.41,1.14,3.08,3.47,4.8,6.98,5.16-.96.7-2.28.8-3.93.31,1.53,1.95,4.24,2.87,8.15,2.75-.76.67-1.7,1.05-2.82,1.15,1.64,1.12,3.85,1.39,6.64.83.98.71,1.92,1.06,2.82,1.05Z"/>
</svg>