<?xml version="1.0" encoding="UTF-8"?>
<svg id="_Слой_1" data-name="Слой_1" xmlns="http://www.w3.org/2000/svg" version="1.1" viewBox="0 0 113.01 32">
  <!-- Generator: Adobe Illustrator 30.2.1, SVG Export Plug-In . SVG Version: 2.1.1 Build 1)  -->
  <defs>
    <style>
      .st0 {
        fill-rule: evenodd;
      }

      .st0, .st1 {
        fill: #fff;
      }

      .st1 {
        stroke: #000;
        stroke-linecap: round;
      }
    </style>
  </defs>
  <g id="Selected_Items">
    <g id="Selected_Items1" data-name="Selected_Items">
      <path class="st0" d="M111.6,8.02c.25,0,.37.11.37.33v2.45h-5.86c-1.14.02-2.41.06-3.82.11-1.38,0-2.77.01-4.15.04-1.29.02-2.15.04-2.6.04,0,.32-.1.58-.3.78-.52.52-1,.78-1.45.78-.2,0-.46-.14-.78-.41-.32-.32-.57-.54-.74-.67-.1,0-.23-.02-.41-.07-.12-.02-.28-.09-.48-.19l-.71-.22c-.1-.05-.32-.07-.67-.07-.37-.05-.83-.07-1.37-.07s-1.14.02-1.85.07c-.64,0-1.3.02-1.97.07,0,.1-.02.22-.07.37-.08.17-.11.31-.11.41l-.26.11c-.1.02-.22.04-.37.04,0,.07-.01.2-.04.37-.02.1-.04.25-.04.44-.05.2-.07.44-.07.74h-.3c-1.01,0-2.13.01-3.34.04-1.19,0-2.33.01-3.41.04-1.06.05-1.97.07-2.71.07-.74.02-1.19.04-1.33.04-.1.02-.27.05-.52.07-.22.02-.48.05-.78.07-.32.07-.64.12-.96.15-.3.07-.53.12-.71.15h-.11l-.19-.45c-.05-.27-.07-.56-.07-.85-.05-.25-.07-.47-.07-.67v-.52c-.15.07-.42.14-.81.19-.42.05-.87.12-1.33.22-.44.08-.88.16-1.3.26-.42.05-.68.07-.78.07,0,.15-.01.3-.04.44-.08.15-.11.26-.11.33,0,1.26.2,2.68.59,4.26.4,1.51.83,2.94,1.3,4.3.49,1.31.93,2.41,1.3,3.3.4.87.59,1.31.59,1.34l.15.26-.3.11c-.12.07-.4.2-.82.37-.37.2-.88.44-1.52.74-.67.27-1.57.72-2.71,1.33h-.26c-.42-.55-.87-1.48-1.33-2.82-.47-1.33-.91-2.73-1.33-4.19-.42-1.43-.77-2.79-1.04-4.08-.3-1.31-.52-2.16-.67-2.56-.22.12-.54.27-.96.44-.1,0-.16.04-.19.11,0,.03-.04.04-.11.04-.12.22-.33.33-.63.33-1.21.3-2.18.31-2.89.04-.69-.27-1.15-.49-1.37-.67-.05.07-.11.12-.19.15l-.67.33c-.77,1.73-1.22,3.15-1.37,4.26-.12,1.11-.19,1.93-.19,2.45v.59c0,.1-.02.16-.07.19-.05,0-.08.04-.08.11-.42,0-1.82-.63-4.19-1.89l-.22-.11v-.11c.3-.67.6-1.37.93-2.11.27-.77.54-1.47.82-2.11.25-.64.44-1.22.59-1.74.15-.44.23-.72.26-.81,0-.1-.04-.2-.11-.3-.05-.1-.07-.2-.07-.3-.08-.05-.16-.15-.26-.3-.1-.1-.2-.2-.3-.3-.12-.1-.21-.21-.26-.33-.15-.07-.49-.11-1.04-.11-.62,0-1.31.01-2.08.04-.79.05-1.67.09-2.63.11-.91.07-1.77.12-2.56.15l-3.11.11c-1.95,0-4.92,1.77-8.9,5.3l-.3.3c-.17.25-.42.46-.74.63-.35.42-.57.68-.67.78-.12.1-.22.15-.3.15-.2,0-.38-.15-.56-.45-.15-.4-.22-.7-.22-.93,0-.12-.01-.5-.04-1.15-.02-.62-.09-1.35-.18-2.19-.07-.82-.15-1.66-.22-2.52-.1-.84-.2-1.53-.29-2.08-.27-.54-.22-1.09.15-1.63.25-.27.57-.41.96-.41h18.47c.15,0,.26-.05.33-.15v-.14c.1-.07.16-.15.19-.22.02-.07.07-.17.15-.3.17-.12.43-.19.78-.19.37,0,.63-.05.78-.15.15-.05.3-.07.45-.07.17,0,.32-.05.44-.15.37-.1.68-.21.93-.33.3-.12.51-.3.63-.52.2-.12.31-.32.33-.59.05-.25.1-.62.15-1.11v-.33c0-.45.11-.76.33-.93.2-.1.47-.15.82-.15h.3l.11.15.82.78c0,.17.31.14.93-.11h.48c.15.07.27.27.37.59.08.32.15.66.22,1,.74-.1,1.54-.15,2.41-.15s1.33.05,1.48.15c.1.03.19.04.26.04.1.05.24.07.41.07h9.46c0-.25-.04-.46-.11-.63l-.11-.3h1.67v.3c0,.12.03.2.07.22,0,.02.03.04.07.04h22.88s-.01-.14-.04-.26v-.48c-.07-.15-.11-.35-.11-.59l.52-.97,1.56-.15h.15v2.71l-.11.04c-.02.05-.06.07-.11.07-.03.02-.05.06-.07.11.2.22.58.51,1.15.85.59.32,1.25.48,1.97.48.27.03.76.05,1.48.07.72.05,1.51.07,2.37.07s1.74-.02,2.63-.07c.96-.02,1.82-.04,2.56-.04.79,0,1.46-.01,2-.04h.93c.1,0,.33-.04.71-.11.27-.05.59-.11.96-.18.42-.03.8-.05,1.15-.08.37-.05.62.01.74.18ZM54.2,13.03c-.2,0-.4.09-.59.26-.17.22-.26.49-.26.82s.09.59.26.81c.2.2.4.3.59.3h2.71c.22,0,.44-.1.67-.3.17-.22.26-.49.26-.81s-.09-.59-.26-.82c-.22-.17-.44-.26-.67-.26h-2.71ZM25.49,12.95c.08.49.15,1,.22,1.52.08.59.12,1.16.15,1.71.08.47.14.89.19,1.26.22-.22.53-.49.93-.82.45-.35.89-.72,1.33-1.11.99-.72,1.94-1.43,2.86-2.15.94-.67,1.78-1.27,2.52-1.82h-8.38c.02.39.09.86.18,1.41Z"/>
    </g>
  </g>
  <path id="Layer0_0_1_STROKES" class="st1" d="M18.93,20.75c.41-.15.38-.42-.08-.82-.92-.78-1.28-1.51-1.1-2.19.09-.33.41-.77.96-1.3.32-.31.86-.8,1.62-1.49.64-.63,1.1-1.21,1.35-1.73.34-.67.4-1.34.19-1.98-.38-1.18-1.65-1.86-3.8-2.05-.58-.05-1.53-.09-2.85-.09-1.25-.01-2.16-.05-2.73-.11-1.66-.19-3.32-.61-4.98-1.28-1.67-.67-2.95-1.38-3.85-2.15-.9-.76-1.85-1.84-2.85-3.22-.13,3.93,1.51,6.78,4.9,8.56-1.59.16-3.12-.31-4.61-1.41,1.14,3.08,3.47,4.8,6.98,5.16-.96.7-2.28.8-3.93.31,1.53,1.95,4.24,2.87,8.15,2.75-.76.67-1.7,1.05-2.82,1.15,1.64,1.12,3.85,1.39,6.64.83.98.71,1.92,1.06,2.82,1.05Z"/>
</svg>