<?xml version="1.0" encoding="UTF-8"?>
<svg id="_Слой_1" data-name="Слой_1" xmlns="http://www.w3.org/2000/svg" version="1.1" viewBox="0 0 102.04 32">
  <!-- Generator: Adobe Illustrator 30.2.1, SVG Export Plug-In . SVG Version: 2.1.1 Build 1)  -->
  <defs>
    <style>
      .st0 {
        fill-rule: evenodd;
      }

      .st0, .st1 {
        fill: #fff;
      }

      .st1 {
        stroke: #000;
        stroke-linecap: round;
      }
    </style>
  </defs>
  <g id="Selected_Items">
    <g id="Selected_Items1" data-name="Selected_Items">
      <path class="st0" d="M38.81,10.48c1.58-.24,2.81-.4,3.67-.5.71-.08,1.96-.15,3.73-.2,1.82-.04,3.17-.04,4.05,0,.75.02,1.57.11,2.46.27.44.08.8.15,1.1.21,1.05.57,2.17.89,3.37.95.25.02.61.02,1.06,0,.3,0,.46.01.5.03.08.1.43.06,1.03-.12.51-.14,1.03-.31,1.57-.53.47-.18.8-.28.97-.3.22-.04.49,0,.83.11.31.1.58.27.8.5.08.1.17.22.26.35.06.08.14.2.24.35.14.2.49.25,1.06.15.29-.04.57-.1.83-.18.3,0,.62-.17.98-.5.16-.16.3-.32.42-.48.04,0,.29.06.77.18.61.11,1.24.23,1.89.35.22.04.44.08.68.12,1.85.31,3.71.51,5.56.59,2.09.1,4.36-.05,6.81-.44,1.24-.2,2.27-.4,3.07-.62l.24.15c.28.16.68.4,1.21.74,1.24.73,2.5,1.25,3.76,1.57.67.16,1.46.27,2.36.35.38.02.78.04,1.22.06,1.02.04,2.39-.08,4.08-.35.85-.12,1.59-.24,2.25-.39-.22.28-.47.61-.77,1.01-.63.77-1.19,1.42-1.69,1.95-.53.59-1.39,1.16-2.57,1.72-.87.41-1.71.73-2.52.94-.1.02-.19.04-.3.06-.67.18-1.75.23-3.25.15-1.22-.06-2.36-.17-3.43-.33-.71-.12-3.43-.45-8.16-1l-6.9-.83-.11.38-1.87.15c-.1-.11-.2-.23-.3-.32-.08-.08-.23-.15-.44-.21-.2-.04-.36-.04-.5,0-.1.04-.22.1-.35.18l-.15.12.03-.18c.04-.16-.11-.28-.44-.35-.1-.02-.27.03-.5.15-.24.14-.37.24-.38.3-.02.06-.03.17-.03.32-.04.18-.14.37-.3.56-.16.22-.43.42-.8.59-.35.16-.66.25-.92.27-.22,0-.4-.04-.56-.12-.04-.02-.08-.04-.12-.06l-.03-.03.12.27c.06.16.1.33.12.53.02.22.01.48-.03.8-.02.3-.14.62-.35.98-.16.27-.33.5-.5.68-.1.12-.25.22-.44.32-.2.1-.33.12-.39.06-.06-.06-.08-.12-.06-.18.02-.02.11-.14.27-.35.14-.16.26-.49.35-.98.1-.48.14-.87.12-1.19-.02-.27-.15-.63-.39-1.07-.1-.18-.18-.34-.26-.47-.08-.12-.14-.18-.18-.18h-.62c-.43-.02-.78-.04-1.03-.06-.24,0-1.29-.12-3.17-.35-1.99-.26-3.14-.41-3.43-.44-.49-.04-2.45.05-5.86.26-3.39.24-5.45.41-6.18.53-.63.12-1.8.42-3.49.92-1.26.38-2.38.72-3.35,1.04-.61.18-1.65.59-3.14,1.24-1.44.63-2.34,1.06-2.69,1.27-.35.22-.61.39-.77.5-.18.14-.3.27-.36.39-.06.14-.1.24-.12.3-.02.04-.06.11-.12.21-.06.08-.2.1-.41.06-.2-.04-.41-.11-.62-.21-.2-.08-.62-.5-1.27-1.27-.26-.32-.48-.6-.65-.86-.2-.25-.29-.4-.27-.44,0-.1.12-.24.35-.41.22-.14.73-.47,1.54-1.01.61-.42,1.53-.9,2.75-1.45.25-.1.68-.27,1.27-.53.42-.2.68-.32.8-.38.46-.22.98-.45,1.57-.68.91-.34,2.03-.7,3.38-1.1,1.3-.35,3.09-.7,5.39-1.03.79-.1,1.55-.19,2.28-.27.61-.08.99-.12,1.15-.12.41-.02,1.17-.04,2.27-.06,1.38-.02,2.24-.02,2.58,0,.89.06,1.9.14,3.02.24,1.62.14,2.47.23,2.57.27.06.02.31.14.74.35.43.2.8.35,1.1.45.3.08.56.15.8.2.12.02.21.03.27.03l-.24-.33c-.1-.16-.18-.36-.23-.62-.04-.16-.06-.31-.06-.48,0-.08-.01-.13-.03-.15h-.06c-.53,0-1.04-.04-1.54-.12-.3-.04-1.23-.1-2.81-.18-1.62-.1-2.67-.15-3.17-.15s-1.14.02-1.9.06c-.73.04-1.77.11-3.1.2-1.24.08-2.8.3-4.67.65-1.74.31-3.27.64-4.62.98-1.06.28-2.53.8-4.41,1.57-1.01.43-2.11.92-3.31,1.45-.47.22-1.11.58-1.9,1.09-.29.2-.71.48-1.24.86-.1.06-.23.05-.38-.03-.06-.02-.11-.05-.15-.09l-.06-.03c-.16-.06-.44-.33-.86-.8-.47-.53-.78-.87-.92-1.01-.22-.24-.36-.41-.44-.53-.08-.14-.08-.25,0-.32.06-.04.19-.19.38-.44.24-.3.41-.52.53-.65.16-.16.74-.54,1.75-1.15.49-.29.98-.57,1.45-.83.63-.37,2.04-.93,4.23-1.65,1.72-.59,3.08-1.02,4.08-1.3.56-.15,1.74-.37,3.55-.65ZM48.34,10.52c-.19,0-.36.07-.5.2-.14.14-.21.31-.21.5s.07.36.21.5c.14.14.31.21.5.21s.36-.07.5-.21c.14-.14.21-.31.21-.5s-.07-.37-.21-.5c-.14-.14-.31-.2-.5-.2ZM50.59,10.93c-.14.12-.21.27-.21.47s.07.36.21.5c.14.14.31.2.5.2s.36-.07.5-.2c.14-.14.21-.31.21-.5s-.07-.35-.21-.47c-.14-.14-.3-.21-.5-.21s-.37.07-.5.21ZM88.46,13.56l-14.56-.35.56.3,14.41.38-.41-.32ZM54.25,15.19c0-.18-.07-.34-.2-.47-.14-.12-.3-.18-.48-.18-.19,0-.36.06-.5.18-.14.14-.21.3-.21.47s.07.34.21.47c.14.14.31.21.5.21.18,0,.34-.07.48-.21s.2-.29.2-.47ZM55.53,14.98c-.14.12-.21.28-.21.47s.07.36.21.48c.14.14.3.2.5.2.18,0,.33-.07.47-.2.14-.12.21-.28.21-.48s-.07-.35-.21-.47c-.14-.14-.3-.21-.47-.21-.2,0-.36.07-.5.21ZM32.72,17.88c-.16.14-.24.3-.24.47,0,.2.08.36.24.5.14.14.31.21.5.21s.36-.07.5-.21c.16-.14.23-.31.23-.5,0-.18-.08-.34-.23-.47-.14-.14-.3-.21-.5-.21s-.37.07-.5.21ZM25.79,17.67c.17,0,.33-.07.47-.21.14-.14.21-.3.21-.47,0-.2-.07-.35-.21-.48-.14-.14-.3-.2-.47-.2-.2,0-.37.07-.51.2-.12.12-.18.28-.18.48,0,.18.06.33.18.47.14.14.31.21.51.21ZM27.83,15.99c0,.2.07.36.21.51.14.14.3.21.47.21.2,0,.37-.07.5-.21.14-.14.21-.31.21-.51,0-.18-.07-.33-.21-.47-.14-.14-.3-.21-.5-.21-.18,0-.34.07-.47.21-.14.14-.21.3-.21.47ZM30.5,18.83c-.14.14-.21.3-.21.47,0,.2.07.37.21.5.14.14.31.21.5.21s.36-.07.5-.21c.14-.14.2-.31.2-.5,0-.18-.07-.34-.2-.47-.14-.14-.31-.21-.5-.21s-.37.07-.5.21Z"/>
    </g>
  </g>
  <path id="Layer0_0_1_STROKES" class="st1" d="M19.14,21.31c.41-.15.38-.42-.08-.82-.92-.78-1.28-1.51-1.1-2.19.09-.33.41-.77.96-1.3.32-.31.86-.8,1.62-1.49.64-.63,1.1-1.21,1.35-1.73.34-.67.4-1.34.19-1.98-.38-1.18-1.65-1.86-3.8-2.05-.58-.05-1.53-.09-2.85-.09-1.25-.01-2.16-.05-2.73-.11-1.66-.19-3.32-.61-4.98-1.28-1.67-.67-2.95-1.38-3.85-2.15-.9-.76-1.85-1.84-2.85-3.22-.13,3.93,1.51,6.78,4.9,8.56-1.59.16-3.12-.31-4.61-1.41,1.14,3.08,3.47,4.8,6.98,5.16-.96.7-2.28.8-3.93.31,1.53,1.95,4.24,2.87,8.15,2.75-.76.67-1.7,1.05-2.82,1.15,1.64,1.12,3.85,1.39,6.64.83.98.71,1.92,1.06,2.82,1.05Z"/>
</svg>