<?xml version="1.0" encoding="UTF-8"?>
<svg id="_Слой_1" data-name="Слой_1" xmlns="http://www.w3.org/2000/svg" version="1.1" viewBox="0 0 87.42 32">
  <!-- Generator: Adobe Illustrator 30.2.1, SVG Export Plug-In . SVG Version: 2.1.1 Build 1)  -->
  <defs>
    <style>
      .st0 {
        fill-rule: evenodd;
      }

      .st0, .st1 {
        fill: #fff;
      }

      .st1 {
        stroke: #000;
        stroke-linecap: round;
      }
    </style>
  </defs>
  <g id="Selected_Items">
    <g id="Selected_Items1" data-name="Selected_Items">
      <path class="st0" d="M28.38,18.46c-.3.02-.64.16-1.03.41-.37.23-.73.53-1.1.89-.32.32-.55.65-.69,1-.09.25-.19.7-.31,1.34-.09.53-.09.98,0,1.37.05.23.18.62.41,1.17.18.48.56.93,1.13,1.34.6.43,1.22.72,1.86.86.62.11,1.25.06,1.89-.17.6-.23,1.1-.55,1.51-.96.46-.46.78-.92.96-1.37.16-.48.24-1.08.24-1.79s-.19-1.37-.58-1.99c-.34-.59-.84-1.12-1.48-1.58-.46-.32-.98-.5-1.58-.55-.23-.02-.64-.01-1.24.03ZM86.23,21.21c.5,1.26.8,2.29.89,3.09-.59-.94-1.45-1.98-2.58-3.13-2.29-2.27-4.79-3.93-7.49-4.98-2.48-.94-4.49-1.53-6.05-1.79-.62-.09-1.26-.15-1.92-.17h-1.75c-2.09.05-4.19.36-6.33.93-.69.18-1.33.38-1.92.58l-.69.28.07.24c.02.16,0,.28-.1.38-.14.09-.47.25-1,.48-.53.21-.86.31-.99.31-.14-.02-.25-.14-.34-.34-.03-.05-.1-.24-.24-.58-.18-.55-.53-1.12-1.03-1.72-.8-.96-1.7-1.5-2.68-1.61-1.38-.18-2.58.26-3.61,1.34-.32.32-.61.69-.86,1.1l-.28.55c-.3-.18-.7-.31-1.2-.38-1.01-.16-1.99-.02-2.96.41-.8.37-1.5.95-2.09,1.75-.21.25-.38.51-.52.76l-.17.31c-.37-.05-.78-.08-1.24-.1-.92-.02-1.6.1-2.06.38-.46.28-.88.72-1.27,1.34-.12.18-.24.4-.38.65-.09.21-.15.34-.17.41-.09.14-.17.19-.24.17l-.1-.07v.55c0,.43-.04.83-.1,1.17-.09.41-.36.98-.79,1.69-.41.68-.75,1.15-1,1.37-.36.37-.86.69-1.48.96-.85.41-1.68.61-2.51.58-.76-.02-1.79-.38-3.09-1.07-.39-.23-.79-.47-1.2-.72l-.48-.34-2.13-.48-.14-.34c.21-.3.44-.66.69-1.1.5-.87.82-1.6.96-2.2.16-.57.38-1.33.65-2.27l.35-1.2.72-.38-.38-.41c.07-.28.15-.55.24-.83.23-.53.41-.81.55-.86.11-.02.26-.02.45,0,.16,0,.29-.03.38-.1.23-.12.34-.24.34-.38-.05-.14-.06-.23-.03-.27.07-.16.19-.24.38-.24.02,0,.15.03.38.11.18.07.3.06.34-.04.05-.05.1-.22.17-.52.07-.25.16-.41.28-.48.18-.14.4-.14.65,0,.11.09.21.14.28.14.09.02.18,0,.28-.07.14-.11.21-.28.21-.51-.02-.19.07-.34.27-.48.21-.11.4-.14.59-.07.02,0,.09.02.21.07.05.05.08.06.1.03.09-.05.14-.15.14-.31-.02-.19,0-.32.07-.41.23-.23.45-.33.65-.31h.24c.09,0,.18-.03.28-.1.07-.09.15-.19.24-.31.02-.05.07-.11.14-.2.02-.05.18-.14.48-.28.14-.07.28-.14.41-.2l.07-.24,1.62-.89c1.28-.71,2.51-1.31,3.68-1.79,1.15-.48,2.73-.99,4.74-1.51,1.01-.27,1.92-.49,2.72-.65l1.03.48.48-.14.48.03c.39.05.78.08,1.17.1,1.26.05,2.33-.03,3.2-.21,1.35-.3,2.46-.74,3.33-1.34.44-.3.75-.57.93-.83l2.13-.28.38.48.03.38,4.88.38c1.77.25,3.22.54,4.37.86,1.31.39,2.7.92,4.19,1.58,1.38.62,2.46,1.21,3.26,1.79.87.6,1.76,1.27,2.68,2.03,1.05.92,1.93,1.79,2.64,2.61,2.02,2.39,3.53,4.85,4.54,7.39Z"/>
    </g>
  </g>
  <path id="Layer0_0_1_STROKES" class="st1" d="M19.08,20.63c.41-.15.38-.42-.08-.82-.92-.78-1.28-1.51-1.1-2.19.09-.33.41-.77.96-1.3.32-.31.86-.8,1.62-1.49.64-.63,1.1-1.21,1.35-1.73.34-.67.4-1.34.19-1.98-.38-1.18-1.65-1.86-3.8-2.05-.58-.05-1.53-.09-2.85-.09-1.25-.01-2.16-.05-2.73-.11-1.66-.19-3.32-.61-4.98-1.28-1.67-.67-2.95-1.38-3.85-2.15-.9-.76-1.85-1.84-2.85-3.22-.13,3.93,1.51,6.78,4.9,8.56-1.59.16-3.12-.31-4.61-1.41,1.14,3.08,3.47,4.8,6.98,5.16-.96.7-2.28.8-3.93.31,1.53,1.95,4.24,2.87,8.15,2.75-.76.67-1.7,1.05-2.82,1.15,1.64,1.12,3.85,1.39,6.64.83.98.71,1.92,1.06,2.82,1.05Z"/>
</svg>