<?xml version="1.0" encoding="UTF-8"?>
<svg id="_Слой_1" data-name="Слой_1" xmlns="http://www.w3.org/2000/svg" version="1.1" viewBox="0 0 114.18 31.75">
  <!-- Generator: Adobe Illustrator 30.2.1, SVG Export Plug-In . SVG Version: 2.1.1 Build 1)  -->
  <defs>
    <style>
      .st0 {
        fill-rule: evenodd;
      }

      .st0, .st1 {
        fill: #fff;
      }

      .st1 {
        stroke: #000;
        stroke-linecap: round;
      }
    </style>
  </defs>
  <g id="Selected_Items">
    <g id="Selected_Items1" data-name="Selected_Items">
      <path class="st0" d="M26.46,19.06c.28.26.61.39,1,.39s.71-.13.97-.39c.28-.28.42-.61.42-1s-.14-.71-.42-.97c-.26-.28-.58-.42-.97-.42s-.72.14-1,.42c-.26.26-.39.58-.39.97,0,.39.13.72.39,1ZM23.94,15.05c-.09-.11-.2-.16-.36-.16s-.28.06-.39.16c-.11.11-.16.24-.16.39s.05.28.16.39c.11.11.24.16.39.16s.27-.06.36-.16c.11-.11.16-.24.16-.39s-.05-.28-.16-.39ZM58.24,15.31c-.28-.28-.62-.42-1-.42s-.71.14-.97.42c-.28.26-.42.58-.42.97s.14.72.42,1c.26.26.58.39.97.39s.72-.13,1-.39c.26-.28.39-.61.39-1s-.13-.71-.39-.97ZM90.12,14.99c.11-.13.16-.27.16-.42,0-.17-.05-.32-.16-.45-.13-.11-.27-.17-.42-.19l-16.63-.52c-.28.02-.53.14-.74.35-.26.24-.39.53-.39.87,0,.32.13.6.39.84.21.22.46.33.74.36l16.63-.65c.15-.02.29-.08.42-.19ZM112.46,12.02l-8.36,8.33c-7.28,2.71-14.97,3.47-23.09,2.26-.06-.06-.14-.13-.23-.19-.17-.15-.33-.24-.48-.26-.17,0-.33.04-.48.13-.09.04-.16.08-.23.13-.02-.06-.06-.11-.13-.16-.13-.13-.26-.19-.39-.19-.11,0-.19.04-.26.13-.02.04-.04.09-.06.13-.02-.07-.06-.12-.1-.16-.08-.13-.19-.19-.32-.19-.11,0-.19.04-.26.13-.04.04-.06.09-.06.13-.06-.06-.15-.13-.26-.19-.22-.15-.41-.23-.58-.23s-.3.05-.39.16c-.06.04-.1.1-.1.16-.04-.04-.1-.09-.16-.16-.11-.11-.23-.16-.35-.16-.11,0-.18.05-.23.16-.02.06-.03.12-.03.16-.02-.04-.06-.09-.1-.16-.08-.11-.18-.16-.29-.16s-.18.05-.22.16c-.04.06-.06.12-.06.16-.04-.04-.1-.09-.16-.13-.17-.11-.35-.16-.55-.16-.19.02-.35.1-.45.23-.06.06-.11.13-.13.19-.02-.04-.05-.09-.1-.13-.11-.09-.22-.11-.32-.09-.11.02-.17.09-.19.23-.02.07-.03.13-.03.19-.04-.04-.09-.08-.13-.13-.13-.05-.24-.06-.32-.03-.08.04-.14.13-.16.26v.19c-.06-.04-.15-.08-.26-.1-.19-.04-.39-.02-.58.07-.17.08-.28.22-.32.39-.04.11-.05.19-.03.26l-.29.16c-.22-.28-.46-.55-.74-.81-.58-.54-1.06-.72-1.45-.55-.41.15-.7.55-.87,1.19-.09.32-.13.63-.13.94h-1.29c-.11-.71-.4-.85-.87-.42l-.49-.19c-.04-.71-.35-.86-.94-.45l-.42-.19c-.09-.66-.4-.81-.94-.42l-.49-.13c-.04-.65-.35-.78-.94-.42-.54-.24-1.18-.47-1.94-.71-1.53-.45-2.82-.65-3.88-.58-1.1.07-2.42.37-3.97.91-1.36.54-2.11.81-2.26.81-.3.02-.8-.08-1.49-.29-1.38-.43-2.16-.67-2.36-.71-2.45-.67-4.95-.88-7.49-.64-1.61.13-4.12.64-7.52,1.55-3.17.88-4.84,1.33-5.04,1.36-.26.04-.56.06-.9.06l-.45-.03-.78-1.16-.19-3.29c-.17-.32-.34-.71-.52-1.16-.34-.91-.5-1.68-.45-2.33.02-.75.5-1.3,1.42-1.65.45-.17.9-.28,1.36-.32,0-.06.08-.18.23-.35.22-.28,1.36-.65,3.42-1.13,2.37-.56,5.01-1,7.91-1.32,2.65-.32,5.46-.49,8.43-.52,1.49-.02,2.71-.01,3.68.03,1.4.06,2.68.24,3.84.52.58.13,1.01.26,1.29.39l1.81.13.1.26c.11.17.26.27.45.29.19,0,.33-.09.42-.26l.06-.23.61.06.13.23c.08.15.22.23.39.23s.3-.06.39-.19l.06-.23h.61l.16.23c.15.15.31.22.48.19.15-.02.27-.11.35-.26l.06-.26.58-.1.23.16c.15.11.3.14.45.1.13-.05.22-.17.26-.39v-.26l.45-.16.26.13c.22.06.38.07.49.03.11-.07.17-.19.19-.39l-.03-.26.45-.26.29.06c.22.04.38.03.48-.03.11-.06.15-.19.13-.39l-.06-.29,1.07-.55.16.35c.19.28.42.51.68.68.28.17.62.3,1,.39.19.04.37.06.52.06l19.09-.42,1.61.9c1.27.67,2.37,1.19,3.29,1.58,1.85.73,3,.67,3.46-.19.15-.26-.04-.7-.58-1.33l-.87-.87c6.27.17,12.53.77,18.8,1.78Z"/>
    </g>
  </g>
  <path id="Layer0_0_1_STROKES" class="st1" d="M19.05,20.53c.41-.15.38-.42-.08-.82-.92-.78-1.28-1.51-1.1-2.19.09-.33.41-.77.96-1.3.32-.31.86-.8,1.62-1.49.64-.63,1.1-1.21,1.35-1.73.34-.67.4-1.34.19-1.98-.38-1.18-1.65-1.86-3.8-2.05-.58-.05-1.53-.09-2.85-.09-1.25-.01-2.16-.05-2.73-.11-1.66-.19-3.32-.61-4.98-1.28-1.67-.67-2.95-1.38-3.85-2.15-.9-.76-1.85-1.84-2.85-3.22-.13,3.93,1.51,6.78,4.9,8.56-1.59.16-3.12-.31-4.61-1.41,1.14,3.08,3.47,4.8,6.98,5.16-.96.7-2.28.8-3.93.31,1.53,1.95,4.24,2.87,8.15,2.75-.76.67-1.7,1.05-2.82,1.15,1.64,1.12,3.85,1.39,6.64.83.98.71,1.92,1.06,2.82,1.05Z"/>
</svg>