<?xml version="1.0" encoding="UTF-8"?>
<svg id="_Слой_1" data-name="Слой_1" xmlns="http://www.w3.org/2000/svg" version="1.1" viewBox="0 0 117.85 32">
  <!-- Generator: Adobe Illustrator 30.2.1, SVG Export Plug-In . SVG Version: 2.1.1 Build 1)  -->
  <defs>
    <style>
      .st0 {
        fill-rule: evenodd;
      }

      .st0, .st1 {
        fill: #fff;
      }

      .st1 {
        stroke: #000;
        stroke-linecap: round;
      }
    </style>
  </defs>
  <g id="Selected_Items">
    <g id="Selected_Items1" data-name="Selected_Items">
      <path class="st0" d="M110.09,18.14c-1.04.35-2.26.73-3.67,1.13-2.82.8-5.16,1.35-7.02,1.66-1.83.28-4.18.49-7.05.63-.92.05-1.82.09-2.71.11h-1.06c-.02-.12-.08-.28-.18-.5-.21-.4-.54-.76-.99-1.09-.4-.33-.9-.56-1.52-.7-.17-.05-.34-.07-.53-.07l-19.82-.11c-.1.03-.2.07-.32.14-.05.02-.1.08-.14.17l-.04.1-.46,2.19c-.33,1.55-.58,2.61-.74,3.17-.02.07-.06.17-.11.28-.07.12-.12.2-.18.25-.12.09-.34.17-.67.21l-.49.07c-.31-.02-.63-.03-.99-.03-.71-.03-1.17-.06-1.41-.11-.1-.02-.17-.07-.25-.14-.1-.07-.15-.15-.17-.25,0-.18.13-.45.39-.81.02-.02.2-.22.53-.6.24-.31.46-.6.67-.89.38-.54.59-.95.63-1.23.02-.19.02-.51,0-.95l-.03-.63c-.1.02-.17.02-.21,0-.14-.19-.31-.39-.49-.6-.33-.42-.62-.74-.88-.95-.38-.31-.75-.54-1.1-.71-.63-.28-1.33-.41-2.08-.39-.73.05-1.39.29-1.97.74-.64.44-1.11,1.06-1.42,1.83-.26.68-.46,1.19-.6,1.52-.09.16-.15.27-.18.31-.02.05-.07.08-.14.11-.12.09-.23.13-.31.11-.12,0-.27-.1-.46-.28-.23-.26-.46-.59-.67-.99-.17-.28-.28-.5-.35-.64-.14-.26-.27-.48-.39-.67-.35-.47-.81-.86-1.38-1.16-.63-.33-1.22-.53-1.76-.6-.68-.07-1.29.08-1.83.46-.38.24-.85.56-1.41.99-.4.3-.66.48-.77.53-.17.05-.34.06-.53.03-.11-.02-.32-.1-.6-.25-.35-.14-.73-.26-1.13-.35-.61-.14-1.2-.18-1.76-.14-.56.07-1.05.19-1.44.35-.38.16-.75.4-1.13.7-.23.21-.5.45-.81.71-.21.17-.41.28-.6.35-.42.17-.77.27-1.06.32-.3.02-.58.07-.81.14-.49.09-.93.24-1.3.42-.4.21-.82.55-1.27,1.02-.16.17-.48.57-.95,1.2-.38.47-.79,1.01-1.24,1.62l-1.09.43-.63-.14c-1.95-3.17-3.07-4.96-3.35-5.36-.05-.07-.36-.47-.95-1.2-.42-.54-.65-.88-.67-1.02-.02-.19.01-.43.1-.71.09-.24.21-.47.36-.71.09-.12.32-.37.67-.77.4-.4.69-.73.88-.99.12-.16.33-.49.63-.99.21-.4.4-.69.56-.85.22-.19.4-.32.57-.39.07-.02.21-.04.42-.07.09-.02.35-.05.78-.07.52-.05,1.06-.14,1.62-.29.71-.16,1.24-.31,1.62-.42.38-.14,1.06-.42,2.05-.85,1.15-.52,2.07-.92,2.75-1.19.92-.36,1.78-.66,2.58-.92,1.03-.33,1.74-.54,2.11-.63.61-.12,1.36-.22,2.26-.28.87-.07,1.72-.08,2.54-.03.54.05,1.25.14,2.11.28.71.09,1.4.16,2.08.21.57.02,1.35.03,2.36.03.73,0,1.44-.03,2.15-.1.35-.03.64-.05.85-.07l.03-.21.21-.04.1.22.35-.04v-.21l.28-.07.07.25.35-.04v-.25l.28-.03.04.24.35-.03v-.28h.25l.03.18.32-.03v-.28l.28-.04.03.25.28-.04v-.35l.25-.04.07.29.28-.07v-.35h.25l.07.24h.22l.03-.32.28-.04.04.28.21-.07v-.25l.25-.04.07.18.35-.11c.26-.09.44-.17.53-.25.09-.04.2-.12.32-.21.09-.12.17-.19.24-.21.09-.05.21-.07.35-.07.14.02.23.03.25.03.1-.05.26-.14.49-.28.19-.14.35-.22.49-.24.17-.05.34-.06.53-.04.1.03.23.06.42.11.03.02.19.1.49.25.26.14.49.22.71.25.23.05.41.05.53,0,.16-.05.27-.07.32-.07.14,0,.4.13.78.39.21.14.4.28.56.43l2.79.53c2.04.4,3.46.67,4.26.81,1.01.14,2.26.26,3.74.35,1.29.05,2.35.06,3.17.04,1.71-.05,3.14-.32,4.26-.81.28-.12.8-.38,1.55-.78.73-.38,1.15-.59,1.27-.63.16-.07.38-.11.63-.11s.44.03.53.11c.05.05.11.14.18.28.05.09.13.26.25.49.21.45.41.71.6.78.21.07.41.06.6-.04.17-.09.27-.25.32-.46.02-.19.02-.38,0-.56l-.07-.21h.35l.14.28c.14.24.25.42.32.56.09.21.2.4.32.56.16.17.32.26.46.28.28.03.49.01.63-.03.26-.07.39-.24.39-.49s-.03-.5-.07-.74l-.11-.25.43.07.18.28c.14.21.26.39.35.53.12.28.21.46.28.53.12.16.27.27.46.32.19.05.36.04.53-.03.16-.05.27-.17.32-.35.05-.16.02-.38-.07-.64l-.18-.35.35.03.18.25c.12.16.2.3.25.42.09.22.16.37.21.46.12.17.26.28.43.35.47.19.83.17,1.09-.07.1-.07.15-.19.18-.35,0-.14-.01-.28-.03-.42-.02-.12-.08-.25-.18-.39l-.14-.14.49.03.18.32c.12.23.21.43.28.6.07.17.16.31.28.42.05.05.17.12.35.22.15.09.29.14.43.14.14.03.27-.01.39-.1.19-.14.27-.35.25-.63-.02-.1-.08-.24-.18-.43l-.14-.25.38.04.18.29c.14.21.22.35.25.42.05.12.12.25.21.39.12.16.22.28.31.35.17.1.34.15.53.18.24.05.42.02.57-.07.23-.16.32-.46.25-.88,0-.09-.04-.21-.11-.35l-.11-.17.49.1.11.14c.1.17.19.36.28.57.07.12.14.22.21.32.09.14.25.29.46.46.14.12.3.17.49.17.16,0,.31-.06.42-.17.09-.1.15-.23.18-.39.02-.12,0-.25-.04-.39-.05-.1-.12-.21-.21-.35l-.14-.18.43.1.17.21c.12.16.19.29.22.39.02.12.09.24.21.39.1.16.21.28.35.35.19.12.33.19.43.21.19.02.35-.04.49-.18.12-.12.17-.25.17-.39,0-.09-.02-.23-.07-.42-.04-.09-.1-.19-.17-.28l-.14-.11,10.3,1.31-7.22,7.55ZM62.12,23.5c-.26,0-.47.08-.63.25-.17.19-.25.4-.25.63s.08.44.25.6c.16.17.38.24.63.24.24,0,.45-.08.63-.24.17-.16.25-.36.25-.6s-.08-.45-.25-.63c-.19-.17-.4-.25-.63-.25Z"/>
    </g>
  </g>
  <path id="Layer0_0_1_STROKES" class="st1" d="M19.14,20.11c.41-.15.38-.42-.08-.82-.92-.78-1.28-1.51-1.1-2.19.09-.33.41-.77.96-1.3.32-.31.86-.8,1.62-1.49.64-.63,1.1-1.21,1.35-1.73.34-.67.4-1.34.19-1.98-.38-1.18-1.65-1.86-3.8-2.05-.58-.05-1.53-.09-2.85-.09-1.25-.01-2.16-.05-2.73-.11-1.66-.19-3.32-.61-4.98-1.28-1.67-.67-2.95-1.38-3.85-2.15-.9-.76-1.85-1.84-2.85-3.22-.13,3.93,1.51,6.78,4.9,8.56-1.59.16-3.12-.31-4.61-1.41,1.14,3.08,3.47,4.8,6.98,5.16-.96.7-2.28.8-3.93.31,1.53,1.95,4.24,2.87,8.15,2.75-.76.67-1.7,1.05-2.82,1.15,1.64,1.12,3.85,1.39,6.64.83.98.71,1.92,1.06,2.82,1.05Z"/>
</svg>