<?xml version="1.0" encoding="UTF-8"?>
<svg id="_Слой_1" data-name="Слой_1" xmlns="http://www.w3.org/2000/svg" version="1.1" viewBox="0 0 83.23 32">
  <!-- Generator: Adobe Illustrator 30.2.1, SVG Export Plug-In . SVG Version: 2.1.1 Build 1)  -->
  <defs>
    <style>
      .st0 {
        fill-rule: evenodd;
      }

      .st0, .st1 {
        fill: #fff;
      }

      .st1 {
        stroke: #000;
        stroke-linecap: round;
      }
    </style>
  </defs>
  <g id="Selected_Items">
    <g id="Selected_Items1" data-name="Selected_Items">
      <path class="st0" d="M82.64,16.1c-.44.34-.89.68-1.35,1-.05.04-.1.07-.17.11-1.67,1.1-3.17,1.81-4.49,2.14-1.61.42-3.24.65-4.88.7-1.7.06-3.34-.07-4.93-.41-.63-.14-1.29-.29-1.98-.46-.79-.2-1.26-.31-1.42-.33-.91-.21-1.99-.35-3.23-.41-1.27-.07-3.1-.08-5.48-.02l-3.19.09-.2.44-1.92-.04c-.02-.06-.07-.14-.15-.22-.15-.16-.34-.3-.57-.42-.23-.11-.49-.2-.76-.26l-.33-.06-.11,1.59-.44.42c-.33.33-.57.64-.72.9-.15.26-.3.64-.44,1.15-.09.25-.15.46-.2.65h-1.03c0-.15.01-.32.04-.52.05-.41.13-.75.24-1.03.12-.28.26-.56.41-.83l.2-.33c-.09-.16-.2-.34-.33-.53-.26-.38-.49-.66-.7-.83-.22-.16-.44-.38-.65-.65l-.24-.35c-.22-.12-.48-.23-.77-.33-.62-.17-1.16-.17-1.62.02-.1.04-.6.27-1.5.7-.59.28-1.18.49-1.76.61-.65.15-1.58.17-2.79.06-1.01-.1-2.04-.26-3.08-.48-1.1-.27-1.86-.45-2.31-.54-.73-.16-1.32-.25-1.77-.28-.44-.01-.94.01-1.48.08-.27.02-.5.06-.68.09l-.69.56-.15.66c-.11.46-.22.71-.33.77-.16.11-.38.25-.66.41l-.48-.04c-.11-.06-.23-.15-.37-.28-.26-.23-.44-.49-.55-.77-.12-.28-.17-.73-.13-1.35l.09-.85-.54-.35v-.85l.41-.2c0-.21.01-.44.04-.7.05-.52.13-.88.24-1.09.14-.25.28-.41.44-.5.12-.07.32-.14.61-.19.2-.04.35,0,.46.13.05.06.08.12.09.19,1.16-.07,2.44-.15,3.86-.22,2.86-.16,4.97-.23,6.33-.2,1.22.01,3.02.1,5.39.28,2.18.17,3.4.25,3.66.24.41-.03.77-.09,1.09-.19.18-.05.43-.14.74-.26.21-.06.36-.06.46.02.06.03.1.09.11.15.12-.11.27-.25.44-.41.32-.31.55-.59.7-.83.16-.26.29-.56.39-.89l.09-.44h.89v.46c-.04.36-.1.67-.2.94-.1.27-.25.54-.44.81-.1.15-.19.27-.28.35l5.21.07-.33-.52,1.22.52.87.04-.41-.59,1.37.59h.85l-.41-.59,1.37.63h.79l-.41-.52,1.33.56.83.06-.35-.61,1.27.61.89.04-.37-.61,1.27.61.92.04-.44-.59,1.16.59.96-.07-.31-.48,1.27.56.68.02c.62,0,1.29-.03,2.03-.09,1.21-.11,2.34-.23,3.42-.37l.37.28c.31.21.63.41.98.61,1.1.64,2.13,1.08,3.12,1.31.98.23,2.37.42,4.15.55.15.01.29.02.42.04.71.05,1.36.08,1.94.09l-.59.46Z"/>
    </g>
  </g>
  <path id="Layer0_0_1_STROKES" class="st1" d="M18.74,20.13c.41-.15.38-.42-.08-.82-.92-.78-1.28-1.51-1.1-2.19.09-.33.41-.77.96-1.3.32-.31.86-.8,1.62-1.49.64-.63,1.1-1.21,1.35-1.73.34-.67.4-1.34.19-1.98-.38-1.18-1.65-1.86-3.8-2.05-.58-.05-1.53-.09-2.85-.09-1.25-.01-2.16-.05-2.73-.11-1.66-.19-3.32-.61-4.98-1.28-1.67-.67-2.95-1.38-3.85-2.15-.9-.76-1.85-1.84-2.85-3.22-.13,3.93,1.51,6.78,4.9,8.56-1.59.16-3.12-.31-4.61-1.41,1.14,3.08,3.47,4.8,6.98,5.16-.96.7-2.28.8-3.93.31,1.53,1.95,4.24,2.87,8.15,2.75-.76.67-1.7,1.05-2.82,1.15,1.64,1.12,3.85,1.39,6.64.83.98.71,1.92,1.06,2.82,1.05Z"/>
</svg>