<?xml version="1.0" encoding="UTF-8"?>
<svg id="_Слой_1" data-name="Слой_1" xmlns="http://www.w3.org/2000/svg" version="1.1" viewBox="0 0 100.05 32">
  <!-- Generator: Adobe Illustrator 30.2.1, SVG Export Plug-In . SVG Version: 2.1.1 Build 1)  -->
  <defs>
    <style>
      .st0 {
        fill-rule: evenodd;
      }

      .st0, .st1 {
        fill: #fff;
      }

      .st1 {
        stroke: #000;
        stroke-linecap: round;
      }
    </style>
  </defs>
  <g id="Selected_Items">
    <g id="Selected_Items1" data-name="Selected_Items">
      <path class="st0" d="M73.8,12.47h10.99l6.16.59c4.4.66,7.34,1.63,8.82,2.91-1.67,1.47-4.47,2.48-8.39,3.03-1.65.23-3.76.37-6.35.43h-11.24c-.06-.43-.18-.65-.34-.65s-.28.22-.34.65h-.06c-.06-.43-.18-.65-.34-.65s-.28.22-.34.65h-.31c-.17-.43-.4-.65-.71-.65s-.54.22-.71.65h-.31c-.06-.43-.18-.65-.34-.65s-.28.22-.34.65h-.06c-.06-.43-.18-.65-.34-.65s-.28.22-.34.65h-.31c-.12-.43-.36-.65-.71-.65-.31,0-.55.22-.71.65h-.28c-.1-.43-.23-.65-.37-.65-.17,0-.28.22-.34.65h-.03c-.06-.43-.18-.65-.34-.65-.15,0-.27.22-.37.65h-.31c-.12-.43-.35-.65-.68-.65-.35,0-.59.22-.71.65h-.31c-.06-.43-.18-.65-.34-.65s-.28.22-.34.65h-.06c-.06-.43-.18-.65-.34-.65s-.28.22-.34.65h-2.63c-.31-.18-.56-.26-.74-.21-.39.16-.67.27-.84.34l-.56.06v.43l-1.64,4.74-1.86-.53c.31-.43.5-.95.56-1.55.12-1.16-.42-2.08-1.64-2.76-2.29-.29-4.07-.26-5.32.09-.52.17-3.31.21-8.39.15-5.3-.06-8.18-.27-8.64-.65-.33-.08-.6-.07-.8.03l-.24.19c-1.3,1.16-2.09,1.73-2.38,1.73-1.32,0-2.2-.58-2.63-1.73-.31-.78-.5-1.76-.56-2.91h-.06c-.27,0-.4-.24-.4-.71s.14-.71.4-.71h.06c.06-1.28.31-2.14.75-2.6.52-.56.94-.91,1.27-1.06.27-.12.68-.17,1.24-.15.43.02.84.11,1.21.28.04.02.38.23,1.02.62.12.02,1.65-.12,4.58-.43,2.99-.31,5.4-.41,7.24-.31,6.19.29,9.78.41,10.77.37,1.51-.31,2.57-.8,3.19-1.48.6-.66,1.06-1.82,1.39-3.47l1.7.37.09,1.02-.77,2.26-.09,1.55.56.25c.39.14.65.22.77.22.2,0,.52-.13.93-.4h2.48c.08.43.19.65.34.65.16,0,.28-.22.34-.65h.06c.08.43.2.65.34.65.12,0,.24-.22.34-.65h.31c.19.43.42.65.71.65.27,0,.49-.22.68-.65h.34c.08.43.19.65.34.65.12,0,.23-.22.34-.65h.03c.1.43.22.65.34.65.16,0,.28-.22.34-.65h.34c.19.43.41.65.68.65.29,0,.53-.22.71-.65h.31c.1.43.22.65.34.65.17,0,.28-.22.34-.65h.06c.08.43.19.65.34.65.16,0,.28-.22.34-.65h.34c.15.43.37.65.68.65s.54-.22.68-.65h.34c.08.43.19.65.34.65.16,0,.28-.22.34-.65h.06c.08.43.2.65.34.65.12,0,.23-.22.33-.65Z"/>
    </g>
  </g>
  <path id="Layer0_0_1_STROKES" class="st1" d="M19.18,20.32c.41-.15.38-.42-.08-.82-.92-.78-1.28-1.51-1.1-2.19.09-.33.41-.77.96-1.3.32-.31.86-.8,1.62-1.49.64-.63,1.1-1.21,1.35-1.73.34-.67.4-1.34.19-1.98-.38-1.18-1.65-1.86-3.8-2.05-.58-.05-1.53-.09-2.85-.09-1.25-.01-2.16-.05-2.73-.11-1.66-.19-3.32-.61-4.98-1.28-1.67-.67-2.95-1.38-3.85-2.15-.9-.76-1.85-1.84-2.85-3.22-.13,3.93,1.51,6.78,4.9,8.56-1.59.16-3.12-.31-4.61-1.41,1.14,3.08,3.47,4.8,6.98,5.16-.96.7-2.28.8-3.93.31,1.53,1.95,4.24,2.87,8.15,2.75-.76.67-1.7,1.05-2.82,1.15,1.64,1.12,3.85,1.39,6.64.83.98.71,1.92,1.06,2.82,1.05Z"/>
</svg>