<?xml version="1.0" encoding="UTF-8"?>
<svg id="_Слой_1" data-name="Слой_1" xmlns="http://www.w3.org/2000/svg" version="1.1" viewBox="0 0 113.96 31.58">
  <!-- Generator: Adobe Illustrator 30.2.1, SVG Export Plug-In . SVG Version: 2.1.1 Build 1)  -->
  <defs>
    <style>
      .st0 {
        fill-rule: evenodd;
      }

      .st0, .st1 {
        fill: #fff;
      }

      .st1 {
        stroke: #000;
        stroke-linecap: round;
      }
    </style>
  </defs>
  <g id="Selected_Items">
    <path class="st0" d="M54.93,10.71v.23h.27v-.22l9.9-.27,1.03-.6.28.25,1.12-.68.35.22,1.11-.61.36.2c1.01-.79,1.81-1.14,2.41-1.04.22.03.34.12.36.26.02.14-.06.27-.26.38-.33.19-.54.4-.66.65-.1.22-.11.44-.03.66.08.21.21.37.41.49.21.12.43.17.67.15v.8h.22v-.57l3.09.38v.57h.22v-.67c5.45.52,10.45.33,15-.57l14.68,5.92c-.91.7-2.41,1.6-4.52,2.69-2.11,1.09-4.4,1.7-6.89,1.82-2.49.12-4.62-.06-6.39-.55-1.77-.49-4.21-1.12-7.29-1.9-3.09-.78-5.8-1.18-8.14-1.21,0-.08-.04-.17-.09-.26-.1-.2-.24-.35-.42-.45-.19-.1-.38-.16-.59-.17h-.14c-.17,1.25-.5,2.19-1,2.84-4.66-1-9.54-1.55-14.63-1.64v-.19h-.29s0,.2,0,.2c-10.03-.09-16.56.37-19.6,1.4-3.46,1.06-7,2.87-10.63,5.41-1.74.19-1.93-1.32-.58-4.52,1.67-2.32,4.39-4.31,8.13-5.99,3.75-1.69,11.26-2.82,22.54-3.39Z"/>
  </g>
  <path id="Layer0_0_1_STROKES" class="st1" d="M18.92,19.48c.41-.15.38-.42-.08-.82-.92-.78-1.28-1.51-1.1-2.19.09-.33.41-.77.96-1.3.32-.31.86-.8,1.62-1.49.64-.63,1.1-1.21,1.35-1.73.34-.67.4-1.34.19-1.98-.38-1.18-1.65-1.86-3.8-2.05-.58-.05-1.53-.09-2.85-.09-1.25-.01-2.16-.05-2.73-.11-1.66-.19-3.32-.61-4.98-1.28-1.67-.67-2.95-1.38-3.85-2.15-.9-.76-1.85-1.84-2.85-3.22-.13,3.93,1.51,6.78,4.9,8.56-1.59.16-3.12-.31-4.61-1.41,1.14,3.08,3.47,4.8,6.98,5.16-.96.7-2.28.8-3.93.31,1.53,1.95,4.24,2.87,8.15,2.75-.76.67-1.7,1.05-2.82,1.15,1.64,1.12,3.85,1.39,6.64.83.98.71,1.92,1.06,2.82,1.05Z"/>
</svg>