<?xml version="1.0" encoding="UTF-8"?>
<svg id="Layer_1" xmlns="http://www.w3.org/2000/svg" version="1.1" viewBox="0 0 113.44 32">
  <!-- Generator: Adobe Illustrator 30.2.1, SVG Export Plug-In . SVG Version: 2.1.1 Build 1)  -->
  <defs>
    <style>
      .st0 {
        stroke: #000;
        stroke-linecap: round;
      }

      .st0, .st1 {
        fill: #fff;
      }
    </style>
  </defs>
  <path class="st1" d="M94.33,12.35c-11.71-2.17-28.35-1.32-28.35-1.32,0,0-.11.38-.36.38s-.37-.38-.37-.38l-.44.02s-.12.39-.38.39-.35-.34-.35-.34h-.47s-.12.37-.38.38-.34-.35-.34-.35h-.48s-.03.36-.35.37c-.32,0-.35-.35-.35-.35h-.51s-.06.35-.35.35-.33-.35-.33-.35l-.49.02s-.12.39-.41.39-.36-.4-.36-.4l-4.68.1.67-2.25v-.26l-.94-.69-.25.12-.79,2-.78.68-.9.36-1.68.09-.21.34-.36.21v-.21l-.18-.26-21.11.51-.6.59v.51h-.34l-.4.39v.42h-.39l-.42.39v.44h-.4l-.37.35v.44l-.32-.04-.43.36v.41h-.4l-.45.56,1.11,2.81,5.07-.76,16.33-1.82s1.82-.05,1.93-.08c.11-.03.22-.39.38-.39s.32.29.32.29c0,0,1.57.26,1.92,1.8.27,1.18-.26,2.62-.26,2.62l.91.55s.36-.62.72-1.33c.36-.72.45-1.33.45-1.33,0,0,1.58-1.75,3.9-.94,2.56.89,2.53,3.61,2.53,3.61,0,0,4.06-2.01,11.28-2.24s10.4.85,19.53.81c9.13-.03,15.34-4.86,15.34-4.86,0,0-2.09-1.5-10.64-3.09ZM25.87,18.42c-.49,0-.89-.42-.89-.94s.4-.94.89-.94.89.42.89.94-.4.94-.89.94Z"/>
  <path id="Layer0_0_1_STROKES" class="st0" d="M19.15,20.55c.41-.15.38-.42-.08-.82-.92-.78-1.28-1.51-1.1-2.19.09-.33.41-.77.96-1.3.32-.31.86-.8,1.62-1.49.64-.63,1.1-1.21,1.35-1.73.34-.67.4-1.34.19-1.98-.38-1.18-1.65-1.86-3.8-2.05-.58-.05-1.53-.09-2.85-.09-1.25-.01-2.16-.05-2.73-.11-1.66-.19-3.32-.61-4.98-1.28-1.67-.67-2.95-1.38-3.85-2.15-.9-.76-1.85-1.84-2.85-3.22-.13,3.93,1.51,6.78,4.9,8.56-1.59.16-3.12-.31-4.61-1.41,1.14,3.08,3.47,4.8,6.98,5.16-.96.7-2.28.8-3.93.31,1.53,1.95,4.24,2.87,8.15,2.75-.76.67-1.7,1.05-2.82,1.15,1.64,1.12,3.85,1.39,6.64.83.98.71,1.92,1.06,2.82,1.05Z"/>
</svg>