<?xml version="1.0" encoding="UTF-8"?>
<svg id="_Слой_1" data-name="Слой_1" xmlns="http://www.w3.org/2000/svg" version="1.1" viewBox="0 0 94.16 32">
  <!-- Generator: Adobe Illustrator 30.2.1, SVG Export Plug-In . SVG Version: 2.1.1 Build 1)  -->
  <defs>
    <style>
      .st0 {
        fill-rule: evenodd;
      }

      .st0, .st1 {
        fill: #fff;
      }

      .st1 {
        stroke: #000;
        stroke-linecap: round;
      }
    </style>
  </defs>
  <g id="Selected_Items">
    <g id="Selected_Items1" data-name="Selected_Items">
      <path class="st0" d="M24.65,19.21c-.23-.17-.48-.25-.76-.25-.26.02-.48.08-.65.2-.11.09-.23.24-.34.45-.09.17-.13.35-.11.56,0,.17.04.33.11.48.04.15.16.29.36.42.19.11.37.18.54.2.21.02.4-.04.59-.17.15-.06.3-.17.45-.34.11-.13.19-.31.23-.54.02-.21,0-.39-.09-.53-.07-.19-.19-.35-.34-.48ZM93.39,14.51c-.53.6-1.24,1.26-2.14,1.97-1.79,1.47-3.52,2.55-5.22,3.24-1.95.83-3.86,1.46-5.72,1.89-1.65.4-3.53.68-5.61.85-1.66.13-4.6.22-8.83.25h-5.84v-.53l-.4-.51-.48-.03-.28.37-.51-.14c-.04-.43-.13-.9-.28-1.41-.32-1.01-.75-1.7-1.3-2.06-.71-.45-1.36-.77-1.95-.96-.64-.21-1.33-.29-2.08-.25-.73.06-1.37.2-1.92.42-.49.19-1.01.51-1.55.96-.47.36-.78.56-.93.62-.06.04-.13.06-.23.06-.15,0-.26,0-.34.03-.23.02-.5-.1-.82-.37-.17-.15-.29-.25-.36-.31-.13-.11-.23-.18-.28-.2-.13-.06-.91-.06-2.34,0-1.07.04-2.05.09-2.93.17-2.93.21-4.97.39-6.12.54-1.03.13-2.02.27-2.96.42-1.16.19-1.83.31-2,.37-.13.04-.8.34-2,.9-1.26.58-2,.91-2.23.99-.41.17-.73.27-.93.31-.36.09-.67.09-.96,0-.3-.08-.57-.2-.82-.37-.22-.13-.37-.26-.42-.39-.15-.19-.25-.38-.31-.57-.11-.28-.16-.57-.14-.88.02-.36.03-.57.03-.65.02-.11.08-.33.2-.65.13-.36.62-1.33,1.47-2.93.86-1.62,1.37-2.5,1.52-2.65.17-.19.28-.29.34-.31.08-.06.17-.09.28-.09.02,0,.17.02.45.06.21.04.37.03.48-.03.11-.06.19-.15.23-.28v-.2l.53.17.48-.34,1.49-.25c.68-.17,1.41-.34,2.2-.51,2.58-.53,5.29-.96,8.15-1.3,2.86-.34,6.5-.55,10.94-.62,2.2-.04,4.13-.04,5.78,0l.48.45.65-.34.65.39.48-.39.53.45.68-.34.56.48.59-.34.62.37.53-.28.65.39.59-.28.45.42.59-.28.51.48.73-.28.56.42.73-.28.48.45.62-.28,1.61.28c1.26.21,2.4.43,3.41.68,1.03.23,2.78.74,5.24,1.55,1.26.4,2.41.78,3.44,1.16l.19.06c.15.06.3.1.45.14.49.07.87.02,1.16-.17.28-.21.42-.44.42-.7.02-.15-.02-.36-.11-.62-.06-.13-.33-.35-.82-.68-.51-.28-1-.51-1.47-.68-.15-.04-.45-.14-.9-.31-.15-.02-.24-.06-.28-.14-.04-.1-.04-.18,0-.25.02-.13.11-.22.28-.25.13-.06.24-.09.31-.09s.22.02.42.06c.22.06,1.06.28,2.51.68,1.6.47,2.86.86,3.78,1.18.88.26,2.03.69,3.44,1.3.71.3,1.33.56,1.86.79Z"/>
    </g>
  </g>
  <path id="Layer0_0_1_STROKES" class="st1" d="M18.84,19.76c.41-.15.38-.42-.08-.82-.92-.78-1.28-1.51-1.1-2.19.09-.33.41-.77.96-1.3.32-.31.86-.8,1.62-1.49.64-.63,1.1-1.21,1.35-1.73.34-.67.4-1.34.19-1.98-.38-1.18-1.65-1.86-3.8-2.05-.58-.05-1.53-.09-2.85-.09-1.25-.01-2.16-.05-2.73-.11-1.66-.19-3.32-.61-4.98-1.28-1.67-.67-2.95-1.38-3.85-2.15-.9-.76-1.85-1.84-2.85-3.22-.13,3.93,1.51,6.78,4.9,8.56-1.59.16-3.12-.31-4.61-1.41,1.14,3.08,3.47,4.8,6.98,5.16-.96.7-2.28.8-3.93.31,1.53,1.95,4.24,2.87,8.15,2.75-.76.67-1.7,1.05-2.82,1.15,1.64,1.12,3.85,1.39,6.64.83.98.71,1.92,1.06,2.82,1.05Z"/>
</svg>