<?xml version="1.0" encoding="UTF-8"?>
<svg id="_Слой_1" data-name="Слой_1" xmlns="http://www.w3.org/2000/svg" version="1.1" viewBox="0 0 113.55 33.02">
  <!-- Generator: Adobe Illustrator 30.2.1, SVG Export Plug-In . SVG Version: 2.1.1 Build 1)  -->
  <defs>
    <style>
      .st0 {
        fill-rule: evenodd;
      }

      .st0, .st1 {
        fill: #fff;
      }

      .st1 {
        stroke: #000;
        stroke-linecap: round;
      }
    </style>
  </defs>
  <g id="Selected_Items">
    <g id="Selected_Items1" data-name="Selected_Items">
      <path class="st0" d="M86.53,15.16h.06c.17-.02.3-.08.41-.19.12-.12.19-.27.19-.44s-.06-.31-.19-.44c-.11-.1-.24-.16-.41-.16h-22.37c-.15,0-.27.05-.38.16-.12.12-.19.27-.19.44s.06.31.19.44c.1.1.23.17.38.19h22.3ZM97.85,21.26h-39.63l-.56-1.6h-2.1v2.03l-.12.16h-.84l-.31-.5v-.84l-.19-.31c0,.15-.05.28-.16.41-.12.12-.27.19-.44.19s-.31-.06-.44-.19c-.1-.12-.16-.26-.16-.41-.02.15-.08.28-.19.41-.12.12-.27.19-.44.19s-.31-.06-.44-.19c-.1-.12-.16-.26-.16-.41-.02.15-.08.28-.19.41-.12.12-.27.19-.44.19s-.31-.06-.44-.19c-.1-.12-.16-.26-.16-.41,0,.15-.06.28-.19.41-.12.12-.27.19-.44.19s-.31-.06-.44-.19c-.1-.12-.16-.26-.16-.41,0,.15-.06.28-.19.41-.12.12-.27.19-.44.19s-.3-.06-.41-.19c-.12-.12-.19-.26-.19-.41,0,.15-.06.28-.19.41-.1.12-.24.19-.41.19-.19,0-.33-.06-.44-.19-.12-.12-.19-.26-.19-.41,0,.15-.07.28-.19.41-.1.12-.24.19-.41.19s-.31-.06-.44-.19c-.12-.12-.19-.26-.19-.41,0,.15-.06.28-.19.41-.1.12-.24.19-.41.19s-.31-.06-.44-.19c-.1-.12-.17-.26-.19-.41,0,.15-.05.28-.16.41-.12.12-.27.19-.44.19s-.31-.06-.44-.19c-.1-.12-.17-.26-.19-.41,0,.15-.05.28-.16.41-.12.12-.27.19-.44.19s-.31-.06-.44-.19c-.1-.12-.16-.26-.16-.41-.02.15-.08.28-.19.41-.12.12-.27.19-.44.19s-.31-.06-.44-.19c-.1-.12-.16-.26-.16-.41-.02.15-.08.28-.19.41-.12.12-.27.19-.44.19s-.31-.06-.44-.19c-.1-.12-.16-.26-.16-.41,0,.15-.07.28-.19.41s-.27.19-.44.19-.31-.06-.44-.19c-.1-.12-.16-.26-.16-.41,0,.15-.07.28-.19.41s-.27.19-.44.19-.3-.06-.41-.19c-.12-.12-.19-.26-.19-.41,0,.15-.06.28-.19.41-.1.12-.24.19-.41.19-.19,0-.33-.06-.44-.19-.12-.12-.19-.26-.19-.41,0,.15-.06.28-.19.41-.1.12-.24.19-.41.19s-.31-.06-.44-.19c-.12-.12-.19-.26-.19-.41,0,.15-.06.28-.19.41-.1.12-.24.19-.41.19s-.31-.06-.44-.19c-.1-.12-.17-.26-.19-.41,0,.15-.05.28-.16.41-.13.12-.27.19-.44.19s-.31-.06-.44-.19c-.1-.12-.17-.26-.19-.41,0,.15-.05.28-.16.41-.12.12-.27.19-.44.19s-.31-.06-.44-.19c-.1-.12-.16-.26-.16-.41-.02.15-.08.28-.19.41-.12.12-.27.19-.44.19s-.31-.06-.44-.19c-.1-.12-.16-.26-.16-.41-.02.15-.08.28-.19.41-.12.12-.27.19-.44.19s-.31-.06-.44-.19c-.1-.12-.16-.26-.16-.41,0,.15-.07.28-.19.41-.12.12-.27.19-.44.19s-.31-.06-.44-.19c-.1-.12-.16-.26-.16-.41,0,.15-.07.28-.19.41-.13.12-.27.19-.44.19s-.3-.06-.41-.19c-.12-.12-.19-.26-.19-.41l-.34-.88-2.81-2.1v-2.41l3.25-2.03.25-.44c0-.17.05-.3.16-.41.12-.12.27-.19.44-.19s.31.06.44.19c.1.1.17.24.19.41,0-.17.05-.3.16-.41.12-.12.27-.19.44-.19s.31.06.44.19c.1.1.16.24.16.41.02-.17.08-.3.19-.41.12-.12.27-.19.44-.19s.31.06.44.19c.1.1.16.24.16.41.02-.17.08-.3.19-.41.12-.12.27-.19.44-.19s.3.06.41.19c.12.1.19.24.19.41,0-.17.06-.31.19-.41.12-.12.27-.19.44-.19s.3.06.41.19c.12.1.19.24.19.41,0-.17.06-.31.19-.41.1-.12.25-.19.44-.19.17,0,.3.06.41.19.12.1.19.24.19.41,0-.17.06-.31.19-.41.1-.12.24-.19.41-.19s.31.06.44.19c.12.1.19.24.19.41,0-.17.05-.31.16-.41.12-.12.27-.19.44-.19s.31.06.44.19c.12.1.19.24.19.41,0-.17.05-.31.16-.41.12-.12.27-.19.44-.19s.31.06.44.19c.1.1.17.24.19.41,0-.17.05-.3.16-.41.12-.12.27-.19.44-.19s.31.06.44.19c.1.1.17.24.19.41,0-.17.05-.3.16-.41.12-.12.27-.19.44-.19s.31.06.44.19c.1.1.16.24.16.41.02-.17.08-.3.19-.41.12-.12.27-.19.44-.19s.31.06.44.19c.1.1.16.24.16.41.02-.17.08-.3.19-.41.12-.12.27-.19.44-.19s.3.06.41.19c.12.1.18.24.19.41,0-.17.07-.31.19-.41.12-.12.27-.19.44-.19s.3.06.41.19c.12.1.19.24.19.41,0-.17.07-.31.19-.41.1-.12.25-.19.44-.19.17,0,.3.06.41.19.12.1.19.24.19.41,0-.17.06-.31.19-.41.1-.12.24-.19.41-.19.19,0,.33.06.44.19.12.1.19.24.19.41,0-.17.05-.31.16-.41.12-.12.27-.19.44-.19s.31.06.44.19c.12.1.18.24.19.41,0-.17.06-.31.16-.41.12-.12.27-.19.44-.19s.31.06.44.19c.11.1.17.24.19.41,0-.17.05-.3.16-.41.12-.12.27-.19.44-.19s.31.06.44.19c.1.1.17.24.19.41,0-.17.05-.3.16-.41.12-.12.27-.19.44-.19s.31.06.44.19c.1.1.16.24.16.41.02-.17.08-.3.19-.41.12-.12.27-.19.44-.19s.31.06.44.19c.1.1.16.24.16.41.02-.17.08-.3.19-.41.12-.12.27-.19.44-.19s.3.06.41.19c.12.1.19.24.19.41,0-.17.06-.31.19-.41.13-.12.27-.19.44-.19s.3.06.41.19c.12.1.19.24.19.41l.25.25,2.88-1.44h12.64l2.85,1.35h17.42l21.55,1.94-14.18,6.82ZM58.44,11.76h-.03c-.17,0-.31.06-.44.19-.1.12-.16.27-.16.44s.05.3.16.4c.12.12.27.19.44.19h.03c.15,0,.28-.06.41-.19.12-.1.19-.24.19-.4s-.06-.31-.19-.44c-.13-.13-.26-.19-.41-.19ZM67.98,12.38c0-.17-.06-.31-.19-.44-.1-.12-.24-.19-.41-.19h-6.41c-.15.02-.27.08-.38.19-.12.12-.19.27-.19.44s.06.3.19.4c.1.12.23.19.38.19h6.41c.17,0,.3-.06.41-.19.13-.1.19-.24.19-.4ZM69.2,12.98c.17,0,.3-.06.41-.19.12-.1.19-.24.19-.4s-.06-.31-.19-.44c-.1-.12-.24-.19-.41-.19s-.31.06-.44.19-.19.27-.19.44.06.3.19.4c.13.12.27.19.44.19Z"/>
    </g>
  </g>
  <path id="Layer0_0_1_STROKES" class="st1" d="M19.05,20.96c.41-.15.38-.42-.08-.82-.92-.78-1.28-1.51-1.1-2.19.09-.33.41-.77.96-1.3.32-.31.86-.8,1.62-1.49.64-.63,1.1-1.21,1.35-1.73.34-.67.4-1.34.19-1.98-.38-1.18-1.65-1.86-3.8-2.05-.58-.05-1.53-.09-2.85-.09-1.25-.01-2.16-.05-2.73-.11-1.66-.19-3.32-.61-4.98-1.28-1.67-.67-2.95-1.38-3.85-2.15-.9-.76-1.85-1.84-2.85-3.22-.13,3.93,1.51,6.78,4.9,8.56-1.59.16-3.12-.31-4.61-1.41,1.14,3.08,3.47,4.8,6.98,5.16-.96.7-2.28.8-3.93.31,1.53,1.95,4.24,2.87,8.15,2.75-.76.67-1.7,1.05-2.82,1.15,1.64,1.12,3.85,1.39,6.64.83.98.71,1.92,1.06,2.82,1.05Z"/>
</svg>