<?xml version="1.0" encoding="UTF-8"?>
<svg id="_Слой_1" data-name="Слой_1" xmlns="http://www.w3.org/2000/svg" version="1.1" viewBox="0 0 101.8 32">
  <!-- Generator: Adobe Illustrator 30.2.1, SVG Export Plug-In . SVG Version: 2.1.1 Build 1)  -->
  <defs>
    <style>
      .st0 {
        fill-rule: evenodd;
      }

      .st0, .st1 {
        fill: #fff;
      }

      .st1 {
        stroke: #000;
        stroke-linecap: round;
      }
    </style>
  </defs>
  <g id="Selected_Items">
    <g id="Selected_Items1" data-name="Selected_Items">
      <path class="st0" d="M101.48,13.06l-1.69,2.1c-1.33,1.53-2.5,2.64-3.52,3.31-1.8,1.15-4.05,1.99-6.75,2.53-2.41.47-5.23.71-8.45.71h-14.8c-.16,0-.26-.01-.31-.03,0-.02-.06-.2-.17-.54-.18-.45-.29-.72-.34-.81-.23-.45-.55-.82-.98-1.11-.45-.32-1.02-.49-1.72-.51-.72-.02-1.38.12-1.96.44-.81.43-1.45,1.05-1.93,1.86-.25.41-.4.77-.47,1.08-.11.68,0,1.09.37,1.25.22.05.38.09.47.14.18.05.31.11.37.2.2.34.22.62.07.84-.15.23-.45.32-.88.27-.52-.07-1.01-.29-1.49-.68-.59-.47-.88-1.07-.88-1.79v-2.47c0-.27-.02-.46-.07-.57-.07-.16-.19-.24-.37-.24-.14,0-1.6.21-4.39.64-3.4.43-6.63.64-9.7.64s-6.24-.16-9.73-.47c-1.73-.16-3.4-.31-5-.47-.49,0-.94.24-1.32.71-.2.27-.43.63-.68,1.08-.13.22-.33.35-.57.37-.23,0-.43-.12-.61-.37-.18-.27-.28-1.47-.31-3.58-.25-.18-.44-.42-.57-.71-.16-.31-.24-.65-.24-1.01,0-.34.08-.66.24-.98.13-.29.32-.53.57-.71.04-1.98.15-3.09.31-3.34.18-.27.38-.4.61-.37.25,0,.44.12.57.37.25.45.47.8.68,1.05.38.5.82.74,1.32.74,1.6-.16,3.27-.31,5-.47,3.49-.34,6.73-.51,9.73-.51s6.3.22,9.7.64c2.79.43,4.26.64,4.39.64.18,0,.3-.08.37-.24.05-.09.07-.27.07-.54v-2.47c0-.72.29-1.32.88-1.79.47-.38.97-.61,1.49-.68.43-.05.72.05.88.27.16.2.14.47-.07.81-.06.11-.19.19-.37.24-.09.02-.25.07-.47.13-.36.16-.49.56-.37,1.22.09.63.27,1.13.54,1.48l.37.37v.88h9.26c1.01,0,2.55.08,4.63.23,2.61.2,4.63.37,6.04.51,5.56.45,9.64.63,12.23.54,2.84-.11,5.36-.29,7.57-.54l2.43-.31Z"/>
    </g>
  </g>
  <path id="Layer0_0_1_STROKES" class="st1" d="M19.29,19.85c.41-.15.38-.42-.08-.82-.92-.78-1.28-1.51-1.1-2.19.09-.33.41-.77.96-1.3.32-.31.86-.8,1.62-1.49.64-.63,1.1-1.21,1.35-1.73.34-.67.4-1.34.19-1.98-.38-1.18-1.65-1.86-3.8-2.05-.58-.05-1.53-.09-2.85-.09-1.25-.01-2.16-.05-2.73-.11-1.66-.19-3.32-.61-4.98-1.28-1.67-.67-2.95-1.38-3.85-2.15-.9-.76-1.85-1.84-2.85-3.22-.13,3.93,1.51,6.78,4.9,8.56-1.59.16-3.12-.31-4.61-1.41,1.14,3.08,3.47,4.8,6.98,5.16-.96.7-2.28.8-3.93.31,1.53,1.95,4.24,2.87,8.15,2.75-.76.67-1.7,1.05-2.82,1.15,1.64,1.12,3.85,1.39,6.64.83.98.71,1.92,1.06,2.82,1.05Z"/>
</svg>