<?xml version="1.0" encoding="UTF-8"?>
<svg id="_Слой_1" data-name="Слой_1" xmlns="http://www.w3.org/2000/svg" version="1.1" viewBox="0 0 119.52 32">
  <!-- Generator: Adobe Illustrator 30.2.1, SVG Export Plug-In . SVG Version: 2.1.1 Build 1)  -->
  <defs>
    <style>
      .st0 {
        fill-rule: evenodd;
      }

      .st0, .st1 {
        fill: #fff;
      }

      .st1 {
        stroke: #000;
        stroke-linecap: round;
      }
    </style>
  </defs>
  <g id="Selected_Items">
    <g id="Selected_Items1" data-name="Selected_Items">
      <path class="st0" d="M77.95,3.72h.91l.44.14c.07.14.18.23.33.26h.33l.07.15c.12,0,.21.01.25.04.1.05.18.04.26-.04.1,0,.24.01.44.04.17.05.34.12.51.22.19.07.35.16.47.25.15.07.23.12.26.15.07.03.15.04.22.04.1.07.18.11.26.11h.33s.13.01.25.04c.15.05.29.12.44.22.17.05.31.1.44.15l.18.11h.11c.07.19.13.38.18.55.07.17.13.36.18.58.05.22.07.42.07.62,0,.17-.01.34-.04.51,0,.17-.04.34-.11.51-.19.63-.39,1.03-.58,1.2-.19.19-.29.35-.29.47-.07.05-.12.07-.15.07-.07.02-.13.04-.18.04h9.67c.05.1.08.18.11.25.07.17.15.28.22.33.46.07.97.17,1.53.29.53.15,1.07.28,1.6.4.53.1.98.18,1.35.25.41.1.67.13.76.11.22,0,.35-.21.4-.62.05-.12.07-.29.07-.51l.73-1.45v-.33c0-.17.01-.36.04-.58.02-.27.06-.53.11-.8h1.16v4l-.04.29v.07c0,.07.1.11.29.11.07.07.51.11,1.31.11s1.82-.01,2.98-.04c1.19,0,2.46-.01,3.82-.04,1.33-.02,2.59-.04,3.78-.04.39-.02.78-.04,1.16-.04h.94c.29,0,.52.01.69.04h.8c.29,0,.57-.04.84-.11h1.09c.17,0,.25.04.25.11.24.9.35,1.47.33,1.71-.05.19-.16.29-.33.29-.07.07-.38.11-.91.11s-1.15-.02-1.78-.07c-.58-.02-1.15-.05-1.71-.07-.56,0-.87-.02-.94-.07h-12.14c0,.07-.15.11-.44.11v.51h1.64l.58.62v1.71h-.76c-.1-.02-.19-.07-.29-.15-.07-.02-.12-.06-.15-.11-.07-.02-.12-.04-.15-.04-.07,0-.16.01-.25.04h-.4c-.17.05-.36.07-.58.07l-5.6.18c-.78.07-1.49.13-2.15.18-.65.02-.99.04-1.02.04-.1.17-.25.4-.47.69-.22.31-.54.47-.98.47-.39,0-.84-.3-1.35-.91-.17,0-.31-.04-.43-.11-.15-.1-.25-.15-.33-.15.07.39.11.69.11.91v.69c0,.34-.01.59-.04.76-.05.15-.11.27-.18.36-.17.02-.36.02-.58,0-.17-.05-.36-.12-.58-.22-.1-.02-.52-.04-1.27-.04h-2.8c-1.09,0-2.24.01-3.46.04h-2.44c.04.13.07.26.11.4.29,1.11.44,2,.44,2.65v6.84c0,.58-.06.9-.18.94-.17-.05-.34-.07-.51-.07h-7.89c-.36,0-.59-.04-.69-.11-.15-.07-.22-.27-.22-.58l-.07-11.71c.05-.1.07-.19.07-.29-.04-.17-.21-.27-.49-.31-.03,0-.06.01-.09.02-.07.02-.16.12-.25.29-.1,0-.15.08-.15.25s.01.33.03.47c0,.12.04.22.11.29-.02.07-.07.16-.15.25-.1.07-.18.11-.26.11.07.17.11.33.11.47.02.15.04.33.04.55,0,.39-.05.74-.15,1.06-.15.31-.41.52-.8.62-.31.17-.7.28-1.16.33-.44.05-.85.05-1.24,0-.41-.05-.75-.1-1.02-.15-.27-.05-.4-.11-.4-.18-.1-.02-.19-.05-.29-.07-.19-.05-.32-.11-.36-.18-.02.07-.12.36-.29.87-.19.49-.41,1.03-.65,1.64-.24.58-.45,1.13-.62,1.64-.17.46-.26.72-.26.76.05.07.12.21.22.4.03.17.04.29.04.36,0,.1-.06.21-.18.33-.05.17-.18.38-.4.62-.27.22-.78.22-1.53,0-.39-.1-.8-.22-1.24-.36-.44-.17-.84-.33-1.2-.47-.41-.15-.85-.32-1.31-.51h-.26l.15-.22c.29-.51.63-1.09,1.02-1.75.41-.65.79-1.27,1.13-1.85.36-.58.65-1.08.87-1.49.24-.41.36-.65.36-.73.07-.17.06-.41-.04-.73-.12-.34-.3-.57-.54-.69l-.47-.25c-.13-.07-.26-.13-.38-.18l-7.18-.51h-6.15c-1.31,0-2.65.13-4.04.4-1.55.29-2.4.64-2.55,1.06-.1.22-.12.55-.07.98.07.53.25.99.55,1.38.29.36.38.62.26.76-.05.07-.13.11-.26.11l-12.76.59c-.34,0-.62-.17-.84-.51-.22-.34-.33-.75-.33-1.24v-10.55c.12-.17.31-.3.58-.4.56-.24,1.2-.22,1.93.07.51.19,2.87.52,7.09.98.41.02.88.35,1.42.98.53.61,1.07.94,1.6,1.02.51.05,1.24.02,2.18-.07.82-.07,1.58-.18,2.26-.33,1.55-.29,2.91-.65,4.07-1.09.7-.27,1.68-.69,2.95-1.27,1.57-.67,3.27-1.02,5.13-1.06.15-.02.31-.05.47-.07.68-.1,1.36-.19,2.04-.29.65-.07,1.16-.1,1.53-.07v-.29c.15-.34.27-.67.36-.98.07-.27.18-.49.33-.65.17-.19.39-.34.65-.44.24-.07.58-.1,1.02-.07.36.07.75.16,1.16.26.41.07.79.16,1.13.25l1.05.36c.07.02.15.11.22.25.07.02.13.12.18.29.05.15.07.33.07.55v.47h5.85v-.47h3.09v.47c.24,0,.54.01.91.04h1.24c.41,0,.79.01,1.13.03.29.05.47.07.55.07s.38-.02.91-.07c.53-.02,1.18-.06,1.93-.11.75-.02,1.53-.08,2.33-.18.85-.05,1.61-.13,2.29-.25.07-.02.18-.12.33-.29.12-.07.24-.19.36-.36.1-.19.21-.47.33-.84-.29-.24-.51-.39-.65-.44-.12-.05-.24-.11-.36-.18-.24,0-.39-.06-.44-.18-.24-.1-.52-.18-.84-.25-.34-.07-.63-.13-.87-.18h-.15c-.17-.12-.46-.18-.87-.18l-.69-.14c-.29-.07-.48-.14-.58-.18-.07-.05-.19-.17-.36-.36v-.04h-.76c-.27,0-.47.01-.62.04-.12,0-.24-.01-.36-.04-.22-.27-.35-.56-.4-.87-.07-.29.13-.84.62-1.64v-.11h.07c.63.17,1.03.3,1.2.4.19.15.34.28.44.4ZM66.01,19.1c-.41.06-1.26.07-2.53.04-.15.19-.22.39-.22.58,0,.32.11.57.33.76.19.19.46.29.8.29h.95c.19,0,.39-.1.58-.29.19-.19.29-.45.29-.76,0-.2-.07-.41-.2-.62Z"/>
    </g>
  </g>
  <path id="Layer0_0_1_STROKES" class="st1" d="M19.04,20.48c.41-.15.38-.42-.08-.82-.92-.78-1.28-1.51-1.1-2.19.09-.33.41-.77.96-1.3.32-.31.86-.8,1.62-1.49.64-.63,1.1-1.21,1.35-1.73.34-.67.4-1.34.19-1.98-.38-1.18-1.65-1.86-3.8-2.05-.58-.05-1.53-.09-2.85-.09-1.25-.01-2.16-.05-2.73-.11-1.66-.19-3.32-.61-4.98-1.28-1.67-.67-2.95-1.38-3.85-2.15-.9-.76-1.85-1.84-2.85-3.22-.13,3.93,1.51,6.78,4.9,8.56-1.59.16-3.12-.31-4.61-1.41,1.14,3.08,3.47,4.8,6.98,5.16-.96.7-2.28.8-3.93.31,1.53,1.95,4.24,2.87,8.15,2.75-.76.67-1.7,1.05-2.82,1.15,1.64,1.12,3.85,1.39,6.64.83.98.71,1.92,1.06,2.82,1.05Z"/>
</svg>