<?xml version="1.0" encoding="UTF-8"?>
<svg id="_Слой_1" data-name="Слой_1" xmlns="http://www.w3.org/2000/svg" version="1.1" viewBox="0 0 102.04 32">
  <!-- Generator: Adobe Illustrator 30.2.1, SVG Export Plug-In . SVG Version: 2.1.1 Build 1)  -->
  <defs>
    <style>
      .st0 {
        fill-rule: evenodd;
      }

      .st0, .st1 {
        fill: #fff;
      }

      .st1 {
        stroke: #000;
        stroke-linecap: round;
      }
    </style>
  </defs>
  <g id="Selected_Items">
    <g id="Selected_Items1" data-name="Selected_Items">
      <path class="st0" d="M62.53,16.86c0-.34-.09-.61-.27-.82-.18-.21-.4-.31-.66-.31h-1.87s-.04-.01-.04.04c-.05.05-.1.21-.16.47-.03.21.05.5.23.9.13.31.17.49.12.54-.15.1-.45-.14-.9-.74-.13-.16-.22-.4-.27-.74l-.04-.47c-.16.08-.31.18-.47.31-.28.26-.43.53-.43.82.03.36.14.7.35,1.01.24.31.52.47.86.47h2.38c.47,0,.79-.17.97-.51.13-.23.2-.56.2-.97ZM92.39,6.51c-.13.26-.21.43-.23.51-.03.08-.01.23.04.47l.23.51h1.75l.12-2.3h-1.48l-.43.82ZM96.47,11.02c-.08,0-.14-.04-.19-.12l-.08-.12h-1.21c-.15.44-.32.66-.5.66h-.58c-.08,0-.15-.06-.23-.19l-.12-.16h-2.41v.62c0,.15-.1.31-.31.47-.21.18-.43.27-.66.27h-18.81c-.13,0-.26-.12-.39-.35l-.15-.35-.43.7h-.27v4.48l.31.39c-.03.1-.13.21-.31.31-.13.05-.17.33-.12.82.08.88.12,1.4.12,1.56,0,.52.03.99.08,1.4.08.31.19.75.35,1.32.18.67.53,1.87,1.05,3.58l.19.12c.08.1.04.2-.12.27-3.87,1.25-5.92,1.9-6.15,1.95-.15,0-.27-.06-.35-.19-.05-.13-.05-.25,0-.35.03-.05-.09-.53-.35-1.44-.36-1.19-.63-2.32-.82-3.39-.21-1.17-.33-2.22-.35-3.15l.04-1.05-.51-.16v-.43c-.23.34-.4.51-.51.51h-4.44c-.16.28-.3.43-.43.43-.08,0-.18-.08-.31-.23l-.12-.19c-.1-.05-.21-.08-.31-.08-.21,0-.36.12-.47.35-.1.23-.22.42-.35.55-.16.18-.26.31-.31.39-.05.13-.01.3.12.51.15.23.22.39.19.47-.03.05-.21.14-.55.27-.34.1-.54.26-.62.47-.02.05-.3.56-.82,1.52-.44.81-.66,1.27-.66,1.4,0,.05.09.22.27.51.16.21.17.4.04.58-.29.36-1.44.4-3.47.12-.78-.1-1.38-.28-1.79-.55-.47-.26-.62-.55-.47-.86.23-.42,1.88-3.26,4.94-8.52.16-.29.16-.69,0-1.21-.16-.54-.4-.83-.74-.86-.23,0-.45.01-.66.04-.16.03-.3.01-.43-.04-.28-.13-.43-.32-.43-.58-.02-.34-.04-.64-.04-.9-.03-.49-.01-.86.04-1.09h-.19l-.51-.19v-.19h-6l-.08.43c-.13.34-.36.64-.7.9-.36.26-.67.52-.93.78l-.31.27-.7,1.28h-.93l-.62,1.09h-2.3v-.59h-1.36c-2,1.53-3.1,2.36-3.31,2.49-.21.13-.36.21-.47.23-.13.02-.22-.05-.27-.23l-.04-.39-6.23,4.01-.12.47c-.13.31-.27.48-.43.51-.21.05-.44.04-.7-.04-.28-.05-.51-.14-.66-.27-.26-.21-.39-.32-.39-.35-.13-.13-.19-.34-.19-.63v-11.91c0-.31.12-.58.35-.82.26-.26.62-.39,1.09-.39h19.39c.1,0,.18.1.23.31.03.1.05.21.08.31h5.61v-.23l.51-.19h.97v-.86l.19-.19c.21-.13.56-.19,1.05-.19h2.34l.82-1.17-.08-.39c-.16-.05-.31-.13-.47-.23-.31-.23-.47-.55-.47-.93,0-.26.1-.49.31-.7.23-.23.49-.35.78-.35.34,0,.62.12.86.35.21.21.31.45.31.74v2.34h.47v-.62h1.44v.82h10.98c.16,0,.3.08.43.23.1.13.18.25.23.35.03.13.19.05.51-.23h1.17c0-.08.01-.14.04-.19.05-.13.16-.2.31-.2h17.36c.16,0,.3.08.43.23.05.08.1.14.15.2l.82-1.13c.57-.8.95-1.28,1.13-1.44l.19-.19c.23-.13.56-.2.97-.2h.97v4.98h1.17l.16-.19c.1-.1.21-.15.31-.15h4.67c.21,0,.38.08.51.23.21.18.31.44.31.78v.39c0,.26-.09.47-.27.62-.16.13-.32.19-.5.19h-4.79Z"/>
    </g>
  </g>
  <path id="Layer0_0_1_STROKES" class="st1" d="M19.3,20.43c.41-.15.38-.42-.08-.82-.92-.78-1.28-1.51-1.1-2.19.09-.33.41-.77.96-1.3.32-.31.86-.8,1.62-1.49.64-.63,1.1-1.21,1.35-1.73.34-.67.4-1.34.19-1.98-.38-1.18-1.65-1.86-3.8-2.05-.58-.05-1.53-.09-2.85-.09-1.25-.01-2.16-.05-2.73-.11-1.66-.19-3.32-.61-4.98-1.28-1.67-.67-2.95-1.38-3.85-2.15-.9-.76-1.85-1.84-2.85-3.22-.13,3.93,1.51,6.78,4.9,8.56-1.59.16-3.12-.31-4.61-1.41,1.14,3.08,3.47,4.8,6.98,5.16-.96.7-2.28.8-3.93.31,1.53,1.95,4.24,2.87,8.15,2.75-.76.67-1.7,1.05-2.82,1.15,1.64,1.12,3.85,1.39,6.64.83.98.71,1.92,1.06,2.82,1.05Z"/>
</svg>