<?xml version="1.0" encoding="UTF-8"?>
<svg id="_Слой_1" data-name="Слой_1" xmlns="http://www.w3.org/2000/svg" version="1.1" viewBox="0 0 67.04 32">
  <!-- Generator: Adobe Illustrator 30.2.1, SVG Export Plug-In . SVG Version: 2.1.1 Build 1)  -->
  <defs>
    <style>
      .st0 {
        fill-rule: evenodd;
      }

      .st0, .st1 {
        fill: #fff;
      }

      .st1 {
        stroke: #000;
        stroke-linecap: round;
      }
    </style>
  </defs>
  <g id="Selected_Items">
    <g id="Selected_Items1" data-name="Selected_Items">
      <path class="st0" d="M66.88,6.06v1.44l-.56.61h-2.28c-.06.06-.12.09-.18.09-.06.03-.12.05-.19.05v2.42h-6.05v.37c0,.12.03.25.09.37,0,.13.01.27.05.42-.03.03-.09.08-.19.14-.09.03-.19.11-.28.23.03.06.08.28.14.65.06.19.09.36.09.51h-1.21c-.75,0-1.21-.02-1.4-.05-.09.12-.22.36-.37.7-.12.34-.33.7-.6,1.07-.25.37-.54.71-.88,1.02-.34.28-.73.45-1.16.51-.68.09-1.47.11-2.38.05-.93-.03-1.66-.25-2.19-.65-.18,0-.27-.06-.28-.19v8.38c-.16.03-.26.06-.33.09-.12.06-.26.09-.42.09v7.22h-5.45v-7.03s-.06-.06-.09-.09c-.03,0-.08-.02-.14-.05-.03-.03-.06-.05-.09-.05h-3.12l-.65-.88c.37-1.74.73-3.32,1.07-4.75.28-1.21.53-2.31.74-3.31l.37-1.53c-.34-.62-.63-1.16-.88-1.63-.31-.5-.56-.77-.75-.84-.19-.1-.62-.14-1.3-.14s-1.27.05-1.86.14c-.03.03-.08.08-.14.14-.09.06-.17.12-.23.19l-.28.28-.7-.09c0-.06-.03-.13-.09-.19,0-.03-.02-.06-.04-.09-.03-.06-.06-.11-.09-.14h-4.42v3.44h-.23c-.06.06-.28.15-.65.28-.37.06-.73.06-1.07,0-.22-.06-.41-.12-.56-.19-.16-.06-.27-.09-.33-.09h-.19c-.15,0-.31-.02-.46-.05-.15,0-.34-.02-.56-.05-.06,0-.17-.06-.33-.18-.19-.16-.37-.39-.56-.7-.09-.1-.14-.22-.14-.37v-.33c0-.5.11-1.01.33-1.54,0-.06.03-.4.09-1.02v-1.68l.37-6.98,1.12-1.44v-.14l2.37.14c.53.06,1.14.12,1.82.19.62.06,1.23.09,1.82.09.56.06,1.04.11,1.44.14.37.06.62.09.75.09.06,0,.34.02.84.05.49.09,1.04.17,1.63.23.56.06,1.09.14,1.58.23.49.06.79.09.88.09h.14v.14c.09,0,.16.06.19.19.09.12.09.28,0,.47-.1.15-.31.29-.65.42-.25.06-.56.11-.93.14h-2.28c-.31-.03-.48-.05-.51-.05l-4.38-.33h-.09s-.04-.03-.05-.09v.42c.19,0,.47.02.84.05.4,0,.81.03,1.21.1.43.03.82.08,1.16.14.37,0,.62.02.75.05h17.36v-.37c0-.19.03-.37.09-.56.03-.25.06-.5.09-.75h.09c.16-.03.42-.06.79-.09h1.77c.28.03.45.07.51.14.09.09.22.26.37.51.12.28.23.51.32.7h4.7v-.23c0-.12.03-.25.09-.37,0-.12.02-.25.05-.37h.1c.15-.06.39-.15.7-.28.25-.12.54-.23.88-.32.25-.12.51-.2.79-.24.28-.06.48-.06.6,0,.31.13.5.28.56.47.09.18.14.31.14.37v3.12l.47.42h2.56l.32.51ZM48.54,15.18h3.54c.31,0,.56-.09.75-.28.22-.18.32-.43.32-.74v-.56c0-.31-.11-.56-.32-.74-.19-.19-.43-.28-.75-.28h-3.54c-.31,0-.57.09-.79.28-.25.19-.37.44-.37.74v.56c0,.31.12.56.37.74.22.19.48.28.79.28ZM26.19,3.22h-.56c-.06.09-.09.23-.09.42v.65c0,.37.01.79.04,1.26.03.47.08,1.01.14,1.63.12-.81.31-1.58.56-2.33.22-.71.37-1.21.46-1.49-.18-.09-.37-.14-.56-.14Z"/>
    </g>
  </g>
  <path id="Layer0_0_1_STROKES" class="st1" d="M18.79,20.75c.41-.15.38-.42-.08-.82-.92-.78-1.28-1.51-1.1-2.19.09-.33.41-.77.96-1.3.32-.31.86-.8,1.62-1.49.64-.63,1.1-1.21,1.35-1.73.34-.67.4-1.34.19-1.98-.38-1.18-1.65-1.86-3.8-2.05-.58-.05-1.53-.09-2.85-.09-1.25-.01-2.16-.05-2.73-.11-1.66-.19-3.32-.61-4.98-1.28-1.67-.67-2.95-1.38-3.85-2.15-.9-.76-1.85-1.84-2.85-3.22-.13,3.93,1.51,6.78,4.9,8.56-1.59.16-3.12-.31-4.61-1.41,1.14,3.08,3.47,4.8,6.98,5.16-.96.7-2.28.8-3.93.31,1.53,1.95,4.24,2.87,8.15,2.75-.76.67-1.7,1.05-2.82,1.15,1.64,1.12,3.85,1.39,6.64.83.98.71,1.92,1.06,2.82,1.05Z"/>
</svg>