<?xml version="1.0" encoding="UTF-8"?>
<svg id="_Слой_1" data-name="Слой_1" xmlns="http://www.w3.org/2000/svg" version="1.1" viewBox="0 0 89.59 32">
  <!-- Generator: Adobe Illustrator 30.2.1, SVG Export Plug-In . SVG Version: 2.1.1 Build 1)  -->
  <defs>
    <style>
      .st0 {
        fill-rule: evenodd;
      }

      .st0, .st1 {
        fill: #fff;
      }

      .st1 {
        stroke: #000;
        stroke-linecap: round;
      }
    </style>
  </defs>
  <g id="Selected_Items">
    <g id="Selected_Items1" data-name="Selected_Items">
      <path class="st0" d="M24.17,4.09h.12v-.04h15.08c.33-.02.66-.04.97-.04.02-.03.05-.05.08-.08h.19c.05,0,.1.01.16.04.03.02.05.05.08.08h35.74s.1.01.15.04c.03.03.05.05.08.08.03.03.05.05.08.08.03.03.04.05.04.08.03.03.04.05.04.08.02,0,.04.01.04.04h.38v.93l.04.04v.15s-.04.05-.04.08v.35h-.15v.08h.12c.05,0,.1.01.15.04l.04.04s.05-.05.08-.08h.62s.05.01.08.04v-.04c.05,0,.1.01.15.04.03.03.05.05.08.08,0,.03.01.05.04.08,0,.03.01.05.04.08v.69h9.91c.05,0,.1.01.15.04.03.03.05.05.08.08.03,0,.06.01.11.04.03.03.05.05.08.08,0,.03.01.05.04.08,0,.03.01.05.04.08v1.66s-.04.05-.04.08.01.05.04.08v.04s-.05.05-.08.08v.11s-.05.05-.08.08v.08l-.04.04s-.05.04-.08.04-.06.01-.11.04h-4.78v.42h-.04v.04s-.05.01-.08.04v.08s-.05.05-.08.08h-.04s-.06.01-.12.04c-.05-.02-.1-.04-.15-.04-.03,0-.06.01-.12.04h-4.24s-.05.04-.08.04-.06.01-.12.04h-.08s-.05.05-.08.08l.04.04s.01.05.04.08v.08s-.05.04-.08.04v.08s-.04.05-.04.08h-.08s-.06.04-.12.04h-.35v.12h-1.35v.77c-.1.02-.22.04-.35.04v.04s-.01.05-.04.08c0,.02-.01.05-.04.08,0,.02-.01.04-.04.04,0,.02-.01.05-.04.08v.08s-.05.05-.08.08v.08s-.05.05-.08.08v.08s-.04.05-.04.08l-.04.04s-.04.05-.04.08c-.03.03-.04.05-.04.08-.03.03-.04.05-.04.08-.03.02-.05.05-.08.08,0,.03-.01.05-.04.08v.04s-.01.05-.04.08c-.01.01-.03.03-.04.04-.01.02-.03.03-.04.04-.03.03-.04.05-.04.08-.03.02-.04.05-.04.08,0,.02-.01.04-.04.04-.03.03-.05.05-.08.08s-.04.05-.04.08c-.03.03-.05.05-.08.08-.02.02-.05.05-.08.08l-.08.08s-.06,0-.1.02c-.01.02-.02.03-.02.06-.03.02-.05.05-.08.08h-.03s-.04.02-.06.02l-.02.02s-.04.05-.04.08-.01.05-.04.08c0,.03-.01.04-.04.04-.03.02-.05.05-.08.08-.08.03-.15.05-.23.08-.08.02-.14.05-.19.08v.04l-.04.04h-.46s-.01.04-.04.04c-.05.02-.1.04-.15.04h-1.54c-.05-.02-.1-.04-.15-.04-.03-.03-.04-.05-.04-.08h-.39s-.06-.04-.12-.04l-.04-.04h-.08c-.08-.02-.14-.04-.19-.04-.03-.03-.05-.05-.08-.08,0-.02-.01-.05-.04-.08h-.04c-.05-.02-.1-.04-.15-.04-.03-.02-.05-.05-.08-.08,0-.02-.01-.05-.04-.08-.03-.03-.06-.05-.12-.08v-.04c-1.41,0-2.81.01-4.2.04-.03,0-.04.01-.04.04h-.04c-.05.03-.1.04-.15.04h-.46l-.04.04s-.09.01-.12.04c-.05,0-.1.01-.15.04-.03.02-.04.05-.04.08-.05.02-.1.05-.15.08-.03.03-.06.05-.12.08-.03.02-.05.04-.08.04,0,.02-.01.05-.04.08,0,.03-.01.05-.04.08h-.04c-.08.02-.14.04-.19.04-.03.03-.06.05-.12.08-.03.02-.05.05-.08.08-.03.02-.05.05-.08.08v.08s-.04.05-.04.08c-.05.03-.1.05-.15.08-.03.02-.06.05-.12.08-.03.03-.05.04-.08.04,0,.02-.01.05-.04.08-.02.03-.05.05-.08.08v.08s-.05.05-.08.08c-.03.02-.04.05-.04.08-.03.02-.05.05-.08.08,0,.02-.01.05-.04.08v.04s-.04.05-.04.08c-.03.02-.04.05-.04.08-.03.02-.05.05-.08.08v.08s-.04.05-.04.08-.01.05-.04.08c0,.02-.01.05-.04.08,0,.03-.01.04-.04.04-.03.03-.04.05-.04.08-.03.02-.04.05-.04.08s-.01.05-.04.08v.08s-.04.05-.04.08c-.05.02-.09.05-.12.08-.03.03-.04.05-.04.08-.03.02-.06.04-.12.04,0,.02-.01.05-.04.08-.03.02-.05.05-.08.08,0,.02-.01.04-.04.04l-.04.04c-.05,0-.09.01-.12.04-.05,0-.1.01-.15.04l-.04.04c-.05.02-.1.04-.15.04h-.27l-.04.04c-.05,0-.09.01-.12.04h-.35s-.06-.04-.12-.04l-.04-.04h-.08c-.08-.02-.14-.04-.19-.04,0-.03-.01-.05-.04-.08h-.12c-.05-.02-.1-.05-.15-.08-.03,0-.05-.01-.08-.04-.02-.02-.04-.04-.06-.06-.09-.01-.17-.02-.25-.02-.03-.02-.05-.05-.08-.08-.03,0-.04-.01-.04-.04-.03-.02-.04-.05-.04-.08s-.01-.05-.04-.08c-.03-.03-.05-.05-.08-.08v-.08s-.04-.05-.04-.08-.01-.05-.04-.08v-.19s-.01-.05-.04-.08c-.03-.02-.05-.05-.08-.08v-.39s-.04-.05-.04-.08v-.66s-.01-.05-.04-.08v-.08s-.04-.01-.04-.04v-.08c-1.95,0-3.92.01-5.9.04,0,.02-.01.04-.04.04-.05.02-.1.04-.16.04h-.19v.08s-.01.05-.04.08v.08s-.05.05-.08.08c0,.01-.02.02-.04.04l-.04.02v.02l-.08.08s-.04.05-.04.08c-.05.03-.09.04-.11.04,0,.02-.01.05-.04.08,0,.03-.01.05-.04.08v.08s-.05.05-.08.08c-.03.03-.06.05-.12.08,0,.02-.01.05-.04.08-.03.02-.05.05-.08.08-.02.02-.05.04-.08.04-.03.02-.04.05-.04.08-.03.02-.05.05-.08.08-.02.02-.05.05-.08.08v.08s-.05.05-.08.08l-.08.08s-.04.05-.04.08c-.05.02-.09.04-.11.04,0,.02-.01.05-.04.08-.02.03-.05.05-.08.08-.02.02-.05.05-.08.08s-.05.05-.08.08c-.03.03-.05.05-.08.08-.03.02-.07.05-.12.08-.05.02-.09.05-.12.08-.02.02-.05.04-.08.04,0,.03-.01.05-.04.08-.03.02-.04.05-.04.08h-.04c-.05.02-.1.04-.15.04-.03.02-.04.05-.04.08-.02.03-.04.05-.04.08l-.04.04s-.05.04-.08.04-.07.01-.12.04c-.05-.03-.09-.04-.11-.04s-.04.01-.04.04c-.03.02-.04.05-.04.08h-.08s-.07.04-.12.04h-5.28c-.05-.02-.1-.04-.16-.04-.02-.02-.05-.05-.08-.08,0-.03-.01-.05-.04-.08v-.15l.02-.04h-.14v.08s-.04.01-.04.04v.08s-.04.01-.04.04c0,.03-.01.05-.04.08v.04s-.04.05-.04.08c-.02,0-.05.01-.08.04v.19s-.05.01-.08.04v.23s-.01.05-.04.08v.04s-.04.05-.04.08v.04s-.04.05-.04.08c-.02,0-.04.01-.04.04-.02.03-.04.05-.04.08-.03,0-.04.01-.04.04v.19s-.05.01-.08.04c-.02.02-.04.05-.04.08-.03,0-.04.01-.04.04v.1s-.04.05-.04.08c-.03,0-.05.01-.08.04,0,.02-.01.05-.04.08v.12s-.04.01-.04.04v.08s-.04.01-.04.04c0,.02-.01.05-.04.08v.04s-.04.05-.04.08c-.02,0-.05.01-.08.04v.08s-.04.01-.04.04v.08s-.04.01-.04.04c-.03.02-.04.05-.04.08-.02,0-.04.01-.04.04v.12s-.04.05-.04.08c-.03,0-.05.01-.08.04,0,.03-.01.05-.04.08v.04s-.04.05-.04.08c-.03,0-.04.01-.04.04v.08s-.04.01-.04.04c0,.02-.01.05-.04.08-.03.02-.04.05-.04.08-.03,0-.04.01-.04.04-.03.02-.04.05-.04.08-.02,0-.04.01-.04.04-.03.02-.04.05-.04.08-.03,0-.05.01-.08.04-.02.02-.04.05-.04.08-.02,0-.04.01-.04.04v.08s-.04.01-.04.04-.01.05-.04.08l-.04.04s-.01.05-.04.08v.04s-.04.05-.04.08c-.03,0-.04.01-.04.04v.04l-.04.08s-.04.01-.04.04v.08h-.02l-.02.04v.08s-.03,0-.04.02c-.01,0-.03,0-.04.02v.08l-.04.04-.04.08s-.05.01-.08.04c-.03.02-.04.05-.04.08-.03,0-.05.01-.08.04s-.04.05-.04.08c-.03,0-.05.01-.08.04v.08h.14s.09,0,.14,0v.08s-.05.01-.08.04v.08l-.04.04s-.01.05-.04.08v.23s-.05.01-.08.04v.08l-.04.04s-.01.05-.04.08v.42s0,.03-.02.04c-.02,0-.04.02-.06.04-.02.02-.04.05-.04.08-.02,0-.04.01-.04.04v.23s-.05.01-.08.04v.08l-.04.04s-.01.05-.04.08v.04s-.04.05-.04.08c-.03,0-.04.01-.04.04v.04c-.05.02-.09.04-.12.04s-.06.01-.11.04h-.12s-.06.01-.12.04h-.06s-.07.02-.1.04c-.02,0-.04.01-.04.04-.02.02-.04.05-.04.08-.02,0-.05.01-.08.04,0,.02-.01.05-.04.08v.12s-.05.01-.08.04c-.02.02-.05.05-.08.08v.04s-.04.05-.04.08c-.02,0-.04.01-.04.04v.31s-.05.01-.08.04v.31l-.04.04s-.01.05-.04.08v.15s-.04.05-.04.08c.05.02.09.05.12.08.03,0,.05.01.08.04v.15s-.05.05-.08.08c-.03.03-.07.04-.12.04h-.15s-.04.05-.04.08c-.02,0-.05.01-.08.04,0,.03-.01.05-.04.08l-.04.04s-.01.05-.04.08l-.04.04s-.01.05-.04.08v.04s-.04.05-.04.08c-.03,0-.04.01-.04.04h-.35v.27s.05.05.08.08l.04.04v.04s.04.05.04.08v.08s-.04.05-.04.08c-.02,0-.03,0-.04.02v.02s-.04.05-.04.08h-.04s-.1.04-.15.04c-2.49,0-4.97.01-7.44.04h-.08s-.06.01-.12.04c-.05-.02-.1-.04-.15-.04-.05-.02-.1-.04-.15-.04h-.15c-.05-.02-.1-.04-.16-.04-.02-.03-.05-.05-.08-.08-.02-.02-.05-.05-.08-.08-.02-.02-.05-.05-.08-.08-.03-.03-.05-.05-.08-.08,0-.02-.01-.05-.04-.08-.02-.02-.05-.05-.08-.08-.03-.02-.05-.04-.08-.04-.03-.02-.05-.05-.08-.08-.02-.02-.05-.05-.08-.08-.02-.03-.04-.05-.04-.08v-.35s.05-.05.08-.08c.02-.03.05-.05.08-.08h.19c.05,0,.1.01.15.04.02.02.05.05.08.08,0,.02.01.05.04.08v-.23s-.05-.05-.08-.08c0-.03-.01-.05-.04-.08,0-.02-.01-.04-.04-.04v-.08s.04-.05.04-.08l.08-.08h.04v-.19s.01-.04.04-.04c0-.02.01-.05.04-.08.01-.01.02-.02.04-.02.01-.01.02-.02.04-.02.02-.02.05-.05.08-.08.02-.02.05-.04.08-.04v-.08s.05-.04.08-.04c0-.02.01-.05.04-.08l.04-.04v-.08s.05-.04.08-.04v-.08s.01-.04.04-.04c0-.03.01-.05.04-.08v-.23s.05-.04.08-.04v-.08s.01-.04.04-.04c0-.02.01-.05.04-.08.03-.02.05-.04.08-.04v-.19s.05-.04.08-.04v-.08s.01-.04.04-.04v-.08s.01-.04.04-.04c0-.03.01-.05.04-.08v-.04s.04-.05.04-.08v-.04s.04-.05.04-.08c.03-.02.05-.04.08-.04,0-.03.01-.05.04-.08v-.12s.01-.04.04-.04v-.08s.05-.04.08-.04c.02-.02.04-.05.04-.08l.04-.04s.01-.05.04-.08v-.12s.01-.04.04-.04c0-.03.01-.05.04-.08v-.05s.04-.05.04-.08l.04-.04s.04-.05.04-.08.01-.04.04-.04v-.08s.01-.04.04-.04c0-.02.01-.05.04-.08v-.04s.04-.05.04-.08c.02-.02.05-.04.08-.04,0-.03.01-.05.04-.08,0-.02.01-.04.04-.04v-.08s.01-.04.04-.04v-.12s.04-.05.04-.08l.04-.04v-.08s.05-.04.08-.04c0-.03.01-.05.04-.08v-.04s.04-.05.04-.08v-.04s.04-.05.04-.08l.04-.04v-.08c.05-.02.09-.04.11-.04.03-.03.04-.05.04-.08s.01-.04.04-.04c0-.03.01-.05.04-.08v-.11s.01-.04.04-.04c0-.02.01-.05.04-.08v-.04s.01-.05.04-.08v-.04s.04-.05.04-.08v-.04s.04-.05.04-.08l.04-.04s.04-.05.04-.08.01-.04.04-.04c0-.02.01-.05.04-.08l.04-.04v-.08s.05-.01.08-.04v-.15s.01-.05.04-.08v-.04l.02-.02.02-.04v-.02l.04-.04s.04-.05.04-.08l.04-.04s.01-.05.04-.08v-.04s.04-.05.04-.08c.02-.02.05-.04.08-.04,0-.02.01-.05.04-.08v-.04s.04-.05.04-.08l.04-.04s.04-.05.04-.08.01-.04.04-.04v-.08s.01-.04.04-.04v-.08s.01-.04.04-.04v-.12h.02s.05-.02.1-.04v-.03s.04-.05.04-.08l.04-.04s.04-.05.04-.08l.04-.04s.01-.05.04-.08v-1.16s.05-.04.08-.04c0-.02.01-.05.04-.08,0-.03.01-.04.04-.04v-.08l.04-.04s.04-.05.04-.08l.04-.04s.01-.05.04-.08c0-.02.01-.04.04-.04v-.12s.01-.05.04-.08v-.04s.01-.05.04-.08v-.04s.04-.05.04-.08.01-.04.04-.04c0-.03.01-.05.04-.08,0-.02.01-.04.04-.04,0-.02.01-.05.04-.08.03-.03.05-.04.08-.04,0-.03.01-.05.04-.08v-.04s.04-.05.04-.08.01-.04.04-.04c0-.02.01-.05.04-.08v-.04s.01-.05.04-.08v-.04s.01-.05.04-.08c0-.02.01-.04.04-.04,0-.03.01-.05.04-.08,0-.02.01-.04.04-.04,0-.02.01-.05.04-.08,0-.02.01-.04.04-.04.02-.02.04-.05.04-.08l.04-.04s.04-.05.04-.08l.04-.04s.04-.05.04-.08c-.02-.03-.05-.04-.08-.04-.02-.02-.04-.05-.04-.08h-.19s-.07-.04-.12-.04c-.03,0-.04-.01-.04-.04h-.31c-.05-.03-.1-.04-.16-.04-.02-.02-.04-.05-.04-.08h-.5s-.06-.04-.12-.04c-.03,0-.04-.01-.04-.04h-.42c-.05-.02-.1-.04-.15-.04-.03-.02-.04-.05-.04-.08h-.39s-.06-.04-.11-.04c-.03,0-.04-.01-.04-.04h-.31c-.05-.02-.1-.04-.15-.04-.02-.02-.04-.05-.04-.08h-.31s-.06-.04-.11-.04c-.03,0-.04-.01-.04-.04h-.5c-.05-.02-.1-.04-.15-.04-.03-.03-.04-.05-.04-.08h-.39s-.06-.04-.12-.04l-.04-.04h-.23c-.05-.02-.1-.04-.15-.04-.03-.03-.04-.05-.04-.08h-.19s-.06-.04-.12-.04l-.04-.04h-.23c-.05-.02-.1-.04-.15-.04-.03-.02-.04-.05-.04-.08h-.11s-.07-.04-.12-.04c-.03,0-.04-.01-.04-.04h-.12c-.05-.03-.1-.04-.15-.04-.03-.03-.04-.05-.04-.08h-.19s-.06-.04-.12-.04l-.02-.02h-.16c-.05-.02-.1-.04-.15-.04-.03-.02-.04-.05-.04-.08h-.08s-.06-.04-.12-.04l-.04-.04h-.15c-.05-.03-.1-.04-.15-.04-.03-.03-.04-.05-.04-.08h-.08s-.06-.04-.11-.04l-.04-.04h-.15c-.05-.02-.1-.04-.16-.04-.02-.03-.06-.05-.11-.08-.03-.02-.05-.05-.08-.08h-.04c-.05-.02-.1-.04-.16-.04-.03-.03-.06-.05-.12-.08-.03-.02-.05-.05-.08-.08h-.04c-.05-.03-.1-.04-.15-.04-.03-.02-.07-.05-.12-.08-.03-.02-.05-.05-.08-.08h-.11c-.05-.03-.1-.04-.16-.04-.02-.02-.05-.05-.08-.08-.03-.02-.04-.05-.04-.08h-.04c-.05-.02-.1-.04-.16-.04-.03-.02-.04-.05-.04-.08h-.08c-.05-.02-.1-.05-.15-.08-.05,0-.09-.01-.12-.04s-.05-.05-.08-.08-.04-.05-.04-.08c-.05-.02-.09-.05-.11-.08-.03-.03-.07-.05-.12-.08-.03-.02-.05-.05-.08-.08-.03-.03-.05-.05-.08-.08-.05-.03-.1-.05-.15-.08-.05,0-.09-.01-.12-.04-.03-.03-.05-.05-.08-.08-.03-.02-.04-.05-.04-.08-.05-.03-.09-.05-.12-.08-.03-.02-.05-.05-.08-.08,0-.02-.01-.05-.04-.08-.03-.02-.05-.05-.08-.08-.05-.03-.1-.05-.15-.08-.03,0-.05-.01-.08-.04-.03-.02-.07-.05-.12-.08-.03-.02-.07-.05-.12-.08-.05-.03-.09-.05-.12-.08-.01-.01-.02-.02-.04-.04h-.27v-.19s-.05-.05-.08-.08c-.02-.02-.05-.05-.08-.08-.03-.03-.06-.05-.12-.08-.02-.02-.06-.05-.12-.08-.02-.03-.05-.05-.08-.08-.03-.02-.05-.05-.08-.08l-.04-.04s-.04-.05-.04-.08v-.04s-.05-.01-.08-.04c-.02-.02-.05-.04-.08-.04-.03-.02-.04-.05-.04-.08v-.08s-.03-.05-.03-.07c-.03-.03-.05-.05-.08-.08v-.08s-.05-.05-.08-.08c0-.03-.01-.05-.04-.08,0-.02-.01-.04-.04-.04-.03-.03-.04-.05-.04-.08v-1.16s.01-.05.04-.08c.03-.03.04-.05.04-.08s.01-.05.04-.08v-.66s.04-.05.04-.08.01-.05.04-.08v-.04s.05-.05.08-.08c.02-.03.05-.05.08-.08,0-.03.01-.05.04-.08v-.08s.05-.05.08-.08c.03-.03.05-.05.08-.08.03-.03.04-.05.04-.08.02-.03.05-.04.08-.04,0-.03.01-.05.04-.08,0-.03.01-.05.04-.08,0-.03.01-.05.04-.08v-.15s.05-.05.08-.08c0-.03.01-.05.04-.08v-.35s.04-.05.04-.08c0-.02.01-.05.04-.08v-.69s.05-.05.08-.08c0-.02.01-.05.04-.08v-.15s.04-.05.04-.08.01-.05.04-.08v-.08s.05-.04.08-.04c.02-.03.06-.05.12-.08,0-.03.01-.05.04-.08.03-.03.05-.05.08-.08.03-.03.06-.05.12-.08ZM51.12,14.15c-1.18.03-2.38.04-3.59.04v.69s.04.05.04.08c.02.02.04.05.04.08.02.03.04.05.04.08v.12s.05.05.08.08c.03.03.05.05.08.08l.08.08h.04l.04.04v.04s.04.01.04.04l.04.04v.08s.1.05.16.08h1.66l.04-.04c.05-.02.09-.04.12-.04.02-.02.04-.05.04-.08h.04s.05-.01.08-.04c.08,0,.14-.01.19-.04.02-.02.05-.05.08-.08.03-.03.05-.05.08-.08.02-.02.04-.05.04-.08.02-.03.05-.05.08-.08v-.04s.04-.05.04-.08c.02-.03.05-.05.08-.08.02-.02.05-.05.08-.08v-.08s.05-.05.08-.08c0-.02.01-.05.04-.08v-.12s.04-.05.04-.08c.03-.02.05-.05.08-.08l.08-.08h.08v-.04s-.01-.05-.04-.08c0-.02-.01-.05-.04-.08v-.04h0ZM46.3,14.84v-.08s-.01.05-.04.08c-.02.03-.05.05-.08.08-.02.02-.05.05-.08.08v.04h-.04v.04l-.04.04v.04h-.04v.04s-.03.03-.04.04v.04h-.04s-.04.05-.04.08c-.01.01-.02.02-.04.04-.01.01-.02.03-.04.04,0,.02-.01.05-.04.08v.04h-.02s0,.03-.02.04v.04s-.04.05-.04.08v.08h.89v-.15s-.05-.01-.08-.04c-.02-.02-.05-.05-.08-.08,0-.02-.01-.05-.04-.08v-.15s-.05-.05-.08-.08v-.27s0-.05,0-.08ZM23.71,10.08v-.15h-.06l.02.02v.12l.04.02ZM28.39,11.08s.09.02.14.02v-.02h-.14Z"/>
    </g>
  </g>
  <path id="Layer0_0_1_STROKES" class="st1" d="M18.64,19.86c.41-.15.38-.42-.08-.82-.92-.78-1.28-1.51-1.1-2.19.09-.33.41-.77.96-1.3.32-.31.86-.8,1.62-1.49.64-.63,1.1-1.21,1.35-1.73.34-.67.4-1.34.19-1.98-.38-1.18-1.65-1.86-3.8-2.05-.58-.05-1.53-.09-2.85-.09-1.25-.01-2.16-.05-2.73-.11-1.66-.19-3.32-.61-4.98-1.28-1.67-.67-2.95-1.38-3.85-2.15-.9-.76-1.85-1.84-2.85-3.22-.13,3.93,1.51,6.78,4.9,8.56-1.59.16-3.12-.31-4.61-1.41,1.14,3.08,3.47,4.8,6.98,5.16-.96.7-2.28.8-3.93.31,1.53,1.95,4.24,2.87,8.15,2.75-.76.67-1.7,1.05-2.82,1.15,1.64,1.12,3.85,1.39,6.64.83.98.71,1.92,1.06,2.82,1.05Z"/>
</svg>