<?xml version="1.0" encoding="UTF-8"?>
<svg id="Layer_1" xmlns="http://www.w3.org/2000/svg" version="1.1" viewBox="0 0 114.13 39.13">
  <!-- Generator: Adobe Illustrator 30.2.1, SVG Export Plug-In . SVG Version: 2.1.1 Build 1)  -->
  <defs>
    <style>
      .st0 {
        fill-rule: evenodd;
      }

      .st0, .st1 {
        fill: #fff;
      }

      .st1 {
        stroke: #000;
        stroke-linecap: round;
      }
    </style>
  </defs>
  <path class="st0" d="M112.39,10.17c0,.57-.08,1.22-.25,1.95-.07.37-.15.68-.25.95h-27.1v.8l-.3.4h-24.65v-1.1h-1c-.17.1-.18.37-.05.8l.7,2.15h.35l.1.35-.6.25.15.55c.17.43.35.93.55,1.5.67,1.73,1.53,3.62,2.6,5.65,1.03,2.03,2.48,4.42,4.35,7.15.9,1.33,1.72,2.48,2.45,3.45l-3.7,2.85c-.7-.9-1.52-2.02-2.45-3.35-1.83-2.73-3.32-5.22-4.45-7.45-1.13-2.27-2.12-4.38-2.95-6.35l-.95-2.3-.35.1h-1.35l-.4,2.1h-.3l.3-2h-1.45l-.35.35-1.75,3.5c-.1.27-.32.42-.65.45h-5.5c-.47-.03-.87-.15-1.2-.35l-.2.15c-.13.17-.23.33-.3.5-.07.13-.12.35-.15.65-.03.3-.1.53-.2.7-.03.1-.13.28-.3.55-.2.23-.35.48-.45.75-.1.3-.17.58-.2.85,0,.33-.03.57-.1.7-.03.17-.17.42-.4.75-.2.33-.35.63-.45.9-.07.2-.12.5-.15.9-.03.3-.08.53-.15.7-.1.23-.27.47-.5.7-.17.13-.3.23-.4.3l-5.95-3.25c.03-.3.13-.7.3-1.2.33-1,.73-2.02,1.2-3.05.43-.87.97-1.73,1.6-2.6.3-.4.5-.67.6-.8.13-.27.25-.5.35-.7.2-.6.32-1.12.35-1.55.07-.57-.02-1.03-.25-1.4-.2-.33-.48-.6-.85-.8-.2-.07-.35-.13-.45-.2-.13-.03-.22-.08-.25-.15-.1-.1-.17-.2-.2-.3h-3.8c-.33,0-.6-.25-.8-.75l-.6-2.9-.25-.05-.1.35.65,2.15-.3.55h-1.55l-.35-.65,1-2-.05-.45-.4.2c-.3.27-.53.57-.7.9-.2.37-.35.73-.45,1.1-.07.17-.1.3-.1.4l-.55,3.4c-.37,2.23-.62,3.42-.75,3.55-.13.1-.27.22-.4.35-.07.07-.17.1-.3.1-.23.03-.5.03-.8,0-.4-.07-.67-.18-.8-.35-.17-.17-.27-.32-.3-.45-.03-.07-.02-.23.05-.5,0-.03.12-.78.35-2.25.23-1.37.38-2.4.45-3.1.03-.43.05-1.75.05-3.95v-2.7c-.03-.5,0-.85.1-1.05.17-.17.37-.25.6-.25.27-.03.93.03,2,.2.53.13,1.05.25,1.55.35h1.35l.05-.8c.1-.33.2-.68.3-1.05.27-.7.45-1.13.55-1.3.13-.13.27-.22.4-.25h3.8l.35.15h1.75l.05-1.4c.1-.33.25-.57.45-.7.2-.13.4-.18.6-.15h.5l.2.75.4-1,2.1.9-.45.8.45.75h18.9l.4.05h22.75v-.5h-.3V1.72l.2-.25h.85l.7,1.95v1.2h.45l.35.5v1.7h-.3v.55h27.25l.2.9c.13.7.2,1.34.2,1.9ZM49.84,18.97l-.35-.35h-4.05l-.2.4c-.13.27-.23.53-.3.8-.03.23,0,.53.1.9.07.33.13.58.2.75l.05.5-.4-.2c-.3-.43-.5-.87-.6-1.3-.07-.4-.12-.83-.15-1.3v-.55h-1l-.45,1.05c-.27.7-.42,1.1-.45,1.2-.03.23-.03.53,0,.9.27.27.62.45,1.05.55h5.05c.2-.03.35-.17.45-.4l1.05-2.95Z"/>
  <path id="Layer0_0_1_STROKES" class="st1" d="M18.95,20.77c.41-.15.38-.42-.08-.82-.92-.78-1.28-1.51-1.1-2.19.09-.33.41-.77.96-1.3.32-.31.86-.8,1.62-1.49.64-.63,1.1-1.21,1.35-1.73.34-.67.4-1.34.19-1.98-.38-1.18-1.65-1.86-3.8-2.05-.58-.05-1.53-.09-2.85-.09-1.25-.01-2.16-.05-2.73-.11-1.66-.19-3.32-.61-4.98-1.28-1.67-.67-2.95-1.38-3.85-2.15-.9-.76-1.85-1.84-2.85-3.22-.13,3.93,1.51,6.78,4.9,8.56-1.59.16-3.12-.31-4.61-1.41,1.14,3.08,3.47,4.8,6.98,5.16-.96.7-2.28.8-3.93.31,1.53,1.95,4.24,2.87,8.15,2.75-.76.67-1.7,1.05-2.82,1.15,1.64,1.12,3.85,1.39,6.64.83.98.71,1.92,1.06,2.82,1.05Z"/>
</svg>