<?xml version="1.0" encoding="UTF-8"?>
<svg id="_Слой_1" data-name="Слой_1" xmlns="http://www.w3.org/2000/svg" version="1.1" viewBox="0 0 71.42 32">
  <!-- Generator: Adobe Illustrator 30.2.1, SVG Export Plug-In . SVG Version: 2.1.1 Build 1)  -->
  <defs>
    <style>
      .st0 {
        fill-rule: evenodd;
      }

      .st0, .st1 {
        fill: #fff;
      }

      .st1 {
        stroke: #000;
        stroke-linecap: round;
      }
    </style>
  </defs>
  <g id="Selected_Items">
    <g id="Selected_Items1" data-name="Selected_Items">
      <path class="st0" d="M50.36,10.28v-.09h-3.42v.26s.04.06.04.09v.05l.04.04v.04c.06.03.11.06.17.09.03.03.06.06.09.09.03.03.04.06.04.08v.04s.06.05.08.05c0,.03.01.06.04.09,0,.03.01.06.04.09,0,.03.01.04.04.04.03.03.04.06.04.09.03.03.04.06.04.09v.09l.04.04v.04s.06.06.09.09c0,.03.02.06.04.09.03.03.06.06.09.09v.04h.04v.05s.06.06.09.09v.09l.04.05v.04s.06.02.08.04c0,.03.01.06.04.09h1.17s.04-.02.04-.04c.03,0,.06-.01.08-.04v-.04h.09v-.09s.06-.06.09-.09c.06,0,.1-.02.13-.04,0-.03.01-.06.04-.09v-.13s.01-.06.04-.09v-.13s.04-.02.04-.04c.03-.03.04-.06.04-.09.03-.03.06-.06.09-.09,0-.03.01-.06.04-.09v-.04s.04-.06.04-.09.01-.06.04-.09c.03,0,.06-.02.09-.05.03-.03.06-.04.09-.04v-.39s.01-.06.04-.09c0-.03-.02-.06-.04-.09,0-.03,0-.06,0-.09ZM66.44,6.39s.04.06.04.09c0,.03.01.04.04.04h.61v.04h3.94l.21.22v2.33l-.26.26h-3.63v.09c-.17,0-.36.01-.56.04l-.04.04s-.07.07-.13.13c-.03,0-.06.02-.09.04.03.03.04.06.04.09.03.03.04.06.04.09s.01.06.04.09v.39s-.04.06-.04.09c-.03.03-.06.06-.09.09v.35l-.04.04s-.04.06-.04.09c-.06.03-.11.04-.17.04s-.12-.01-.17-.04c-.03-.03-.04-.06-.04-.09-.03,0-.06-.01-.09-.04l-.04-.04s-.01-.06-.04-.09c0-.03-.01-.06-.04-.09,0-.03-.01-.06-.04-.09l-.04-.05s-.06-.06-.09-.09c-.03-.03-.06-.06-.09-.09s-.04-.06-.04-.09h-.09s-.06-.06-.09-.09c-.03-.03-.06-.06-.08-.09,0-.03-.02-.06-.04-.09,0-.03-.03-.04-.09-.04-.03-.03-.04-.06-.04-.09-.03-.03-.06-.06-.09-.09s-.06-.06-.08-.09l-.09-.09s-.01-.06-.04-.09h-.04c-.06,0-.12-.02-.17-.04l-.04-.04h-.13c-.03.06-.06.1-.09.13-.03.06-.04.1-.04.13-.03.03-.07.07-.13.13-.06.06-.12.1-.17.13-.06.03-.13.07-.22.13-.06,0-.1.02-.13.05h-.04v.04s-.01.06-.04.09h-.13c-.06.03-.1.06-.13.09,0,.03-.02.06-.04.09v.09s-.02.05-.04.05v.09s-.06.02-.09.04v11.14s-.02.06-.04.09l-.04.04v.09s-.06.01-.09.04l-.04.04h-.35s-.06-.04-.09-.04c-.15,0-.29-.01-.43-.04-.06,0-.11-.01-.17-.04-.06-.03-.08-.06-.08-.09h-.09s-.04-.01-.04-.04c-.06,0-.11-.01-.17-.04-.03,0-.04-.01-.04-.04-.06,0-.12-.01-.17-.04h-.13v-.05c-.06,0-.11-.01-.17-.04-.06,0-.12-.01-.17-.04l-.04-.04h-.26s-.06-.05-.09-.05c-.03,0-.06-.01-.09-.04-.06,0-.1-.01-.13-.04-.06-.03-.1-.06-.13-.09-.06-.03-.12-.06-.17-.09h-.04c-.06-.03-.1-.06-.13-.09-.06-.03-.1-.06-.13-.09,0-.03-.01-.06-.04-.09-.03-.03-.06-.04-.09-.04-.03-.03-.04-.06-.04-.08-.03-.03-.06-.06-.08-.09-.03-.03-.04-.06-.04-.09-.03,0-.06-.01-.09-.04-.03,0-.06-.01-.08-.04,0-.03-.01-.06-.04-.09,0-.03-.01-.06-.04-.09,0-.03-.01-.06-.04-.08,0-.03-.01-.04-.04-.04v-.09s-.01-.06-.04-.09v-.04s-.06-.06-.08-.09l-.04-.04v-.09s-.04-.06-.04-.08-.01-.06-.04-.09v-2.28s.04-.06.04-.09c.03-.03.04-.06.04-.09v-.73s.04-.06.04-.09c.03-.03.04-.06.04-.09.03-.03.04-.06.04-.09v-6.05c-.06-.03-.1-.04-.13-.04h-6.7s-.01.04-.04.04l.04.04s.04.06.04.09v.69s-.06.06-.09.09v.3c-.06.03-.12.06-.17.09-.03,0-.06.01-.09.04-.03.03-.06.04-.09.04-.03.03-.04.06-.04.09-.03.03-.06.06-.08.09-.06.03-.1.06-.13.09v.05s-.04.06-.04.09v.17s-.06.06-.09.09v.52s-.04.01-.04.04c-.03.03-.06.06-.09.09v.08s-.01.06-.04.09c0,.03-.01.04-.04.04v.17s-.01.04-.04.04c-.03.03-.07.06-.13.09l-.04.04s-.06.06-.09.09c-.03.03-.07.04-.13.04-.12.03-.25.06-.39.09-.03,0-.06.02-.09.05h-1.38l-.04.04h-.13c-1.04.03-2.08.06-3.11.09-.03,0-.06.01-.09.04h-.3s-.01.04-.04.04c-.03.03-.06.06-.08.09l-.05.05h-.04v1.55s-.04.02-.04.04-.01.06-.04.09v1.9s.04.06.04.09c0,.03.02.06.04.09v.82s.04.06.04.09l.05.04s.01.06.04.09v.43s.04.06.04.09l.04.04v.65s.01.06.04.08v.09s.05.06.05.09v.6l-.05.04s-.04.06-.04.09c-.03.03-.06.04-.08.04v.17l-.04.04v.09s-.06.06-.09.08v.73h.09s.01.06.04.09v.82l.04.05s.04.06.04.08v.56s.01.06.04.08c0,.03.02.04.05.04v.52s.06.04.09.04v.48s.06.06.08.08h.04v.56s.02.04.04.04v.52s.06.04.09.04c0,.03.01.06.04.08v.48s.06.06.08.09v.43l.04.04s.01.06.04.09v.3s.05.06.05.08l.04.05v.13s.04.06.04.08c.03.03.05.06.05.09l.04.04v.26s.06.04.08.04v.05s.04.06.04.08.01.06.04.08v.13s.04.06.04.09c.03.03.04.06.04.09.03.03.06.04.09.04,0,.03.01.04.04.04v.17s.01.06.04.09v.09h.04c.06,0,.12.01.17.04.03.03.04.06.04.08s.01.05.04.05v.95s.04.06.04.09l.04.04v.13s-.06.06-.09.09c-.03.03-.04.06-.04.09h-1.6s-.07.01-.13.04h-.04c-.08.03-.16.04-.22.04-.03.03-.07.06-.13.08h-.04s-.07.04-.13.04h-1.73c-.06-.03-.13-.04-.22-.04-.06-.03-.11-.06-.17-.08v-.04c-.06-.03-.12-.04-.17-.04h-1.08v-.04h-.06c-.06,0-.12-.01-.17-.04-.03-.03-.06-.06-.09-.09,0-.03-.02-.06-.04-.09v-.04s-.06-.02-.09-.04c0-.03-.01-.06-.04-.09v-.17h0s-.06-.06-.09-.09v-.13s-.06-.06-.09-.08v-.35s-.06-.06-.09-.08v-.13s-.01-.04-.04-.04c0-.03-.01-.06-.05-.09,0-.03-.01-.06-.04-.09v-.22l-.04-.04s-.01-.06-.04-.09v-.3s-.06-.06-.09-.08v-.26s-.04-.06-.04-.09c0-.03-.02-.04-.04-.04v-.26s-.06-.01-.09-.04l-.04-.05v-.3s-.01-.06-.04-.09v-.17s-.01-.06-.04-.09c0-.03-.01-.06-.04-.09,0-.03-.01-.06-.04-.08v-.39s-.04-.06-.04-.09-.01-.06-.04-.09v-.57s-.04-.06-.04-.09c0-.03-.01-.06-.04-.09v-.35s-.04-.02-.04-.04-.01-.06-.04-.09v-.34s-.01-.06-.04-.09c0-.03-.02-.06-.04-.09l-.04-.04v-.17l-.04-.04s-.01-.04-.04-.04v-.65s-.01-.06-.04-.09c0-.03-.01-.06-.04-.08v-2.33h-.3s-.06-.02-.09-.05c-.03,0-.06-.01-.09-.04h-.04c-.06,0-.11-.01-.17-.05-.03-.03-.06-.06-.09-.08-.03-.03-.06-.06-.09-.09v-.3s-.02-.06-.05-.08c0-.03-.01-.06-.04-.09v-.56s-.06-.06-.09-.09v-3.28s.04-.01.04-.04c.03-.03.04-.06.04-.09v-.65h.04v-.09s.05-.06.05-.09v-.39s.06-.02.09-.05v-.22s.04-.06.04-.09c.03-.03.06-.06.09-.09v-.13s.06-.02.09-.04v-.3s.04-.06.04-.09.01-.06.04-.08v-.09h.09v-.26s.04-.06.04-.09c.03,0,.06-.01.09-.05v-.22l.04-.04v-.95s.06-.06.08-.09l.04-.04v-.39s-.04-.06-.04-.09c-.03,0-.06-.02-.08-.04v-.34s-.04-.06-.04-.09c-.03-.03-.06-.06-.09-.09-.03-.03-.06-.04-.09-.04l-.04.04v.09s-.02.06-.04.09v.04s-.06.06-.09.09c-.03,0-.06.01-.09.04l-.04.04h-.13s-.09-.01-.17-.04c-.03-.03-.07-.04-.13-.04h-.13c-.95.03-1.93.06-2.94.09-.03.03-.04.06-.04.09-.03,0-.04.02-.04.04h-.13c-.06,0-.12-.02-.17-.04,0-.03-.02-.06-.04-.09-.03-.03-.06-.06-.09-.09l-.04-.04s-.02-.04-.04-.04c0-.03-.01-.06-.05-.09v-.04l-.04-.04s-.06-.02-.09-.04h-5.58c-.06,0-.12-.02-.17-.04-.03-.03-.06-.04-.09-.04-.03-.03-.06-.06-.09-.09v-.22s-.06-.01-.09-.04c-.03,0-.06-.01-.09-.04-.03-.03-.06-.06-.09-.09,0-.03-.01-.06-.04-.09v-.13s-.01-.06-.04-.09v-.17h-.09s-.04.02-.04.04v.17s-.04.06-.04.09v.04s-.01.06-.04.09v.13s-.01.06-.05.08v.13s-.04.06-.04.09v.09s-.04.01-.04.04v.43s-.01.06-.04.09v.09h-.06s-.01.06-.04.09v.22s-.01.06-.04.09v.26s-.06.06-.09.09c-.06.06-.12.12-.17.17-.03,0-.04.03-.04.09-.03.06-.04.12-.04.17s-.01.1-.04.13c-.03.06-.04.12-.04.17-.03.03-.04.06-.04.09-.06.06-.1.12-.13.17v.13c-.03.06-.04.11-.04.17v.13c-.06.03-.1.07-.13.13-.03.06-.05.11-.05.17-.03.03-.07.07-.13.13v.13c-.03.06-.06.1-.09.13-.03.06-.06.11-.09.17,0,.06-.02.1-.04.13v.17l-.04.05s-.04.06-.04.09c-.03.03-.04.07-.04.13-.03.06-.06.11-.09.17-.03,0-.06.02-.09.04l-.04.04v.04s-.06.06-.09.09v.09l-.04.04v.09s-.01.06-.04.09c0,.03-.02.04-.04.04-.03.03-.04.06-.04.09-.03,0-.06.01-.09.04v.08s-.01.06-.04.09v.09s-.06.01-.09.04c-.03.03-.04.06-.04.09-.03,0-.06.01-.09.04-.06,0-.09.02-.09.04-.03.03-.04.06-.04.09h-.09s-.02.04-.04.04h-.43s-.07.02-.13.05c-.11,0-.22.01-.3.04h-.22c-.14-.03-.27-.06-.39-.09-.09-.03-.16-.04-.22-.04-.09-.03-.17-.05-.26-.05-.06,0-.12-.01-.17-.04,0-.03-.01-.06-.04-.09-.03-.03-.06-.06-.09-.09V5.39h.04l-.05-.04v-.13s.04-.06.04-.09c.03-.03.06-.06.09-.09.03-.03.06-.06.09-.09l.09-.09s.01-.06.04-.09c.03-.03.04-.06.04-.09.03-.03.04-.06.04-.09.03,0,.06-.02.09-.04l.04-.05c.06-.03.1-.04.13-.04.09-.03.15-.06.17-.09.06,0,.13-.01.22-.04.03,0,.04-.02.04-.05h.13c.09-.03.16-.04.22-.04v-.05h.09c.06.03.12.06.17.09.03,0,.04.01.04.05,0,.03.02.04.04.04v.09h2.34s-.03-.03-.04-.04c0-.03-.01-.06-.04-.09v-.04s-.06-.06-.09-.09v-.52s.06-.04.09-.04v-.05s.04-.06.04-.08c.03-.03.05-.06.05-.09.03-.03.04-.06.04-.09.03,0,.04-.02.04-.05,0-.03.01-.06.04-.09.03,0,.06-.02.09-.04.03,0,.07-.02.13-.05.03,0,.06-.01.09-.04v-.39s.04-.06.04-.09c.06-.03.1-.06.13-.08.03-.03.07-.06.13-.09l.05-.04h.52s.07.01.13.04c.03.03.06.05.09.05.06.03.11.06.17.09,0,.03.01.06.04.09.03.03.07.04.13.04h.13v.04c.09-.03.16-.04.22-.04.03,0,.06-.01.09-.04.03,0,.06-.01.09-.04.03,0,.07-.01.13-.04h.13s.03.06.09.09c0-.03.01-.06.05-.09v-.09s.06-.02.09-.05l.04-.04s.06-.06.09-.09c.03-.03.05-.06.05-.09.03-.03.06-.06.09-.09l.04-.04v-.17s.06-.02.09-.04v-.09s.06-.04.08-.04c.03-.03.06-.05.09-.05,0-.03.01-.04.04-.04.06-.03.1-.04.13-.04.06-.03.12-.04.18-.04v-.04h.04s.04-.02.04-.04c.03,0,.04-.01.04-.04h30.7s.01-.04.04-.04h.08v-.04h.09c.06.03.12.06.17.09.06,0,.12.01.17.04.03.03.06.04.09.04.06.03.1.06.13.08.03.03.07.06.13.09l.04.05s.06.06.09.09c.03.03.06.06.09.09v.09s.04.06.04.09c.06.03.1.06.13.09.03.03.04.06.04.09.03.03.06.06.09.09,0,.03.03.04.09.04,0,.03.01.04.04.04v.05h.13s.06.04.09.04c.03,0,.04.02.04.04h.65s.01-.04.04-.04.07-.02.13-.04h.17s.07.04.13.04c.03,0,.04.02.04.04h.09c.06.03.12.06.17.09l.04.04c.06,0,.1.02.13.04h.04c.06.03.12.06.17.09v.04c.06.03.11.06.17.09,0,.03.01.06.04.09h.09v.43c.03.06.07.12.13.17l.04.09c0,.06.01.12.04.17v.3s-.04.06-.04.09h.13s.07.01.13.05c0,.03.02.04.04.04.03.03.06.06.09.09.03.03.04.06.04.09s.01.04.04.04v.13s-.01.06-.04.09v.09l-.04.04v.3s.01.07.04.13c0,.06.03.11.09.17l.04.09c0,.06.01.12.04.18v.3l-.04.04h.04c.06.03.12.06.17.09,0,.03.01.04.04.04.06.03.11.06.17.09ZM45.77,11.62s-.04-.06-.04-.09c-.03,0-.06-.02-.09-.04-.03-.03-.04-.06-.04-.09v-.09s-.04-.06-.04-.09c0,.03-.01.06-.04.09v.3s.02.06.04.09v.09s.01.04.04.04v.35s.06.06.08.09v.04h.65s-.06-.02-.09-.04c-.03-.03-.06-.06-.09-.09-.03,0-.04-.02-.04-.04-.03-.03-.06-.06-.08-.09s-.04-.06-.04-.09v-.09s-.04-.02-.04-.04c-.03,0-.06-.02-.09-.04-.03-.03-.06-.06-.08-.09,0-.03,0-.06,0-.09ZM23.15,7.12v1.34s.04-.06.04-.09v-1.69s-.01-.06-.04-.09v.52Z"/>
    </g>
  </g>
  <path id="Layer0_0_1_STROKES" class="st1" d="M18.45,20.36c.41-.15.38-.42-.08-.82-.92-.78-1.28-1.51-1.1-2.19.09-.33.41-.77.96-1.3.32-.31.86-.8,1.62-1.49.64-.63,1.1-1.21,1.35-1.73.34-.67.4-1.34.19-1.98-.38-1.18-1.65-1.86-3.8-2.05-.58-.05-1.53-.09-2.85-.09-1.25-.01-2.16-.05-2.73-.11-1.66-.19-3.32-.61-4.98-1.28-1.67-.67-2.95-1.38-3.85-2.15-.9-.76-1.85-1.84-2.85-3.22-.13,3.93,1.51,6.78,4.9,8.56-1.59.16-3.12-.31-4.61-1.41,1.14,3.08,3.47,4.8,6.98,5.16-.96.7-2.28.8-3.93.31,1.53,1.95,4.24,2.87,8.15,2.75-.76.67-1.7,1.05-2.82,1.15,1.64,1.12,3.85,1.39,6.64.83.98.71,1.92,1.06,2.82,1.05Z"/>
</svg>