<?xml version="1.0" encoding="UTF-8"?>
<svg id="_Слой_1" data-name="Слой_1" xmlns="http://www.w3.org/2000/svg" version="1.1" viewBox="0 0 96.66 32">
  <!-- Generator: Adobe Illustrator 30.2.1, SVG Export Plug-In . SVG Version: 2.1.1 Build 1)  -->
  <defs>
    <style>
      .st0 {
        fill-rule: evenodd;
      }

      .st0, .st1 {
        fill: #fff;
      }

      .st1 {
        stroke: #000;
        stroke-linecap: round;
      }
    </style>
  </defs>
  <g id="Selected_Items">
    <g id="Selected_Items1" data-name="Selected_Items">
      <path class="st0" d="M55.12,2.09s.07-.06.12-.08v-.34c.17.03.34.04.51.04v.08c.17,0,.33.01.5.04v.08s.07.01.13.04v.08c.06,0,.1.02.13.04v.13s.06.03.08.08c.03.03.06.06.08.08.06.03.1.06.13.09.06.03.1.07.12.12l.04.04c.11.03.22.06.34.08v.08s.07.04.13.04v.08h31.13c.06.03.12.06.21.08.03.03.06.06.08.08.03.03.07.06.13.09l.04.08s.04.07.04.13c.03.03.04.06.04.08v.04h.04c.03.06.06.1.08.12.03.03.17.52.42,1.47.28.98.53,1.47.76,1.47h1.3l.25-.08h.25v-.04h1.22l.29.04.25.08h1.81l.17.08.08.13.46.04-.04,4.03-.04.08-.04.13-.17.17h-.17l-.21-.04v.04h-3.7l1.64,3.69v.21s.01.07.04.12v1.17s-.56.04-1.68.04c-.05-.03-.6-1.02-1.64-2.98-.45.03-.9.06-1.34.08-.08,0-.16.01-.21.04h-.29s-.01.06-.04.08c0,.06-.01.08-.04.08v.21s-.01.06-.04.08c0,.06-.01.1-.04.12v2.64s.06.06.08.08v1.09s.04.06.04.08c.03.03.06.06.08.08,0,.06.01.1.04.13v.96s.01.04.04.04c0,.06.01.1.04.13,0,.03.02.06.04.08v.21s.02.06.04.08c0,.06.01.1.04.12v.17s.04.06.04.08c.03.06.04.1.04.13.03.03.04.06.04.08.03.03.04.06.04.08v.08c.03.06.06.1.08.12,0,.03.01.06.04.09v.21s.01.06.04.08v.12s.04.03.04.08c.03.03.04.06.04.08.03.03.04.06.04.08.03.06.04.1.04.13.03,0,.04.03.04.08v.08s.06.06.08.08c0,.06.01.1.04.12v.38s.06.06.08.08v.29s.06.07.08.13c.03,0,.04.03.04.08.03.03.04.06.04.08v.21s.04.06.04.08.01.06.04.08c.03.06.06.08.08.08v.29c.03.06.06.1.08.13v.25c0,.06.01.1.04.13.03.03.06.06.08.08v.29s.04.05.04.08c.03.03.06.07.08.13,0,.03.01.06.04.08v.17s.01.07.04.13c0,.03.01.06.04.08v.42l.04.04c.03.06.06.1.08.13s.04.06.04.08v2.31c0,.06-.01.1-.04.13v.04s.04.07.04.13v.04c-.03.06-.06.1-.08.12,0,.06-.01.08-.04.08-.03.03-.04.06-.04.08-.03,0-.04.01-.04.04-.11.03-.2.06-.25.08-.08,0-.15.02-.21.04-.06.03-.1.06-.13.08-.03.03-.08.04-.17.04-.06.03-.13.04-.21.04-.03.03-.06.06-.08.08-.06,0-.11.01-.17.04-.14,0-.28.02-.42.04h-.08c-.06.03-.11.04-.17.04-.2,0-.38.01-.55.04-.06.03-.12.06-.21.08-.48.03-.95.04-1.43.04-.03.03-.06.06-.08.08-.06,0-.11.01-.17.04-.28.03-.56.06-.84.08-.03,0-.06.01-.08.04-.08.03-.15.06-.21.08-.08-.03-.15-.06-.21-.08s-.1-.04-.13-.04h-.04c-.08,0-.15-.01-.21-.04-.08-.06-.14-.1-.17-.12-.03-.03-.07-.06-.12-.08-.03-.03-.06-.07-.08-.12v-.04c-.03-.06-.04-.1-.04-.13v-.08s-.04-.07-.04-.13c-.03-.03-.06-.04-.09-.04v-.21s-.06-.07-.08-.13c-.03-.03-.06-.05-.08-.08,0-.03-.01-.06-.04-.09v-.12l-.04-.08v-.17c-.03-.06-.06-.1-.08-.12-.03-.03-.05-.06-.08-.08v-.17c0-.06-.01-.1-.04-.12-.03-.06-.06-.08-.08-.08,0-.03-.01-.07-.04-.13v-.17c0-.06-.01-.1-.04-.12v-.46s-.06-.07-.08-.12c-.03,0-.06-.01-.08-.04-.03-.02-.05-.06-.05-.09-.03-.03-.06-.06-.08-.08,0-.03-.01-.07-.04-.13v-.38s-.01-.06-.04-.09c0-.03-.01-.06-.04-.08v-.5s-.06-.06-.09-.08c-.03-.03-.04-.07-.04-.13v-.75s-.04-.06-.04-.08c-.03-.03-.04-.06-.04-.08,0-.06-.01-.1-.04-.12v-1.34s-.01-.06-.04-.08c-.03-.03-.06-.06-.08-.08-.03-.03-.04-.07-.04-.13v-1.51s-.06-.07-.08-.13v-1.8c-.03-.06-.04-.1-.04-.13-.03,0-.06-.03-.08-.08v-1.82c0-.06-.01-.1-.04-.13s-.07-.04-.13-.04c0-.03-.01-.07-.04-.13v-.29c-.06-.03-.1-.07-.12-.12-.03-.03-.06-.04-.08-.04v-.34s-.01-.04-.04-.04c-.03-.03-.06-.06-.08-.08l-.08-.04c-.11-.03-.19-.06-.25-.08-.03,0-.07-.03-.12-.08v-.04s-.06-.04-.08-.04c-.08,0-.17-.01-.25-.04h-.71c-.06,0-.13.02-.21.04,0,.06-.01.1-.04.13-.08.03-.14.06-.17.09-.06.03-.11.07-.17.12,0,.03-.01.04-.04.04v.13c-.06.06-.1.08-.13.08-.03.03-.06.07-.08.13-.06.03-.1.06-.13.08-.06.03-.08.06-.08.08l-.04.09c-.06.03-.1.07-.13.12-.03.03-.07.06-.13.08-.03.03-.06.06-.08.08l-.04.08c-.06,0-.12.03-.21.08-.03.03-.07.07-.13.13-.03,0-.06.02-.08.04,0,.06-.01.1-.04.13-.05.03-.1.06-.12.08s-.06.07-.08.12c-.03.03-.06.04-.08.04-.06.06-.12.1-.21.12-.03.06-.06.09-.08.09-.03.03-.07.07-.13.12-.06.03-.1.06-.12.08-.03.03-.06.06-.08.08-.03.06-.06.1-.08.12l-.08.08s-.06.06-.08.09c-.08.03-.17.04-.25.04-.06.03-.11.06-.17.08-.03.06-.06.1-.08.13-.03,0-.07.03-.13.08-.08.03-.17.06-.25.08-.11.03-.21.06-.29.08-.08.06-.14.1-.17.12-.05,0-.11.03-.17.08-.06.03-.11.06-.17.08-.11,0-.21.01-.29.04h-.25c-.22.03-.46.06-.72.08-.08.03-.15.06-.21.08h-1.76c-.06-.03-.14-.06-.25-.08-.14-.03-.29-.06-.46-.08h-.21c0-.06-.03-.1-.08-.13-.03-.06-.07-.08-.13-.08,0-.03-.01-.07-.04-.12-.06-.03-.1-.06-.12-.08-.06-.03-.14-.06-.25-.08,0-.06-.03-.08-.08-.08-.06-.03-.1-.07-.12-.13-.03-.03-.07-.06-.13-.08,0,.03-.01.06-.04.08-.03.06-.04.1-.04.13-.03,0-.06.03-.08.08v.08s-.04.06-.04.08c-.03.06-.04.1-.04.12-.03,0-.06.03-.08.08,0,.03-.01.07-.04.13-.03,0-.06.01-.08.04v.21s-.04.07-.04.12l-.04.04c-.03.06-.04.1-.04.13-.03.03-.06.06-.08.08v.29c0,.06-.01.1-.04.12l-.04.09-.08.08v.29s-.04.06-.04.08c0,.06-.01.08-.04.08-.03.06-.04.1-.04.12-.03.03-.04.06-.04.09-.03.03-.06.07-.08.12v.17s-.01.07-.04.12c-.03,0-.06.03-.08.08,0,.03-.01.06-.04.08v.08c-.03.06-.04.1-.04.13v.54l-.04.08c-.03.06-.04.1-.04.13-.03.03-.06.06-.09.08v.59s-.04.06-.04.08-.01.07-.04.12c-.03.03-.06.06-.08.08v.59s-.04.06-.04.08c-.03.03-.04.07-.04.13v5.45l-.04.08s-.05.07-.08.13c-.03.03-.06.06-.08.08h-.17v.84h-7.31v-.85h-.84s-.06.02-.08.04h-.88c-.09,0-.15-.01-.21-.04-.06-.06-.1-.1-.12-.12-.03-.03-.06-.06-.08-.08v-.29s-.06-.06-.08-.08c-.03-.03-.06-.07-.09-.13v-1.13s-.04-.07-.04-.12v-2.01s.04-.06.04-.09v-2.01s.04-.06.04-.08c.06-.06.1-.1.13-.13v-.59s.01-.06.04-.08c.03-.03.06-.06.08-.08,0-.03.01-.07.04-.13v-.17s.01-.06.04-.08v-.59s.04-.06.04-.08c.06-.06.1-.1.12-.12s.04-.06.04-.08c.03-.03.06-.07.08-.12l.04-.04v-.13s.01-.06.04-.08c0-.03.01-.07.04-.12v-.17s.04-.06.04-.08c.03-.03.04-.07.04-.13.03-.03.04-.05.04-.08v-.08l.04-.08s.01-.07.04-.13c.03-.03.07-.06.13-.08.03-.03.06-.06.08-.08v-.13s.04-.06.04-.08c.03-.03.04-.07.04-.12v-.17s.06-.06.08-.09c0-.03.01-.07.04-.12.03-.03.06-.04.08-.04.03-.06.06-.1.08-.12v-.08s.01-.07.04-.12c.03-.03.04-.06.04-.08v-.21s.06-.03.08-.08c.03-.03.04-.06.04-.08s.01-.06.04-.08c.03-.06.06-.1.08-.13.03,0,.06-.03.09-.08,0-.03.01-.07.04-.12v-.17s.06-.06.08-.08c.03-.03.06-.07.08-.13v-.25s.01-.07.04-.12c.03-.03.06-.06.08-.08,0-.03.01-.06.04-.08v-.4c0-.06.01-.1.04-.13v-.63s-.04-.06-.04-.09v-.21s-.04-.06-.04-.08c-.03-.03-.06-.06-.08-.08-.03-.06-.04-.1-.04-.13l-.08-.08s-.06-.07-.08-.12v-.04c-.03-.05-.04-.1-.04-.12-.03-.03-.06-.06-.09-.08-.03-.03-.06-.07-.08-.13l-.04-.04c0-.06-.01-.1-.04-.13-.03-.03-.07-.06-.13-.08-.03-.03-.04-.07-.04-.13v-.08s-.07-.06-.13-.08c-.06-.06-.08-.1-.08-.13l-6.89.04c-1.6.03-3.19.04-4.79.04-.03.03-.06.07-.09.12-.03,0-.06.01-.08.04h-.29c-.06,0-.12-.01-.21-.04-.06-.03-.11-.06-.17-.08-.03-.06-.06-.1-.08-.13-.03,0-.05-.03-.08-.08v-.12s-.06-.04-.08-.04c-.03-.06-.04-.1-.04-.13-.03-.03-.06-.06-.09-.08v-3.32h-.75c-.08-.03-.17-.06-.25-.08l-.08-.08s-.06.02-.08.04c-.08-.03-.15-.06-.21-.08-.03-.03-.06-.07-.08-.13-.03,0-.06-.03-.08-.08v-.13h-19.43v.76l-.04.08-.05.04v.5h.04l.04.04-.04.08-.76,8.23-.04.04v.08l-.04.04-.38,1.26-1.35.13V7.39h.09l.17-.04v-.04h.08l.13.08.08.08v.08h2.19l.12.04.04.04.08.04h20c.7,0,1.4-.01,2.1-.04h.25V3.35s.01-.06.04-.08c.06-.03.1-.07.12-.13h.17s.04-.06.04-.08l.04-.04s.06-.04.08-.04h.17v-.04h5.42v-.5c.06,0,.13-.02.21-.04v-.17c.06-.06.11-.1.17-.13ZM72.98,16.88c-.7-.7-1.09-1.51-1.17-2.44-.11.08-.21.17-.29.25-.36.36-.65.77-.84,1.22.03.03.07.07.13.13.75.73,1.62,1.13,2.6,1.22-.14-.11-.28-.24-.42-.38ZM77.6,14.87c-.06-.06-.11-.11-.17-.17-.81-.81-1.79-1.22-2.94-1.22-.45,0-.87.07-1.26.21-.06.25-.08.53-.08.84,0,1.04.34,1.95,1.01,2.73.98-.08,1.83-.49,2.56-1.22.36-.36.66-.75.88-1.17ZM59.24,28.77v-.08h-.04c0,.06.01.1.04.12v-.04Z"/>
    </g>
  </g>
  <path id="Layer0_0_1_STROKES" class="st1" d="M19.09,20.08c.41-.15.38-.42-.08-.82-.92-.78-1.28-1.51-1.1-2.19.09-.33.41-.77.96-1.3.32-.31.86-.8,1.62-1.49.64-.63,1.1-1.21,1.35-1.73.34-.67.4-1.34.19-1.98-.38-1.18-1.65-1.86-3.8-2.05-.58-.05-1.53-.09-2.85-.09-1.25-.01-2.16-.05-2.73-.11-1.66-.19-3.32-.61-4.98-1.28-1.67-.67-2.95-1.38-3.85-2.15-.9-.76-1.85-1.84-2.85-3.22-.13,3.93,1.51,6.78,4.9,8.56-1.59.16-3.12-.31-4.61-1.41,1.14,3.08,3.47,4.8,6.98,5.16-.96.7-2.28.8-3.93.31,1.53,1.95,4.24,2.87,8.15,2.75-.76.67-1.7,1.05-2.82,1.15,1.64,1.12,3.85,1.39,6.64.83.98.71,1.92,1.06,2.82,1.05Z"/>
</svg>