<?xml version="1.0" encoding="UTF-8"?>
<svg id="_Слой_1" data-name="Слой_1" xmlns="http://www.w3.org/2000/svg" version="1.1" viewBox="0 0 60.97 32">
  <!-- Generator: Adobe Illustrator 30.2.1, SVG Export Plug-In . SVG Version: 2.1.1 Build 1)  -->
  <defs>
    <style>
      .st0 {
        fill-rule: evenodd;
      }

      .st0, .st1 {
        fill: #fff;
      }

      .st1 {
        stroke: #000;
        stroke-linecap: round;
      }
    </style>
  </defs>
  <g id="Selected_Items">
    <g id="Selected_Items1" data-name="Selected_Items">
      <path class="st0" d="M60.29,2.48v.37h.42v8.38h-10.14l-.04.04v.12s-.06.04-.08.04c-.05.03-.1.05-.12.08l-.04.04v.04s-.07.01-.12.04c0,.03-.01.05-.04.08h-.04s-.06.06-.08.08c-.03,0-.04.02-.04.04v.04s-.06.02-.08.04h-.08v4.05h.21v.71h-.04v.5h-12.39v.25s-.04.06-.04.08c-.03.06-.06.1-.08.13v.67s-.04.06-.04.08c-.06.03-.1.07-.13.12v.54c-.03.06-.04.1-.04.12-.05.03-.08.05-.08.08v.67c-.06.03-.11.07-.17.13v.5s-.07.03-.12.08v.42s-.04.06-.04.08c-.03.06-.07.1-.13.13v.25s-.04.03-.04.08c-.03.03-.06.07-.08.12v.21s-.04.06-.04.08c-.03.06-.07.1-.12.12v.25s-.04.03-.04.08c-.03.03-.06.07-.08.12v.29c-.06,0-.11.03-.17.08-.03,0-.04.03-.04.08-.03.03-.05.07-.09.12v.42c-.05.03-.11.06-.17.08v.33s-.07.07-.13.12v.29c-.05.06-.11.1-.16.12v.33s-.04.07-.04.12c-.06,0-.08.03-.08.08v.38c-.06.03-.11.07-.17.12v.46s-.07.06-.13.08v.67c-.06.03-.11.06-.17.08v1.5h.05s.04.01.04.04v.21l.04.04v.12s.04.01.04.04v.04s.02.04.05.04v.04s.01.04.04.04v.04l.04.04v.17s.06.01.08.04v.04l.04.04v.04h.04v.04s.01.04.04.04h.04v.05s.04.01.04.04v.04h.08v.04s.06.04.08.04h.09v.04s.01.04.04.04h.21v.04h.04v.04h.12v.04h.08s.02.04.04.04v.33h-.79v-.04h-.08l-.04.04h-.46c-.11,0-.21.02-.29.04h-1.04c-.09-.03-.15-.04-.21-.04v-.13h-.34c-.06-.02-.11-.04-.17-.04v-.17h-.38c-.14-.03-.28-.04-.42-.04v-.09c-.12-.03-.24-.04-.38-.04s-.28-.01-.42-.04v-.04h-.25c-.33-.03-.68-.04-1.04-.04v-.08c-.34-.03-.64-.06-.92-.08-.03,0-.06-.03-.08-.08-.17,0-.33-.01-.5-.04-.03-.03-.06-.06-.08-.09-.17-.03-.34-.06-.5-.08-.02,0-.05-.03-.08-.08-.17,0-.34-.01-.5-.04-.03-.03-.06-.06-.09-.08-.17-.03-.32-.06-.46-.08v-.08c-.11,0-.22-.01-.33-.04-.03-.03-.06-.06-.09-.08-.06-.03-.12-.06-.21-.08h-.25v-.63h-2.33v-.21h-.17v-2.75c.08-.03.14-.04.17-.04v-.79c.03-.06.05-.08.08-.08.03-.05.04-.09.04-.12v-.42c.09-.03.14-.04.17-.04v-.79c.06-.06.1-.08.13-.08v-.54c.08-.03.14-.04.17-.04v-.54c.06-.03.1-.04.12-.04v-.38c.09-.03.14-.05.17-.08v-.33c.06-.03.1-.06.12-.08v-.25c.06-.03.1-.07.13-.12,0-.03.01-.06.04-.08v-.08c.05,0,.1-.01.12-.04v-.25c.06-.03.1-.07.12-.13,0-.03.01-.05.04-.08v-.21c.06-.03.1-.06.12-.08v-.33c.06-.03.11-.06.17-.08v-.25s.07-.06.12-.08v-.12s.04-.05.04-.08c.03-.06.06-.1.08-.12,0-.05.01-.1.04-.12.03-.03.06-.06.08-.08.03-.03.04-.07.04-.12v-.21c.05-.06.11-.08.16-.08v-.25s.07-.07.13-.12v-.33c.06-.03.1-.06.12-.08,0-.06.01-.08.04-.08v-.08c.06-.03.1-.06.13-.08v-.21c.05-.02.11-.05.17-.08v-.13c.06-.03.1-.06.13-.08v-.13c.03-.06.05-.08.08-.08.03-.06.06-.1.08-.13v-.25s.03-.06.08-.08c.03-.03.04-.07.04-.12v-.09c.05-.06.1-.1.12-.12,0-.06.02-.08.04-.08v-.12c.06-.03.1-.07.12-.12v-.29c.05-.03.11-.04.17-.04v-.38c.06-.03.1-.06.12-.08v-.67c.06,0,.11-.02.17-.04v-.38c-.06,0-.11-.01-.17-.04v-.25c-.06,0-.11-.02-.16-.04-.03-.03-.07-.07-.13-.12v-.12s-.01-.06-.04-.09c-.08-.03-.16-.06-.25-.08v-.09c-.06-.02-.11-.05-.17-.08-.03-.03-.07-.07-.12-.13v-.08c-.06-.03-.11-.06-.17-.08-.03-.03-.06-.06-.09-.09-.06-.03-.11-.04-.17-.04v-.08c-.06-.03-.11-.06-.17-.08v-.08c-.08-.03-.18-.04-.29-.04v-.08c-.06-.03-.11-.06-.17-.08-.03-.03-.06-.06-.08-.08-.06-.03-.11-.04-.17-.04v-.08c-.17-.03-.32-.06-.46-.08-.03-.03-.06-.06-.09-.08-.05-.03-.12-.04-.21-.04v-.08c-.19-.03-.39-.06-.58-.09v-.29h-.42v-1.55s.09-.06.12-.08v-.96c.17-.03.32-.04.46-.04v-1.25c.06-.03.1-.06.12-.09v-.21c.06-.06.1-.09.13-.12,0-.03.01-.06.04-.09v-.25c.06,0,.1-.01.12-.04v-.38c.09-.03.14-.06.17-.09v-.21c.05-.03.1-.06.12-.09v-.21c.06-.03.11-.05.17-.08v-.08c.06,0,.1-.01.12-.04v-.25c.06,0,.11-.01.17-.04v-.08c.06-.03.1-.06.13-.08v-.21c.06-.03.11-.06.17-.08v-.08c.06,0,.1-.02.13-.04v-.08c.05-.03.11-.06.16-.09v-.08c.06,0,.1-.01.13-.04v-.08c.06-.03.11-.04.17-.04v-.42c.39,0,.78.01,1.17.04v-.75c4.76.02,9.51.04,14.27.04v.42h.58v.08c.06.03.1.06.13.08v.71h5.25v-1.33c3.56.02,7.1.04,10.64.04v-.04c.33.02.65.04.96.04h.92v.08c.06,0,.11.01.17.04v.25s0,.07,0,.13ZM40.77,11.7c-.08.03-.16.06-.21.08-.03.03-.07.06-.13.09-.03.03-.07.07-.12.12v.13s-.07.06-.12.08v.21c-.06.03-.11.06-.17.08v.21s-.07.06-.13.08v.34s-.06.07-.08.12c-.03.03-.06.06-.08.08v.25s-.01.06-.04.08c-.03.03-.06.06-.08.08v.25s-.04.07-.04.13l.04.09v.21c.03.06.06.1.08.12.03.03.04.06.04.08v.13l.12.12s.01.07.04.12c.03,0,.04.03.04.08.03.03.06.07.09.12v1.29h8.3v-.54c.22,0,.44.02.67.04v-.17s.06-.01.08-.04v-3.75h-.38v-.12s-.05-.02-.08-.04v-.04h-.08s-.01-.05-.04-.08v-.04s-.01-.04-.04-.04v-.04h-.12v-.08h-.08s-.01-.06-.04-.08l-.08-.04s-.06-.04-.08-.04c-.05-.03-.09-.04-.12-.04v-.09h-4.51v.42c-.06.03-.11.05-.17.08v1.84s.04.06.04.08c.03,0,.04.02.04.05,0,.03.01.04.04.04,0,.03.01.04.04.04,0,.03.01.04.04.04v.08s.05.04.08.04c.03.03.06.06.08.08v.04s.01.04.04.04c.03.03.04.06.04.09l.04.04h.08v.08s.06.02.08.04l.04.04s.05.01.08.04v.08h.08s.06.06.09.08v.04s.06.02.08.04c.06,0,.11.01.17.04v.08h.17c.06.03.1.06.12.08v.04c.08,0,.15.01.21.04.05,0,.13.02.21.04v.09h.58v.71h-1.33v-.04c-.06-.02-.11-.04-.17-.04-.06-.03-.13-.06-.21-.08v-.05s-.07-.04-.13-.04-.11-.02-.17-.04v-.04s-.07-.04-.12-.04c-.06-.03-.11-.06-.17-.08v-.04l-.04-.04s-.06-.04-.08-.04v-.04c-.06-.02-.1-.06-.12-.08-.03,0-.06-.02-.09-.04v-.08s-.05-.04-.08-.04c-.03-.03-.06-.04-.08-.04-.03-.03-.04-.05-.04-.08l-.04-.04s-.01-.06-.04-.08c-.03-.03-.06-.04-.08-.04v-.04s-.05-.06-.08-.08v-.04s-.06-.06-.08-.08l-.04-.04v-.04s-.05-.02-.08-.04v-.04s-.06-.06-.08-.08v-.04s-.03-.04-.08-.04v-.12h-.21v-.08s-.01-.04-.04-.04c0-.03-.01-.05-.04-.08v-.75c.05,0,.08-.01.08-.04v-1.71h-.71v.17c-.14.03-.29.06-.46.08v.04s-.07.06-.12.08c0,.03,0,.05,0,.08ZM30.38,29.6c.09,0,.16.01.21.04v-.04c-.09-.03-.18-.04-.29-.04l.08.04Z"/>
    </g>
  </g>
  <path id="Layer0_0_1_STROKES" class="st1" d="M19.18,20.44c.41-.15.38-.42-.08-.82-.92-.78-1.28-1.51-1.1-2.19.09-.33.41-.77.96-1.3.32-.31.86-.8,1.62-1.49.64-.63,1.1-1.21,1.35-1.73.34-.67.4-1.34.19-1.98-.38-1.18-1.65-1.86-3.8-2.05-.58-.05-1.53-.09-2.85-.09-1.25-.01-2.16-.05-2.73-.11-1.66-.19-3.32-.61-4.98-1.28-1.67-.67-2.95-1.38-3.85-2.15-.9-.76-1.85-1.84-2.85-3.22-.13,3.93,1.51,6.78,4.9,8.56-1.59.16-3.12-.31-4.61-1.41,1.14,3.08,3.47,4.8,6.98,5.16-.96.7-2.28.8-3.93.31,1.53,1.95,4.24,2.87,8.15,2.75-.76.67-1.7,1.05-2.82,1.15,1.64,1.12,3.85,1.39,6.64.83.98.71,1.92,1.06,2.82,1.05Z"/>
</svg>