<?xml version="1.0" encoding="UTF-8"?>
<svg id="_Слой_1" data-name="Слой_1" xmlns="http://www.w3.org/2000/svg" version="1.1" viewBox="0 0 91.75 32">
  <!-- Generator: Adobe Illustrator 30.2.1, SVG Export Plug-In . SVG Version: 2.1.1 Build 1)  -->
  <defs>
    <style>
      .st0 {
        fill-rule: evenodd;
      }

      .st0, .st1 {
        fill: #fff;
      }

      .st1 {
        stroke: #000;
        stroke-linecap: round;
      }
    </style>
  </defs>
  <g id="Selected_Items">
    <g id="Selected_Items1" data-name="Selected_Items">
      <path class="st0" d="M69.82,18.81c-.43.17-.75.35-.94.57-.16.24-.24.6-.24,1.06,0,.65.01,1.22.04,1.71h1.63v.81l.28.08c.22.08.34.15.37.2.16.22.41.37.73.45.54.16,1.13.01,1.75-.45.68-.49.88-1.14.61-1.95-.24-.71-.69-1.21-1.34-1.51-.16-.08-.35-.3-.57-.65l-.29-.49c-.19-.03-.41-.04-.65-.04-.54-.03-1.01.04-1.39.2ZM58.75,21.99c.43-.41.65-.85.65-1.34,0-.46-.12-.94-.37-1.42l-.33-.57h-5.57c-.71.68-1.25,1.19-1.63,1.55-.19.16-.27.39-.24.69,0,.16.03.45.08.85,0,.92.26,1.59.77,2,.62.51,1.21.75,1.75.69.24-.06.83-.27,1.75-.65.81-.38,1.45-.69,1.91-.94.57-.33.98-.61,1.22-.86ZM78.85,10.51c.06-.08-.05-.24-.33-.49h-6.11c-.63-.03-1.7-.08-3.22-.16l-2.16-.12v1.22h11.64c.03-.06.04-.11.04-.16.06-.14.09-.23.12-.29ZM80.28,9.86c-.08-.03-.22-.03-.41,0h-.24v.77l.33.04c.22.08.33.23.33.45,0,.19-.07.37-.2.53l-.2.2.17,1.99h.49v-3.46c0-.16-.01-.27-.04-.33-.03-.11-.1-.18-.21-.2ZM91.14,16.9c-.11.22-.3.33-.57.33h-5.62l-.2-.24c-.06.03-.12.07-.2.12-.13.08-.2.14-.2.16s.18.23.53.61c.33.43.48.77.45,1.02-.05.33-.16,1.19-.33,2.6-.13,1.41-.2,2.23-.2,2.44,0,.16-.06.27-.16.33-.06.05-.19.08-.41.08h-2.36c-.11,0-.2-.1-.29-.28-.11-.22-.16-.5-.16-.85,0-.46-.01-.91-.04-1.34-.06-.49-.12-.77-.2-.85-.06-.08-.46-.16-1.22-.25-.73-.05-1.15-.03-1.26.08-.16.16-.3.3-.41.41-.19.19-.28.37-.28.53-.03.11-.1.84-.2,2.2-.3,1.47-.87,2.62-1.71,3.46-.87.9-2.23,1.52-4.07,1.87-1.41.27-2.57.34-3.46.2-.54-.08-.87-.18-.98-.29-.06-.03-.06-.15,0-.37.65-2.25.95-3.49.9-3.7-.06-.19-.11-.33-.16-.41-.11-.14-.26-.2-.45-.2-.16-.03-.61-.04-1.34-.04-.38-.03-.77-.04-1.18-.04-.08,0-.16.07-.24.2-.08.16-.17.28-.24.36-.08.11-.41.38-.98.82-.71.57-1.44,1.09-2.2,1.55-2.31,1.44-4.26,2.16-5.86,2.16s-3.2-.05-4.97-.16l-2.16-.2-.04-1.34c-3.31-1.35-5.2-2.06-5.66-2.11-.27-.03-.57-.04-.9-.04l-.41-.04-.33.57c-.24.35-.48.53-.69.53h-15.83c-.24,0-.46-.17-.65-.53-.14-.3-.2-.62-.2-.98v-6.79c0-1.41-.03-2.97-.08-4.68-.05-1.36-.08-2.06-.08-2.12.08-.52.2-.77.37-.77h20.55c.14,0,.52-.07,1.14-.2.6-.11,1.02-.16,1.26-.16h14.65l.04-1.75c0-.11.22-.63.65-1.55.44-.95.65-1.52.65-1.71.03-.16.2-.34.53-.53.16-.08.33-.15.49-.2,0-.24.03-.49.08-.73.08-.49.15-.77.2-.85.35-.52.65-.78.9-.78.27,0,.47.15.61.45.06.16.11.39.16.69.05.19.05.6,0,1.22-.03,0-.07.01-.12.04-.06.05-.08.15-.08.28v.89h11.56l1.47-.85c.27,0,.41-.09.41-.28v-.65h-.24v-1.02l.2-.2.45-.28.94-.08c.05,0,.11.07.16.2.03.11.04.23.04.37v1.79l.16.61c.13.38.23.59.28.61.11.03.48.03,1.1,0,1.63,1.76,2.48,2.69,2.56,2.77.19.24.29.5.29.77v4.4h5.58l.24.24c.19.24.29.62.29,1.14,0,.68-.09,1.14-.25,1.38Z"/>
    </g>
  </g>
  <path id="Layer0_0_1_STROKES" class="st1" d="M19.1,20.43c.41-.15.38-.42-.08-.82-.92-.78-1.28-1.51-1.1-2.19.09-.33.41-.77.96-1.3.32-.31.86-.8,1.62-1.49.64-.63,1.1-1.21,1.35-1.73.34-.67.4-1.34.19-1.98-.38-1.18-1.65-1.86-3.8-2.05-.58-.05-1.53-.09-2.85-.09-1.25-.01-2.16-.05-2.73-.11-1.66-.19-3.32-.61-4.98-1.28-1.67-.67-2.95-1.38-3.85-2.15-.9-.76-1.85-1.84-2.85-3.22-.13,3.93,1.51,6.78,4.9,8.56-1.59.16-3.12-.31-4.61-1.41,1.14,3.08,3.47,4.8,6.98,5.16-.96.7-2.28.8-3.93.31,1.53,1.95,4.24,2.87,8.15,2.75-.76.67-1.7,1.05-2.82,1.15,1.64,1.12,3.85,1.39,6.64.83.98.71,1.92,1.06,2.82,1.05Z"/>
</svg>