<?xml version="1.0" encoding="UTF-8"?>
<svg id="_Слой_1" data-name="Слой_1" xmlns="http://www.w3.org/2000/svg" version="1.1" viewBox="0 0 106.31 32">
  <!-- Generator: Adobe Illustrator 30.2.1, SVG Export Plug-In . SVG Version: 2.1.1 Build 1)  -->
  <defs>
    <style>
      .st0 {
        fill-rule: evenodd;
      }

      .st0, .st1 {
        fill: #fff;
      }

      .st1 {
        stroke: #000;
        stroke-linecap: round;
      }
    </style>
  </defs>
  <g id="Selected_Items">
    <g id="Selected_Items1" data-name="Selected_Items">
      <path class="st0" d="M42.16,7.5h13.69c.09.02.15.04.19.07.06.04.11.09.13.13l.03.03h.03s.06.05.13.1c.02.04.04.09.06.13,0,.02.01.04.03.06v.1h.1v-.06h.29s.11.07.19.1c.04.02.09.04.13.06,16.17,0,32.36.01,48.55.03.08.04.16.07.23.1.02.02.06.04.1.07.02.04.04.09.06.13.02.04.03.07.03.1v.13s-.01.03-.03.03c.02.02.03.04.03.06v2.17s-.05.01-.1.03c-.04.04-.09.08-.13.1-.02.06-.04.11-.07.13-.06.02-.11.06-.13.1-.02.04-.03.07-.03.1-.09-.02-.15-.06-.19-.1l-.03-.03h-1.69v.55s.01.04.03.07l.03.03c.17,0,.34.01.49.03v-.13h1.56v3.37c-.5,0-.98-.01-1.46-.03v.03h-.39s-.03.01-.03.03c-.02.02-.05.03-.1.03-.02.02-.04.06-.06.1v.06s-.03.04-.03.06c-.02.02-.03.05-.03.1,0,.02-.01.04-.03.06,0,.02-.02.05-.06.06-.02.04-.04.08-.07.1,0,.02-.01.03-.03.03v.06c-.06.02-.11.05-.13.1-.02.02-.04.04-.07.06,0,.02-.01.04-.03.06-.02.04-.06.08-.1.1-.02.02-.03.04-.03.07-.02.02-.03.05-.03.1v.03s-.08.01-.13.03v.06s-.1.03-.16.03c-.04.04-.07.08-.1.1v.06h-.49v.19c-6.98.02-13.96.03-20.92.03v.23c-.54,0-1.08-.01-1.62-.03v-.32c-.06-.04-.14-.06-.23-.06-.09-.02-.17-.04-.26-.07v-.06c-.09,0-.15-.02-.19-.07-.06-.02-.13-.04-.2-.07v-.06c-.11,0-.21-.01-.29-.03-.11-.04-.21-.08-.29-.1v-.07h-10.44c-.09-.02-.17-.05-.26-.1-.04-.02-.08-.04-.1-.06-.04-.02-.1-.04-.16-.06-.02-.04-.05-.09-.1-.13-.04-.02-.08-.04-.1-.06v-.36h-2.43v.48h-.68v.39c-.5,0-1.02-.01-1.56-.03-.02-.02-.04-.04-.06-.07v-.29h-7.88s-.06.02-.1.07h-.1s-.06.03-.1.03c-.06.02-.11.04-.13.07-.04.02-.1.06-.16.1h-.1c-.06.02-.11.03-.13.03-.04.02-.09.04-.13.07,0,.02-.02.05-.07.1-.04.02-.09.04-.13.07,0,.02-.02.03-.06.03,0,.02-.01.03-.03.03-.04.02-.08.03-.1.03-.04.04-.08.08-.1.1v.06s-.08.03-.1.03v.16h-.16v.16c-.15,0-.3.01-.45.03h-.03c-.11,0-.2.01-.29.03h-.03s-.08.01-.1.03h-.07c-.09,0-.18.02-.29.06h-.03c-.09,0-.17.01-.26.03h-.07s-.05.01-.1.03h-.03s-.08.01-.1.03h-.03s-.04.01-.06.03h-.03c-.07,0-.11,0-.13.03h-.03s-.03.02-.03.07h-.07s-.08.01-.1.03h-.03c-.06,0-.11.01-.13.03h-.03s-.1.01-.16.03h-.03s-.04.01-.06.03h-.07s-.03.02-.03.06h-.03s-.04.01-.06.03h-.03s-.08.01-.1.03h-.03s-.01.03-.03.03-.05.01-.1.03h-.03s-.04.01-.06.03h-.03s-.06.02-.1.07h-.03s-.04.01-.07.03h-.03l-.06.03h-.03s-.04.01-.07.03h-.03s-.03.01-.03.03h-.07s-.04.02-.06.06h-.03s-.01.03-.03.03c-.04,0-.08.01-.1.03h-.03s-.03.01-.03.03h-.03s-.03.01-.03.03h-.06s-.03.01-.03.03h-.03s-.04.02-.07.07c-.04,0-.08,0-.1.03h-.03s-.03.01-.03.03h-.03s-.01.03-.03.03c-.04,0-.08.01-.1.03-.02,0-.03.02-.03.06h-.03s-.01.03-.03.03c-.07,0-.11.01-.13.03h-.03l-.07.06v.03h-.06s-.03.02-.03.06h-.03s-.01.03-.03.03-.05.01-.1.03h-.03s-.01.03-.03.03c-.02,0-.04.01-.06.03h-.03s-.02.06-.07.06c-.02,0-.04.01-.06.03h-.03s-.03,0-.03.03h-.06s-.03.01-.03.03h-.03s-.03.01-.03.03h-.03s-.03.01-.03.03h-.07s-.01.06-.03.06-.03.01-.03.03h-.03s-.03.01-.03.03h-.07l-.06.07s-.03.02-.03.06h-.03s-.07.01-.07.03h-.03s-.01.03-.03.03-.03.01-.03.03h-.03s-.01.03-.03.03c-.04,0-.06.02-.06.07h-.03s-.01.03-.03.03c-.02,0-.03.01-.03.03h-.03s-.06.01-.06.03h-.03s-.03.01-.03.03h-.03v.03s-.03.02-.03.06h-.03s-.07.01-.07.03h-.03s-.03,0-.03.03h-.03l-.1.07s-.04.02-.06.06c0,.02-.01.03-.03.03s-.03,0-.03.03h-.03l-.13.1s-.03.02-.03.07h-.03l-.13.1s-.03.01-.03.03h-.03s-.03.02-.03.07h-.07s-.03.01-.03.03h-.03s-.04.01-.06.03c-.04,0-.08.01-.1.03-.02,0-.04.01-.07.03h-.03s-.05.01-.1.03c-.02,0-.04.02-.07.07h-.04s-.05.01-.1.03c-.02,0-.04.01-.07.03h-.03s-.03.01-.03.03h-.03c-.07,0-.11.01-.13.03h-.03s-.03.02-.03.06h-.07s-.04.01-.07.03h-.03s-.04,0-.07.03h-.07s-.08.01-.1.03h-.03s-.08.01-.13.03c-.11,0-.19.01-.26.03h-.03c-.07,0-.11.02-.13.07h-.03c-.06,0-.12.01-.16.03h-.03c-.11,0-.21.01-.32.03h-1.17l-.03-.03h-.16v-.03h-.13l-.03-.07h-.16l-.03-.03h-.23l-.03-.03h-.07v-.03h-.13l-.03-.03h-.1l-.03-.03h-.1l-.03-.06h-.1v-.03h-.1l-.07-.03h-.03l-.03-.03h-.06l-.03-.03h-.06l-.03-.07h-.06v-.03h-.1l-.03-.03h-.06l-.03-.03h-.1v-.03h-.03l-.06-.1h-.03v-.03h-.1v-.03h-.03v-.03h-.03v-.03h-.03v-.07h-.03v-.03h-.07v-.03l-.03-.03h-.03l-.13-.13v-.03h-.03s-.06-.08-.06-.08v-.06h-.03v-.03h-.03v-.03l-.1-.07v-.03l-.07-.1v-.03h-.03v-.03l-.06-.03v-.06l-.03-.03h-.03v-.03l-.03-.03v-.03l-.03-.06v-.03s-.05-.03-.1-.03v-.03l-.06-.06v-.06l-.03-.03s0-.03-.03-.03v-.07l-.1-.1v-.03l-.03-.03v-.03l-.06-.1v-.03l-.03-.03h-.06v-.06l-.03-.07v-.03l-.03-.03v-.03l-.06-.07v-.06l-.16-.13v-.07l-.03-.03v-.03s-.06-.01-.06-.03l-.29-.32v-.03h-.03v-.07s-.03-.01-.03-.03h-.06l-.1-.13s-.01-.03-.03-.03v-.03l-.19-.19h-.58s-.04.03-.06.03c-.22.02-.41.06-.58.13-.04.02-.09.04-.13.06-.02,0-.06.01-.1.03v-.29h-.03v.03l-.03.03c-.06.02-.12.03-.16.03-.06.02-.12.05-.16.1-.02.02-.04.04-.06.06-.02.02-.05.03-.1.03l-.03.03s-.07.02-.1.06c-.04.02-.08.04-.1.07l-.07.07s-.1,0-.16.03c-.02.04-.04.08-.06.1,0,.02-.01.03-.03.03l-.06.03s-.08.01-.1.03c-.02.04-.06.06-.1.06v.03s-.1.03-.16.03c-.04.02-.08.05-.1.06v.1s-.1.03-.16.03c-.06.02-.12.04-.16.06-.04.02-.08.06-.1.1,0,.02-.01.03-.03.03l-.03.03c-.06,0-.11.01-.13.03-.02.02-.04.04-.06.06l-.06.1c-.06,0-.12.01-.16.03v.03l-.03.03c-.06.04-.12.06-.16.06-.02.02-.04.04-.06.07-.04.02-.06.04-.06.06v.13s-.04.01-.07.03c-.02.02-.04.04-.06.07-.06.06-.12.12-.16.16-.09.02-.16.07-.23.13l-.03.03v.06h-.1s-.04.03-.06.03c-.02.04-.04.07-.06.1,0,.02-.02.05-.06.07-.02.02-.04.05-.06.1-.04.02-.09.04-.13.06-.02.02-.04.04-.06.06,0,.02-.01.05-.03.1-.02.02-.04.04-.06.06-.04.02-.08.03-.1.03-.02.02-.04.05-.06.1-.03.03-.06.05-.1.07-.02.02-.03.04-.03.06-.02.02-.04.06-.06.1v.06c-.06,0-.11.01-.13.03-.02.02-.04.05-.06.1v.06s-.09.01-.13.03c-.02.02-.04.04-.06.06-.02.05-.04.08-.06.1-.04.02-.08.04-.1.06-.02.02-.03.05-.03.1,0,.02-.01.03-.03.03,0,.02-.01.04-.03.06-.02.02-.06.05-.13.07,0,.04-.01.08-.03.1-.02.02-.04.04-.06.07-.04.02-.08.05-.1.1-.02.02-.03.04-.03.06-.02.02-.04.04-.07.06-.02.02-.05.03-.1.03v.1s-.04.04-.07.06-.03.05-.03.1c-.02.02-.05.05-.1.07-.02.02-.04.04-.06.06-.02.02-.05.05-.07.1-.02.02-.03.04-.03.06s-.02.03-.07.03c0,.02-.01.05-.03.1-.02.02-.05.04-.1.06v.07s-.02.05-.07.1c0,.02-.01.04-.03.06v.13s-.07.03-.1.03c-.02.02-.03.05-.03.07-.04.02-.06.04-.06.07,0,.04-.01.08-.03.1,0,.02-.01.04-.03.07-.02.02-.03.06-.03.1,0,.02-.01.03-.03.03,0,.02-.02.04-.06.06v.23s-.08.03-.1.03c-.02.04-.03.07-.03.09-.02.02-.03.05-.03.07v.1c-.07,0-.11.01-.13.03,0,.02-.01.05-.03.07,0,.02-.01.04-.03.06v.1s-.07.05-.07.07c-.02.02-.04.03-.07.03v.1s-.04.04-.06.07v.42h-.13v.19c-.54,0-1.08-.01-1.62-.03-.07-.02-.12-.05-.16-.1v-.06c-.07,0-.11-.01-.13-.03-.09-.02-.15-.04-.19-.07,0-.04-.01-.07-.03-.1l-.03-.03c-.09-.02-.15-.04-.19-.06v-.1c-.06,0-.12-.01-.16-.03-.02-.02-.04-.04-.07-.07l-.1-.1s-.04-.01-.07-.03c-.04-.02-.1-.04-.16-.06,0-.02,0-.06-.03-.1-.02,0-.05-.01-.1-.03v-.06s-.08-.04-.1-.07c-.04-.04-.08-.07-.1-.1-.04-.02-.07-.05-.07-.07-.02-.02-.04-.05-.06-.09-.04-.02-.09-.05-.13-.07,0-.02,0-.04-.03-.06-.02,0-.05-.01-.1-.03,0-.04-.01-.08-.03-.1-.04-.02-.06-.04-.06-.06v-.03s-.09-.07-.13-.1c0-.02-.02-.04-.07-.07-.02,0-.05-.01-.1-.03v-.1s-.04-.04-.06-.06c-.06-.02-.11-.04-.13-.07-.02-.04-.03-.08-.03-.1-.02-.02-.05-.04-.1-.07-.02-.02-.05-.06-.07-.1,0-.02,0-.04-.03-.07l-.03-.03c-.07-.02-.11-.04-.13-.06,0-.04-.01-.08-.03-.1l-.03-.03c-.07-.02-.11-.04-.13-.06v-.1s-.03-.01-.03-.03c-.02-.02-.03-.04-.03-.06v-.1s-.09-.01-.13-.03c0-.02,0-.04-.03-.06,0-.02-.01-.05-.03-.1v-.03s-.09-.04-.13-.06v-.13s-.03-.04-.03-.06c-.02-.02-.03-.04-.03-.06v-1.56s.04-.01.06-.03v-4.83s-.04-.03-.06-.03v-1.62h1.62v.1s.06.04.1.06c.02.02.06.03.1.03v.1s.09.04.13.06c.07.02.12.03.16.03,0,.02.01.04.03.06,0,.04.02.08.06.1.04.02.1.03.16.03v.06c.06.04.13.08.19.1.07.02.13.03.19.03v.06c.09.02.15.06.19.1.13.02.26.03.39.03v.06c.11.02.21.05.29.1h1.13c.09-.04.2-.07.32-.1.04-.02.07-.04.07-.06h.03c.13-.02.26-.03.39-.03.09-.04.18-.07.29-.1.02-.02.03-.04.03-.06h.03c.13-.03.26-.04.39-.04.13-.02.26-.06.39-.1v-.06c.13-.02.26-.03.39-.03.06-.02.14-.05.23-.1v-.06h.03c.06-.02.12-.03.16-.03.11-.02.19-.04.26-.06.02-.04.03-.08.03-.1h.06s.09-.03.13-.03c.11-.02.23-.04.35-.06.02-.04.03-.07.03-.1h.03c.06-.02.13-.03.19-.03.09-.02.18-.04.29-.06v-.1c.06-.02.15-.03.26-.03.07-.02.14-.04.23-.06v-.1s.11-.03.19-.03c.04-.02.11-.04.19-.06v-.1c.06-.02.15-.03.26-.03.05-.02.1-.04.16-.06v-.07h.03s.05-.06.1-.06c.06-.02.11-.04.13-.07.02-.02.04-.04.06-.06.04-.04.07-.06.1-.06v-.03c.06-.02.14-.03.23-.03.02-.02.04-.04.06-.07l.1-.1s.1-.03.16-.03v-.06s.09-.03.13-.03c.04-.05.09-.08.13-.1.02-.02.03-.04.03-.06h.03s.1-.03.16-.03c.04-.02.09-.06.13-.1.04-.02.08-.04.1-.07.02-.02.04-.03.06-.03v-.03c.06-.04.12-.06.16-.06v-.06h.03s.06-.03.13-.03c.06-.02.14-.04.23-.06v-.1h.03s.1-.03.16-.03c.02-.02.04-.04.07-.06.02-.04.04-.07.06-.1.04-.02.08-.03.1-.03v-.03s.09-.03.13-.03v-.1h.06s.06-.03.1-.03c.06-.02.11-.04.13-.06.02-.02.03-.05.03-.1h.03s.11-.03.19-.03c.02-.02.04-.04.06-.06v-.06c.06-.04.13-.06.19-.06.06-.02.12-.04.16-.06v-.06h.03s.06-.07.13-.07c.04-.03.11-.05.19-.08v-.06c.06-.05.14-.06.23-.06.04-.02.11-.04.2-.07v-.06h.03s.1-.03.16-.03c.04-.05.09-.08.13-.1v-.06c.09-.02.16-.03.23-.03.07-.04.13-.08.19-.1v-.06h.07s.1-.03.16-.03c.06-.02.13-.05.19-.1v-.06c.13-.02.25-.03.36-.03.04-.02.11-.05.19-.1v-.06h.03s.1-.03.16-.03c.04-.02.11-.05.19-.06v-.1h.03s.05-.03.1-.03c.06-.02.11-.04.13-.06.02-.04.03-.08.03-.1h.03c.09-.02.16-.03.23-.03h.07v-.16c.06-.02.15-.03.26-.03.04-.02.1-.03.16-.03.02-.02.04-.03.06-.03.02-.02.04-.03.07-.03v-.07h.06s.04-.04.07-.07c.15-.02.31-.04.49-.07.04-.06.08-.11.1-.13.22-.02.44-.04.68-.07.02-.06.04-.11.06-.13.11-.02.22-.04.33-.06,0-.02.01-.03.03-.03ZM41.32,17.07v.07l-.03.03v.03s-.03.01-.03.03v.03h-.07v.06s-.03.01-.03.03v.03l-.03.03v.07l-.03.07v.06h-.03v.03s-.03.01-.03.03v.06l-.06.04v.06h-.03v.13h-.03v.23h-.03v.07s-.03.01-.03.03v.16s-.07.01-.07.03v.16h-.03v.36l.03.03v.65h-.61v-.03h-.03v-.1l-.03-.03v-.07h-.03v-.03l-.03-.06v-.07h-.03v-.06l-.07-.06v-.07l-.03-.03v-.16l-.03-.03v-.19l-.03-.03v-1.3h-.03l-.07.03s-.01.03-.03.03l-.13.16v.03l-.16.16v.03l-.03.03v.06l-.06.07v.03l-.03.03v.07l-.03.06v.16l-.03.07v.26l.03.03v.19l.03.03v.13l.03.03v.07l.06.03v.06l.03.03v.03l.06.07v.06h.03l.13.1v.03h.03l.13.13h.03v.03h.03l.03.03h.03l.07.03h.03v.06h.03l.03.03h.03l.03.03h.1v.03h.07v.03h.03l.06.06h.23v.03h.03v.03h.03v.03h.03v.03h.03v.03h.16l.03.07h.1l.03.03h.1v.03h.1l.03.03h.03l.03.03h.55v.07h.39v-.07h.1v-.03h.35v-.03h.1v-.03h.13v-.03h.13v-.07h.1v-.03h.03v-.03h.1l.03-.03h.07v-.03h.13v-.03h.1l.07-.06h.07v-.03h.07l.03-.03h.1v-.03l.07-.1h.1l.1-.1h.03s.01-.03.03-.03l.06-.03h.07v-.07s.03-.01.03-.03h.13v-.03l.07-.07h.06s.02-.06.07-.06c0-.02.01-.03.03-.03l.03-.03h.03l.03-.03h.07l.03-.03v-.06s.01-.03.03-.03v-.03h.03v-.03s.01-.03.03-.03v-.16h.03v-.03l.07-.03v-.06h.03v-.03s.01-.03.03-.03v-.03s.01-.03.03-.03v-.03l.03-.06s.02-.03.06-.03v-.06h.03v-.23s-.01-.03-.03-.03v-.1l-.06-.03v-.07s-.01-.07-.03-.07v-.06l-.03-.03v-.03l-.03-.03v-.06l-.03-.03v-.03l-.07-.03v-.03l-.16-.19v-.03l-.07-.06h-.03l-.03-.03v-.03h-.03l-.1-.06h-.06l-.07-.1s-.05-.03-.1-.03h-3.15s-.03.01-.03.03c0,.02-.01.03-.03.03ZM40.64,19.95s.01-.04.03-.06h.16c-.09.02-.15.04-.19.06ZM23.87,19.37s.01-.04.03-.07c.02-.02.03-.04.03-.06h-.07v.13Z"/>
    </g>
  </g>
  <path id="Layer0_0_1_STROKES" class="st1" d="M18.89,20.83c.41-.15.38-.42-.08-.82-.92-.78-1.28-1.51-1.1-2.19.09-.33.41-.77.96-1.3.32-.31.86-.8,1.62-1.49.64-.63,1.1-1.21,1.35-1.73.34-.67.4-1.34.19-1.98-.38-1.18-1.65-1.86-3.8-2.05-.58-.05-1.53-.09-2.85-.09-1.25-.01-2.16-.05-2.73-.11-1.66-.19-3.32-.61-4.98-1.28-1.67-.67-2.95-1.38-3.85-2.15-.9-.76-1.85-1.84-2.85-3.22-.13,3.93,1.51,6.78,4.9,8.56-1.59.16-3.12-.31-4.61-1.41,1.14,3.08,3.47,4.8,6.98,5.16-.96.7-2.28.8-3.93.31,1.53,1.95,4.24,2.87,8.15,2.75-.76.67-1.7,1.05-2.82,1.15,1.64,1.12,3.85,1.39,6.64.83.98.71,1.92,1.06,2.82,1.05Z"/>
</svg>