<?xml version="1.0" encoding="UTF-8"?>
<svg id="_Слой_1" data-name="Слой_1" xmlns="http://www.w3.org/2000/svg" version="1.1" viewBox="0 0 73.75 32">
  <!-- Generator: Adobe Illustrator 30.2.1, SVG Export Plug-In . SVG Version: 2.1.1 Build 1)  -->
  <defs>
    <style>
      .st0 {
        fill-rule: evenodd;
      }

      .st0, .st1 {
        fill: #fff;
      }

      .st1 {
        stroke: #000;
        stroke-linecap: round;
      }
    </style>
  </defs>
  <g id="Selected_Items">
    <g id="Selected_Items1" data-name="Selected_Items">
      <path class="st0" d="M45.94,2s.01-.04.04-.04c.06-.03.12-.04.18-.04l.04-.04s.06-.05.08-.05l.05-.04s.06-.04.09-.04c0-.03.01-.04.04-.04h.04v-.04s.06-.01.09-.04l.09-.09s.04-.01.04-.04c.03,0,.05-.01.05-.04.06,0,.1-.01.13-.04.03-.03.06-.04.09-.04h.31v-.09h.05v-.04c.17,0,.35.01.52.04v.04s.06.04.09.04v.04s.06.01.09.04l.04.04s.06.01.09.04v.05s.04.01.04.04c.06,0,.09.02.09.04.03.03.06.04.09.04.03,0,.04.01.04.04.03,0,.06.01.09.04,0,.03.01.04.04.04h.09l.04.05s.06.04.09.04l.05.09.08.04c.06,0,.1.02.13.05.03.03.06.06.09.09v1.18h18.79v-.48h.13s.01-.06.04-.09c.03,0,.04-.02.04-.04h.04s.01-.06.04-.09h.04v-.09s.06-.02.09-.04h.04s.02-.06.04-.09c.03,0,.04-.02.04-.04.03,0,.04-.01.04-.04v-.05s.01-.04.04-.04l.04-.04v-.05h1.27v.04l.09.09s.01.04.04.04c0,.03.01.04.04.04v.04s.04.06.04.09h.04l.04.04s.06.06.09.09v.09h.09s.01.04.04.04c0,.03.01.06.04.09h.09v.44s.06.04.09.04v.13h.26v.22s.07.06.1.09c.03.03.07.04.13.04,0,.03.01.06.04.09h.04s.09.04.17.04v.74s.03.05.09.05v.22s.08.04.13.04v.48h.22v.22h1.4v.13h.26v2.23h-.13c-.53-.03-1.06-.04-1.62-.04v.04h-.13v.35h-.13v.35c-.03.06-.06.1-.09.13,0,.03-.01.06-.04.09-.03.03-.06.06-.09.09v.13c-.06.03-.12.04-.18.04v.17s-.01.05-.04.05c0,.03-.01.04-.04.04v.09l-.04.04s-.02.05-.04.05v.04l-.04.04v.09s-.04.02-.04.04h-.18v.26l-.04.04v.04h-.65v-.04c-4.19-.03-8.39-.06-12.58-.09v.04h-.74v2.71h-.17v.09c-.32.03-.64.06-.96.09v.04c-.26,0-.52-.01-.79-.04h-.31v.09h-.08s-.06.05-.09.05v.09h-.08v.13h-.04s-.04.06-.04.09h-.04v.09l-.04.05h-.04s-.04.06-.04.09v.05h-.04s-.04.06-.04.09l-.13.13v.09s-.05.02-.05.04h-.04s-.04.06-.04.09v.09s-.06.01-.09.04h-.05v.09s-.04.01-.04.04c-.03,0-.04.02-.04.04v.04s-.06.04-.09.04l-.04.04v.05h-.04v.09s-.06.01-.09.04v.04s-.04.01-.04.04c-.06,0-.12.01-.17.04l-.04.09v.04l-.09.09v2.92h.35s.07.06.13.09c0,.06.02.09.04.09,0,.03.01.06.04.08v.74l.04.04v.35s-.02.04-.04.04v.04l-.04.04v.31l-.04.04v.06s-.04.01-.04.04-.01.04-.04.04v.04s-.04.01-.04.04v.17h-.13s-.06.01-.09.04c0,.03-.01.04-.04.04-.03.03-.06.04-.09.04v.04h-.04s-.06.01-.09.04c-.03,0-.06.01-.09.04h-.09s-.01.04-.04.04v.17s-.06.01-.09.04v.22s-.02.06-.04.09l-.05.04v9.79h-7.03v-10.17h-.04s-.04.01-.04.04v.09s-.06.06-.09.09c-.03.03-.04.06-.04.09v.04s-.07.06-.13.09c-.03.03-.04.06-.04.09-.03.03-.04.06-.04.09h-1.09v-.09c-.12-.03-.23-.05-.35-.05-.03-.03-.04-.06-.04-.09-.12-.03-.22-.04-.31-.04v-.13h-.09v-2.44h-5.16v.95c-.99-.03-1.98-.04-2.97-.04v.04l-.04.09c-.03.06-.04.1-.04.13-.03,0-.06.03-.09.08l-.04.04c0,.06-.01.09-.04.09-.03.06-.06.1-.09.13v.09s-.04.06-.04.08l-.04.04v.31c-.06.03-.1.04-.13.04v.09s-.02.06-.04.09c-.03.03-.06.06-.09.09,0,.03-.01.06-.04.09,0,.03-.02.06-.04.09v.31s-.06.01-.09.04c-.03.03-.04.06-.04.09,0,.03-.02.06-.05.09-.03.03-.06.07-.09.13l-.04.04v.18s-.04.07-.04.13v.04l-.04.09-.09.08v.13s-.06.01-.09.04c0,.06-.03.09-.09.09v.22l-.05.04v.35c-.06.03-.1.05-.13.05v.09l-.04.09c-.06.03-.1.06-.13.08v.18l-.04.09v.22c-.06,0-.1.01-.13.04v.09s-.04.07-.04.13c-.03,0-.06.03-.09.09l-.05.04v.22s-.06.02-.09.05v.09s-.04.06-.04.09c-.03.03-.04.06-.04.09v.18c-.06,0-.1.02-.13.04v.31c-.06,0-.1.01-.13.04v.09c-.03.06-.06.09-.09.09v.26l-.04.09c-.06.03-.09.07-.09.13v.13c0,.06-.01.08-.04.08-.06.03-.09.07-.09.13v.13c.03.06.07.09.13.09v.09s.07.05.13.05v.13l.04.05s.01.06.04.09v.09s.06.07.09.13c.03,0,.04.01.04.04v1c-.06,0-.1.01-.13.04v.26c-.06.03-.12.06-.18.09-.03.03-.04.06-.04.09-.32-.03-.62-.04-.92-.04h-.04v-.09c-.38,0-.77-.01-1.18-.05v-.04c-.55-.03-1.12-.06-1.7-.09,0-.03-.01-.04-.04-.04-.61-.03-1.22-.04-1.84-.04v-.09c-.2,0-.38-.01-.52-.04l-.04-.04h-1.49c-.06,0-.1-.01-.13-.04-.09-.03-.17-.04-.26-.04,0-.03-.03-.04-.09-.04-.35-.03-.71-.06-1.09-.09-.03-.03-.06-.04-.09-.04v-.26c-.17,0-.34-.01-.48-.04-.03-.03-.06-.04-.09-.04v-.13s-.06-.03-.09-.08c-.03,0-.06-.03-.09-.09v-1.57s.06-.06.09-.09c.03-.03.06-.06.09-.09v-.17s.06-.06.09-.09c0-.03.02-.06.05-.09v-.35s.01-.06.04-.09c.03-.03.04-.06.04-.09v-.39h.09v-.31s.06-.04.09-.04c.03-.06.04-.1.04-.13,0-.03.01-.06.04-.09v-.09s.06-.04.09-.04v-.35s.06-.04.09-.04v-.17c.06-.03.12-.06.17-.09v-.26c.06-.03.09-.06.09-.09v-.17s.06-.06.09-.09c.03-.03.06-.06.09-.09.03-.03.06-.06.09-.09v-.09h.13v-.22s.06-.06.09-.09c0-.03.01-.04.05-.04.03-.06.04-.1.04-.13,0-.03.02-.06.05-.09.06-.03.1-.06.13-.09v-.18s.04-.06.04-.09c.03-.03.05-.06.05-.09v-.05c.06-.03.1-.04.13-.04,0-.06.02-.09.05-.09.03-.06.04-.1.04-.13l.05-.09s.01-.04.05-.04c0-.06.02-.09.04-.09v-.22c.06-.03.1-.06.13-.09v-.18s.06-.03.09-.09c0-.03.02-.06.04-.09.03-.03.06-.06.09-.09v-.08s.07-.06.13-.09v-.09s.04-.06.04-.09c.03-.03.04-.06.04-.09,0-.03.02-.06.05-.09.03-.03.06-.06.09-.09v-.09s.06-.06.09-.09c.03-.03.04-.06.04-.09.03-.03.07-.06.13-.09v-.09h.09v-.13s.04-.06.04-.09c.03,0,.06-.03.09-.09.06-.03.1-.04.13-.04v-.22c.06,0,.1-.02.13-.04v-.09s.06-.06.09-.09v-.09c.06-.03.1-.06.13-.09v-.18c.06,0,.1-.01.13-.04v-.09s.06-.06.09-.09v-.09c.06-.03.1-.06.13-.09v-.09s.07-.06.13-.09v-.09s.06-.06.09-.09v-.17c.06-.03.1-.06.13-.09v-.17c.06-.03.1-.04.13-.04,0-.03.01-.07.04-.13l.04-.09v-.05c0-.06.01-.09.04-.09.06-.06.09-.1.09-.13v-.13c.06-.06.1-.09.13-.09v-.13l.04-.09.04-.05v-.22s.06-.03.09-.09c.03-.03.04-.06.04-.09v-.13s.07-.04.13-.04v-.35c-.06-.03-.1-.07-.13-.13v-.13c-.06-.03-.1-.06-.13-.09v-.17s-.06-.06-.09-.09c-.03,0-.07-.02-.13-.05v-.17s-.07-.07-.13-.13v-.13s-.06-.06-.09-.09c-.03-.03-.07-.07-.13-.13-.03,0-.07-.02-.13-.04v-.18s-.06-.07-.09-.13v-.58h-2.14v-.09c-.09-.03-.16-.04-.22-.04v-.04s-.07-.04-.13-.04c-.03-.03-.06-.06-.09-.09-.03-.06-.06-.09-.09-.09-.06-.03-.1-.06-.13-.09-.03-.03-.05-.07-.05-.13-.03,0-.06-.02-.09-.04v-.09s-.07-.06-.13-.09v-.04s-.07-.06-.13-.09c-.03,0-.07-.02-.13-.04v-.22l-.09-.09c-.06,0-.12-.02-.17-.04v-.09s-.06-.06-.09-.09v-.17h-.09v-4.59h.09v-.61h.09v-.09c.09-.03.17-.06.26-.09.03-.03.04-.06.04-.09.03-.03.04-.06.04-.09h.04c.06,0,.13-.01.22-.04,0-.03.02-.06.04-.09v-.09s.06-.07.09-.13c.06,0,.13-.02.22-.04.03-.03.06-.06.09-.09.03-.03.05-.06.05-.09.06-.03.13-.06.22-.09,0-.03.03-.06.09-.09v-.04l.04-.04c.06,0,.1-.01.13-.04v-.05c.06-.03.12-.06.18-.09l.04-.04c.06-.03.1-.06.13-.09.06-.03.11-.04.17-.04,0-.03.01-.06.04-.09.06-.03.12-.06.18-.09.03-.03.07-.06.13-.09.03-.03.04-.06.04-.09h.26v-.09c.06-.03.1-.06.13-.09v-.05c.06-.03.13-.06.22-.09.06-.03.1-.04.13-.04v-.13c.06,0,.1-.02.13-.04h.04v-.04h.04v-.26c.15,0,.26.01.35.04v-.39h.04s.06-.04.09-.04v-.09h.04s.04-.06.04-.09.01-.04.04-.04v-.09c.29,0,.6.02.92.05v.04c.12.03.23.04.35.04v.31s.01.04.04.04c0,.06.01.1.04.13l.05.09v.35c5.94,0,11.88.02,17.83.04v-1.09h.04s.06-.01.09-.04ZM43.32,14.8s-.06-.06-.09-.09v-.18s-.06-.06-.09-.09v-.26s-.07-.06-.13-.09v-.13s-.07-.02-.13-.05v-.09s-.06-.06-.09-.09c-.03-.03-.06-.06-.09-.09-.2,0-.41-.01-.61-.04h-2.36l.05.04v.22h.04v.04l.04.05s.01.04.04.04v.09l.04.04s.04.06.04.09h.04s.02.06.05.09h.04s.01.04.04.04c.03.03.06.06.09.09v.04s.04.06.04.09h.09v.09h.08l.05.05s.04.06.04.09h.04v.09s.06.04.09.04c.03,0,.04.02.04.04l.04.04v.04h.04l.04.04s.06.04.09.04v.04s.01.04.04.04h.04s.06.04.09.04.06.02.09.04c.03,0,.06.01.09.04v.09l.04.05h.09s.06.06.09.09l.04.04v.09l-.04.04s-.04.06-.04.09l-.04.04v.09h-.04v.09s-.04.01-.04.04c-.03,0-.04.02-.04.04h-.05l-.04.04h-.39c-.06,0-.1-.01-.13-.04h-.13s-.06-.04-.09-.04h-.08s-.06-.04-.09-.04l-.04-.04v-.04h-.22s-.07-.04-.13-.04c0-.03-.01-.05-.04-.05l-.04-.04s-.04-.02-.04-.05c-.03,0-.05-.01-.05-.04h-.13l-.04-.04v-.05s-.01-.04-.04-.04l-.04-.04s-.06-.04-.09-.04c0-.03-.02-.05-.04-.05-.03,0-.05-.01-.05-.05,0-.03-.02-.04-.04-.04l-.04-.05v-.04s-.01-.04-.04-.04l-.04-.04s-.06-.04-.09-.04c0-.03-.01-.04-.04-.04-.03,0-.04-.01-.04-.04s-.01-.04-.04-.04l-.04-.04v-.04s-.02-.04-.05-.04c-.03,0-.04-.01-.04-.04l-.04-.04s-.06-.04-.09-.04c0-.03-.02-.04-.05-.04,0-.03-.01-.06-.04-.09h-.04v-.09l-.04-.04v-.04s-.06-.04-.09-.04v-.04s-.01-.06-.04-.09c0-.03-.02-.04-.04-.04,0-.03-.02-.04-.05-.04v-.13l-.04-.04v-.17l-.04-.04s-.01-.06-.04-.09v-.13h-.09l-.04.04c-.06.03-.1.06-.13.09v.04s-.06.06-.09.09l-.05.04s-.04.06-.04.09c-.03.06-.07.1-.13.13v.13s-.01.07-.04.13c-.06.03-.09.06-.09.09v.26s-.06.07-.09.13c-.03.03-.06.06-.09.09-.03.06-.04.1-.04.13s-.03.07-.09.13c0,.03-.02.07-.04.13v.22s-.07.07-.13.13v.13s-.05.06-.05.09c-.03.03-.07.07-.13.13v.26s-.04.03-.04.09c-.03.03-.07.08-.13.13v.13c2.16.03,4.3.06,6.42.09v-.35c.06-.03.1-.06.13-.09.03-.03.06-.06.09-.09v-.09s.06-.04.09-.04v-.22c.06,0,.12-.01.17-.04v-.26s.06-.06.09-.09c0-.03-.01-.06-.04-.09-.03-.03-.04-.06-.04-.09v-.18s-.04-.06-.04-.09c-.03-.03-.07-.06-.13-.09v-.09s0-.06,0-.09ZM27.72,15.94v-.05h-.04v.05h.04Z"/>
    </g>
  </g>
  <path id="Layer0_0_1_STROKES" class="st1" d="M18.95,20.84c.41-.15.38-.42-.08-.82-.92-.78-1.28-1.51-1.1-2.19.09-.33.41-.77.96-1.3.32-.31.86-.8,1.62-1.49.64-.63,1.1-1.21,1.35-1.73.34-.67.4-1.34.19-1.98-.38-1.18-1.65-1.86-3.8-2.05-.58-.05-1.53-.09-2.85-.09-1.25-.01-2.16-.05-2.73-.11-1.66-.19-3.32-.61-4.98-1.28-1.67-.67-2.95-1.38-3.85-2.15-.9-.76-1.85-1.84-2.85-3.22-.13,3.93,1.51,6.78,4.9,8.56-1.59.16-3.12-.31-4.61-1.41,1.14,3.08,3.47,4.8,6.98,5.16-.96.7-2.28.8-3.93.31,1.53,1.95,4.24,2.87,8.15,2.75-.76.67-1.7,1.05-2.82,1.15,1.64,1.12,3.85,1.39,6.64.83.98.71,1.92,1.06,2.82,1.05Z"/>
</svg>