<?xml version="1.0" encoding="UTF-8"?>
<svg id="_Слой_1" data-name="Слой_1" xmlns="http://www.w3.org/2000/svg" version="1.1" viewBox="0 0 107.14 32">
  <!-- Generator: Adobe Illustrator 30.2.1, SVG Export Plug-In . SVG Version: 2.1.1 Build 1)  -->
  <defs>
    <style>
      .st0 {
        fill-rule: evenodd;
      }

      .st0, .st1 {
        fill: #fff;
      }

      .st1 {
        stroke: #000;
        stroke-linecap: round;
      }
    </style>
  </defs>
  <g id="Selected_Items">
    <g id="Selected_Items1" data-name="Selected_Items">
      <path class="st0" d="M101.73,3.55c0,.09.07.2.22.34.11.31.24.73.38,1.24.08.54.2,1.07.34,1.58v1.37c.11.09.19.2.21.34.03.17.09.34.17.52h.26c.17,0,.31-.02.43-.04h.26l2.35.04.08.17c0,.14.04.28.13.43.08.2.16.41.21.64.06.26.06.48,0,.68-.06.23-.2.38-.43.47-.26.11-.57.19-.94.21-.31.06-.56.09-.73.09-.03,0-.17.04-.43.13-.17.03-.31.07-.43.13h-.25c-.14,0-.32-.04-.51-.13,0,.26-.04.48-.13.69-.06.26-.24.43-.56.51-.11,0-.2.01-.26.04-.03.06-.06.09-.09.09l-.08.04v.73l-.22.69h-1.41c-.63.03-1.05-.07-1.28-.3-.11,0-.21.06-.3.17l-.13.13h-.08c-.26.03-.51.13-.77.3-.23.17-.37.34-.43.51v.64c0,.31.03.7.09,1.15v5.73c-.03.6-.06,1.1-.09,1.5-.08.57-.15,1.02-.21,1.37-.11.31-.2.57-.26.77-.08.17-.13.33-.13.47l-.13.21h-.17c-.23.06-.61.1-1.15.13-.54,0-.93-.11-1.15-.34v-.09c-.08-.11-.2-.24-.34-.39-.14-.11-.21-.33-.21-.64-.06-.4-.09-.66-.09-.77v-.17l-.17-.13c.14-1.77.24-3.24.3-4.4.09-1.11.14-2,.17-2.65.06-.66.13-1.15.21-1.5.06-.31.1-.53.13-.64-.08,0-.18-.04-.3-.13-.06-.09-.14-.19-.26-.3l-.22-.26c-.06-.03-.11-.06-.17-.09-.03-.06-.08-.09-.17-.09,0-.11-.08-.21-.26-.3-.2-.14-.33-.21-.39-.21-.14,0-.24-.03-.3-.09-.09,0-.13-.01-.13-.04h-.08l-.64.13s-.09-.03-.17-.09c-.08,0-.14-.01-.17-.04h-.43c-.11.03-.2.04-.26.04-.14.06-.29.09-.43.09h-2.61c0-.09.01-.22.04-.39,0-.11.01-.26.04-.43v-.3c-.26.11-.64.34-1.15.68-.54.28-.9.43-1.07.43h-1.75c.06.23.13.54.21.94.09.4.17.83.26,1.28.06.51.14,1.08.26,1.71-.11,0-.2.01-.26.04l-.47.26c0,.09.07.41.21.98.17.6.36,1.37.56,2.31.17.94.38,1.98.64,3.12.23,1.2.5,2.38.81,3.55.13.6.27,1.21.41,1.84.02.1.04.2.06.3-.07,0-.14.02-.21.04-.11,0-.21.01-.3.04-.11.03-.21.04-.3.04-.06.03-.13.06-.21.08-.23,0-.46.01-.68.04-.11,0-.22.01-.3.04-.11.03-.21.04-.3.04-.06.03-.13.06-.21.09-.43,0-.87.01-1.33.04-.11,0-.21.02-.3.04-.12.03-.22.04-.3.04-.06.03-.13.06-.22.08h-.73l-.21-.9s0-.03,0-.04c-.29-1.35-.59-2.65-.9-3.89-.28-1.31-.57-2.49-.85-3.55-.2-1.06-.38-1.89-.56-2.52-.17-.63-.26-.95-.26-.98h-1.15c-.34.03-.64.04-.9.04-.23.03-.44.04-.64.04-.26,0-.44.06-.56.17-.26.11-.44.25-.56.43-.14.2-.26.37-.34.51-.06.14-.14.27-.26.38-.11.12-.23.22-.34.3-.14.09-.48.16-1.03.22-.63.09-1.25.13-1.88.13h-2.1c-.62,0-1.04-.07-1.24-.21-.34-.09-.73-.23-1.15-.43-.46-.23-.78-.41-.98-.55-.57.8-.85,1.34-.85,1.62.11.25.2.44.26.55.06.11.09.22.09.3h.13l-.47.47s-.07-.04-.13-.04c-.14,0-.23.01-.26.04-.12.08-.24.3-.38.64-.2.34-.44.73-.73,1.15-.23.46-.42.89-.56,1.28-.17.34-.26.58-.26.73v.94c.08.09.06.23-.09.43-.23.17-.56.23-.98.17-.17-.08-.51-.24-1.03-.47-.48-.29-1.03-.6-1.62-.94-.57-.32-1.08-.61-1.54-.9-.51-.37-.78-.63-.81-.77,0-.11.04-.27.13-.47.06-.14.24-.48.55-1.02.26-.54.67-1.33,1.24-2.35.6-1,1.38-2.35,2.35-4.06,0-.25-.1-.71-.3-1.37-.14-.66-.63-1.11-1.45-1.37l-1.8-.68c-.37-.09-.68-.14-.94-.17-.26-.06-.53-.09-.81-.09-.26-.06-.57-.1-.94-.13-.43-.08-.87-.13-1.33-.13-.48-.03-.91-.03-1.28,0-.43,0-.73.04-.9.13l-22.11,7.83h-.08c-.06,0-.21.02-.47.04-.32.06-.66.1-1.03.13-.31,0-.67-.01-1.07-.04-.4-.06-.69-.14-.86-.26-.17-.2-.26-.38-.26-.56v-5.22c0-.74-.07-1.3-.21-1.67v-2.05c0-.29-.01-.57-.04-.85-.06-.29-.09-.56-.09-.81-.09-.37-.11-.73-.09-1.07,0-.34.19-.59.55-.73.03-.03.31-.07.85-.13.51,0,1.1-.02,1.75-.04.68,0,1.41-.01,2.18-.04h17.4c.2-.09.5-.17.9-.26.4-.14.78-.24,1.16-.3.43-.14.83-.26,1.2-.34.29-.11.47-.2.56-.26l.9-.64c.2-.09.37-.19.51-.3.17-.03.3-.07.38-.13.17-.14.73-.28,1.67-.43.28,0,.46-.03.51-.09.14,0,.24-.03.3-.08.14-.09.5-.43,1.07-1.03.51-.57,1.01-1.1,1.5-1.58.28-.2.71-.26,1.28-.17.57.06,1,.11,1.28.17.08,0,.17-.01.26-.04.06,0,.1-.01.13-.04.09,0,.14.02.17.04.2.12.34.19.43.21h1.02l.26.51v1.8h.17v-1.07h2.22v-.56h1.2v.56h.81v-.56h1.11v.56h.77v-.56h1.15v.56h.94v-.56h1.11v.56h.94v-.56h1.15v.56h.94v-.56h1.15v.56h.73v-.56h1.28v.56h.69v-.56h1.15v.56h1.2v1.07h15.69c.28-.23.64-.54,1.07-.94.46-.4.76-.71.9-.94,0-.26.01-.45.04-.6.03-.11.04-.23.04-.34.11-.29.2-.53.26-.73.14-.23.34-.37.6-.43h.34c.25-.12.51-.19.77-.22.23,0,.44.17.64.51.31.4.53.8.64,1.2.09.26.13.46.13.6ZM79.96,4.96h-17.23v.47h17.23s0-.47,0-.47ZM66.2,19.03c.23.2.5.3.81.3h3.97c.26,0,.54-.1.85-.3.2-.2.3-.41.3-.64,0-.43-.1-.76-.3-.98-.31-.17-.6-.26-.85-.26h-3.97c-.31,0-.58.09-.81.26-.28.23-.43.56-.43.98,0,.23.14.44.43.64ZM43.83,12.82c0-.71-.34-1.07-1.03-1.07h-1.88c-.26,0-.47.08-.64.26-.2.2-.3.47-.3.81,0,.23.1.41.3.56.17.2.39.3.64.3h1.88c.31,0,.57-.1.77-.3.17-.14.26-.33.26-.56ZM29.51,10.98c-.48-.09-.94-.14-1.37-.17-.46,0-.8-.03-1.03-.09,0,.4.02.91.04,1.54.09.66.14,1.33.17,2.01,0,.69.03,1.34.09,1.97.03.6.05.99.05,1.16.14.14.44.3.9.47.51.17,1,.26,1.45.26.34-.03.81-.14,1.41-.34.54-.17,1.11-.37,1.71-.6.57-.26,1.14-.51,1.71-.77.51-.26.91-.47,1.2-.64.2-.23.3-.48.3-.77,0-.31-.08-.76-.26-1.33-.17-.51-.33-.97-.47-1.37-.23,0-.63-.06-1.2-.17-.51-.15-1.15-.32-1.92-.52-.34-.11-.77-.23-1.28-.34-.46-.17-.95-.27-1.5-.3Z"/>
    </g>
  </g>
  <path id="Layer0_0_1_STROKES" class="st1" d="M19.37,20.79c.41-.15.38-.42-.08-.82-.92-.78-1.28-1.51-1.1-2.19.09-.33.41-.77.96-1.3.32-.31.86-.8,1.62-1.49.64-.63,1.1-1.21,1.35-1.73.34-.67.4-1.34.19-1.98-.38-1.18-1.65-1.86-3.8-2.05-.58-.05-1.53-.09-2.85-.09-1.25-.01-2.16-.05-2.73-.11-1.66-.19-3.32-.61-4.98-1.28-1.67-.67-2.95-1.38-3.85-2.15-.9-.76-1.85-1.84-2.85-3.22-.13,3.93,1.51,6.78,4.9,8.56-1.59.16-3.12-.31-4.61-1.41,1.14,3.08,3.47,4.8,6.98,5.16-.96.7-2.28.8-3.93.31,1.53,1.95,4.24,2.87,8.15,2.75-.76.67-1.7,1.05-2.82,1.15,1.64,1.12,3.85,1.39,6.64.83.98.71,1.92,1.06,2.82,1.05Z"/>
</svg>