<?xml version="1.0" encoding="UTF-8"?>
<svg id="_Слой_1" data-name="Слой_1" xmlns="http://www.w3.org/2000/svg" version="1.1" viewBox="0 0 92.19 32">
  <!-- Generator: Adobe Illustrator 30.2.1, SVG Export Plug-In . SVG Version: 2.1.1 Build 1)  -->
  <defs>
    <style>
      .st0 {
        fill-rule: evenodd;
      }

      .st0, .st1 {
        fill: #fff;
      }

      .st1 {
        stroke: #000;
        stroke-linecap: round;
      }
    </style>
  </defs>
  <g id="Selected_Items">
    <g id="Selected_Items1" data-name="Selected_Items">
      <path class="st0" d="M91.9,6.57c0,.71-.04,1.29-.13,1.74-.03.3-.12.61-.27.94-.06.15-.12.28-.18.4h-13.87l-.18-.13-.27.09h-10.66l-.27.18-.4-.14h-4.5v-.8h-1.52v-.67h-.94v1.56l.22.18v.76l-.22.18-.09,1.52h-10.12c-.06,0-.12.03-.18.09-.15.12-.27.28-.36.49-.12.32-.71,1.78-1.78,4.37-.15.27-.3.43-.45.49-.09.06-.33.1-.71.13l-4.64.18c-.18-.09-.4-.18-.67-.27-.48-.21-.86-.33-1.16-.36-.33-.06-.55-.09-.67-.09-.12.03-.34.07-.67.14-.27.09-.54.12-.81.09l-.31-.09-2.28,9.63-.09,1.07.49.71-9.59-.09c0-.56.03-1.29.09-2.18.18-1.79.46-3.48.85-5.09.41-1.64.95-3.17,1.6-4.59.03-.09.24-.52.62-1.29.18-.39.28-.65.31-.8.09-.36.01-.64-.22-.85-.18-.18-.56-.37-1.16-.58-.6-.21-.98-.34-1.16-.4-.24-.09-.36-.21-.36-.36-.03-.21-.01-.55.05-1.03l.09-.67-1.65-.18c-.12,0-.22-.03-.31-.09-.21-.15-.3-.34-.27-.58.06-.3.25-.45.58-.45.18-.03.34-.02.49.05l.22-1.16,1.34.85.58-2.9.94-1.78v-.76l.71.4,2.85.05.27.22h9.72v.18h5.44v-.14h9.37v-1.2h2.23l.27.32v.8l.31-.04.31.4v.72h.89v-.62h1.34v-1.3h4.64l.31-.18.4.18h10.66l.31.05.31-.13h13.69l.22.27c.12.27.21.58.27.94.03.45.06,1,.08,1.65ZM45.91,12.46l-5.08.05c-.51.5-.86.88-1.07,1.11-.33.42-.51.65-.54.71-.21.33-.33.7-.35,1.11-.03.21,0,.51.09.89.06.18.12.33.18.45l-.31.22c-.15-.21-.27-.46-.36-.76-.24-.53-.34-.98-.31-1.34.06-.59.28-1.15.67-1.65.15-.24.31-.43.49-.58-.21.03-.44.09-.72.18-.53.18-.92.39-1.16.62-.33.35-.53.74-.62,1.16-.12.45-.09.86.09,1.25.18.36.43.66.76.89.33.24.71.4,1.16.49.27.03.7.05,1.29.05.5-.03.83,0,.98.09.21.06.94.09,2.19.09,1.19-.03,1.84-.08,1.96-.14.15-.09.45-.76.89-2.01l.67-1.88v-.27c0-.18-.03-.33-.09-.45-.12-.12-.28-.21-.49-.27l-.31-.04Z"/>
    </g>
  </g>
  <path id="Layer0_0_1_STROKES" class="st1" d="M18.92,20.74c.41-.15.38-.42-.08-.82-.92-.78-1.28-1.51-1.1-2.19.09-.33.41-.77.96-1.3.32-.31.86-.8,1.62-1.49.64-.63,1.1-1.21,1.35-1.73.34-.67.4-1.34.19-1.98-.38-1.18-1.65-1.86-3.8-2.05-.58-.05-1.53-.09-2.85-.09-1.25-.01-2.16-.05-2.73-.11-1.66-.19-3.32-.61-4.98-1.28-1.67-.67-2.95-1.38-3.85-2.15-.9-.76-1.85-1.84-2.85-3.22-.13,3.93,1.51,6.78,4.9,8.56-1.59.16-3.12-.31-4.61-1.41,1.14,3.08,3.47,4.8,6.98,5.16-.96.7-2.28.8-3.93.31,1.53,1.95,4.24,2.87,8.15,2.75-.76.67-1.7,1.05-2.82,1.15,1.64,1.12,3.85,1.39,6.64.83.98.71,1.92,1.06,2.82,1.05Z"/>
</svg>