<?xml version="1.0" encoding="UTF-8"?>
<svg id="_Слой_1" data-name="Слой_1" xmlns="http://www.w3.org/2000/svg" version="1.1" viewBox="0 0 121 32">
  <!-- Generator: Adobe Illustrator 30.2.1, SVG Export Plug-In . SVG Version: 2.1.1 Build 1)  -->
  <defs>
    <style>
      .st0 {
        fill-rule: evenodd;
      }

      .st0, .st1 {
        fill: #fff;
      }

      .st1 {
        stroke: #000;
        stroke-linecap: round;
      }
    </style>
  </defs>
  <g id="Selected_Items">
    <g id="Selected_Items1" data-name="Selected_Items">
      <path class="st0" d="M120.72,8.7c0,.27-.01.55-.04.82-.05.36-.11.64-.21.82-.16.16-.53.26-1.1.31-.6.02-1.18.03-1.75.03v.34h.1c.09,0,.14.06.14.17.21,0,.49-.02.86-.07.46-.05.81.03,1.06.24.21.07.37.32.48.76.14.39.17.78.1,1.17-.18.55-.57.91-1.17,1.1h-24.42c-.14,0-.54.13-1.2.38-.71.23-1.73.34-3.05.34h-7.37c-1.46.05-2.97.07-4.53.07h-7.47c-.89,0-1.38-.02-1.48-.07-.27-.12-.54-.19-.79-.24h-2.06c-.16-.07-.43-.1-.82-.1-.41-.02-.83-.05-1.27-.07h-1.13c-.32,0-.54.01-.65.03-.16,0-.35.11-.58.34-.57.39-.98.58-1.24.58-.09,0-.25-.07-.48-.2-.23-.07-.54-.15-.93-.24-.34-.09-.73-.17-1.17-.24-.43-.07-.7-.1-.79-.1h-1.27c-.62.05-1.02.16-1.2.34-.14,0-.32.19-.55.58-.25.25-.55.56-.89.93-.32.34-.66.56-1.03.65h-.58c-.18.11-.32.17-.41.17-.07.02-.15.03-.24.03-.21,0-.55.01-1.03.03-.46,0-.94.02-1.44.07-.55.02-1.03.07-1.44.14-.43.07-.7.16-.79.27-.07.04-.18.27-.34.68-.18.41-.4.92-.65,1.51-.3.59-.6,1.23-.92,1.92-.32.64-.63,1.23-.93,1.78,0,.48.03.8.1.96.05.18.09.33.14.44l.17.17c.05.11.15.22.31.31.14.09.21.23.21.41l-.14.21c-.09.09-.25.14-.48.14-.25.05-.49.07-.72.07-.27,0-.58-.02-.93-.07-.39-.09-.86-.2-1.41-.34-.57-.09-1.12-.19-1.65-.31-.48-.16-.9-.31-1.27-.45-.44-.09-.66-.19-.69-.31l-.1-.14v-.03h-.03c-.14-.09-.21-.25-.21-.48v-.24c.02-.09.22-.43.58-1.03.34-.59.71-1.27,1.1-2.02.39-.73.77-1.42,1.13-2.06.32-.62.5-.99.55-1.13,0-.18-.01-.42-.03-.72-.02-.25-.11-.47-.27-.65-.3-.11-.65-.19-1.06-.24-.43-.07-.75-.07-.96,0-.46,0-.69-.03-.69-.1h-.14c0-.09.01-.19.03-.31,0-.09.01-.17.04-.24.04-.05.07-.09.07-.14-.09,0-.51.08-1.27.24-.75.14-1.56.32-2.4.55-.85.18-1.61.38-2.3.58-.71.16-1.09.24-1.13.24-.09.05-.2.15-.34.31-.09.16-.27.39-.55.69-.16.2-.31.45-.45.72-.14.3-.26.6-.38.92-.14.3-.25.55-.34.75-.09.23-.16.38-.21.45-.07.02-.24.15-.51.38-.23.14-.63.33-1.2.58-.59.3-1.41.64-2.43,1.03h-.17l-.72-.24-.2-12.93,5.35-.79c.18-.02.33-.07.45-.14.09-.07.17-.15.24-.24.09-.09.17-.18.24-.27l17.52-1.61v.21c.09.18.19.34.31.48.09.14.18.2.27.2.05.07.09.1.14.1.07,0,.14-.03.21-.1l.2-.2v-.48h.14c.5-.76.87-1.29,1.1-1.58v-.07h.05s.06-.07.09-.1c0-.01.02-.02.03-.03h1.05s.09.09.12.14h.21v.29c.19.17.38.26.58.26l.34.17h1.1c.36,0,.65.02.86.07.23.02.34.11.34.28.14,0,.2.19.2.58v.34s.07.01.14.03c.04.05.08.07.1.07l.1.03v-1.06h12.24v-.69h.72v.69h1.78v.24c0,.23.04.46.1.69.09.23.17.34.24.34h44.96c.09-.07.25-.22.48-.45.16-.23.24-.42.24-.58l.14-.41c0-.16.04-.39.14-.69.11-.25.25-.38.41-.38.11,0,.36.09.75.27.32.18.67.39,1.06.62.36.23.71.47,1.03.72.27.3.46.53.55.69.12.09.18.16.21.2.07,0,.11.03.14.1.07.02.13.03.17.03h.17l.58.24v.51h0ZM115.16,10.69h-1.06l-.17-.24h-19.14c-.25.23-.38.42-.38.58v.17c.25.05,1.09.07,2.5.07h5.18c2.06-.05,4.23-.09,6.51-.14,2.35-.05,4.49-.08,6.41-.1h.48c-.11-.23-.23-.34-.34-.34ZM51.31,5.92s.05.01.07.03h.07s.01.03.03.03h-.17s0-.07,0-.07ZM52.61,15.46c0-.39-.08-.7-.24-.93-.16-.21-.41-.31-.75-.31h-2.5c-.3,0-.56.1-.79.31-.18.23-.27.54-.27.93,0,.25.09.48.27.69.23.23.49.34.79.34h2.5c.34,0,.59-.11.75-.34.16-.21.24-.43.24-.69ZM48.7,5.99s.05-.01.07-.03h.03v.03h-.1Z"/>
    </g>
  </g>
  <path id="Layer0_0_1_STROKES" class="st1" d="M18.86,21.23c.41-.15.38-.42-.08-.82-.92-.78-1.28-1.51-1.1-2.19.09-.33.41-.77.96-1.3.32-.31.86-.8,1.62-1.49.64-.63,1.1-1.21,1.35-1.73.34-.67.4-1.34.19-1.98-.38-1.18-1.65-1.86-3.8-2.05-.58-.05-1.53-.09-2.85-.09-1.25-.01-2.16-.05-2.73-.11-1.66-.19-3.32-.61-4.98-1.28-1.67-.67-2.95-1.38-3.85-2.15-.9-.76-1.85-1.84-2.85-3.22-.13,3.93,1.51,6.78,4.9,8.56-1.59.16-3.12-.31-4.61-1.41,1.14,3.08,3.47,4.8,6.98,5.16-.96.7-2.28.8-3.93.31,1.53,1.95,4.24,2.87,8.15,2.75-.76.67-1.7,1.05-2.82,1.15,1.64,1.12,3.85,1.39,6.64.83.98.71,1.92,1.06,2.82,1.05Z"/>
</svg>